<svg width="140" height="41" viewBox="0 0 140 41" fill="none" xmlns="http://www.w3.org/2000/svg">
<g clip-path="url(#clip0_646_1019)">
<path d="M31.9673 33.7385L35.6659 35.5488C36.7528 36.0807 38.0689 35.6081 38.4895 34.4735C39.5699 31.5588 40.4147 28.1066 40.7056 24.555C41.0461 20.3992 40.6253 16.15 38.9778 12.4731L38.9755 12.4741C38.9023 12.3157 38.8279 12.1577 38.7523 12.0002C38.1854 10.9111 37.1237 9.57534 35.5601 8.69152C33.7978 7.69531 31.3495 7.24445 28.1367 8.44979C27.4552 8.7055 26.7613 9.03594 26.0654 9.43012C26.9394 10.9195 27.5656 12.9281 27.6153 15.5767C27.6603 17.9704 27.2725 20.2373 26.6785 22.2569L32.3075 24.3502C33.6387 24.8452 34.5127 26.1624 34.2469 27.5576C33.9274 29.2348 33.3918 30.8674 32.6565 32.4188C32.4481 32.8587 32.2188 33.3002 31.9673 33.7385Z" fill="white"/>
<path d="M12.8779 32.1513C13.3587 32.0063 13.8665 31.7966 14.3994 31.505C16.6563 30.27 18.3631 28.2534 19.5764 26.2751C20.363 24.9926 20.9546 23.7061 21.3613 22.6194C21.5447 22.1293 22.0865 21.8629 22.5769 22.0452L31.6896 25.434C32.6074 25.7753 33.1861 26.6988 32.9795 27.656C32.7071 28.9174 32.2487 30.4007 31.5416 31.8926C30.3826 34.3382 28.5765 36.7644 25.874 38.298C23.6409 39.5651 21.357 40.2188 19.2221 40.317C16.896 39.9228 15.3699 38.9116 14.3977 37.5611C13.3684 36.1312 12.9107 34.2522 12.8779 32.1513Z" fill="white"/>
<path d="M18.5257 0.311564C24.2731 -0.362069 28.5436 0.911496 31.7851 3.20394C33.5074 4.422 34.9539 5.93815 36.1806 7.62873L36.1674 7.62125C34.0751 6.43857 31.2445 5.96985 27.7032 7.29845C22.9491 9.08205 17.8241 14.1081 15.0955 19.2336C13.3257 22.5581 11.5804 27.6559 11.6464 32.1552C11.6795 34.4104 12.1687 36.5721 13.398 38.2797C13.8259 38.8742 14.3377 39.4055 14.9394 39.8625C10.5614 38.7717 5.05285 35.7345 2.08416 28.7337C-0.506543 22.6244 0.725268 15.8616 4.08185 10.4261C7.44356 4.98228 12.8724 0.974174 18.5257 0.311564Z" fill="white"/>
<path d="M67.7733 12.1877C67.832 11.9884 68.015 11.8515 68.2227 11.8515H71.4758C71.7346 11.8515 71.9444 12.0613 71.9444 12.3201V31.5247C71.9444 31.7835 71.7346 31.9933 71.4758 31.9933H68.0458C67.8334 31.9933 67.6475 31.8504 67.593 31.6451L67.1998 30.1656C65.4814 31.6949 63.2399 32.5901 60.6621 32.5901C54.6101 32.5901 50.0898 28.0023 50.0898 21.9224C50.0898 15.8426 54.6101 11.292 60.6621 11.292C63.2772 11.292 65.5561 12.2245 67.3119 13.7538L67.7733 12.1877ZM61.1104 27.4428C64.2859 27.4428 66.6021 25.0929 66.6021 21.9224C66.6021 18.752 64.2859 16.4021 61.1104 16.4021C57.935 16.4021 55.6188 18.752 55.6188 21.9224C55.6188 25.0556 57.935 27.4428 61.1104 27.4428Z" fill="white"/>
<path d="M89.5934 12.1615C89.6603 11.9755 89.8367 11.8515 90.0343 11.8515H94.6559C94.9868 11.8515 95.2135 12.1854 95.0914 12.493L87.4687 31.6976C87.3978 31.8761 87.2252 31.9933 87.0332 31.9933H82.6228C82.4324 31.9933 82.2609 31.8781 82.189 31.7018L74.3526 12.4971C74.2268 12.1889 74.4535 11.8515 74.7864 11.8515H79.5893C79.7861 11.8515 79.9619 11.9745 80.0294 12.1594L84.8483 25.354L89.5934 12.1615Z" fill="white"/>
<path d="M113.258 11.8515H116.861C117.12 11.8515 117.33 12.0613 117.33 12.3201V31.5247C117.33 31.7835 117.12 31.9933 116.861 31.9933H113.431C113.219 31.9933 113.033 31.8504 112.978 31.6451L112.585 30.1656C110.867 31.6949 108.625 32.5901 106.048 32.5901C99.9959 32.5901 95.4756 28.0023 95.4756 21.9224C95.4756 15.8426 99.9959 11.292 106.048 11.292C108.663 11.292 110.942 12.2245 112.697 13.7538L113.258 11.8515ZM106.496 27.4428C109.671 27.4428 111.988 25.0929 111.988 21.9224C111.988 18.752 109.671 16.4021 106.496 16.4021C103.321 16.4021 101.004 18.752 101.004 21.9224C101.004 25.0556 103.321 27.4428 106.496 27.4428Z" fill="white"/>
<path d="M124.535 9.8784C123.082 9.8784 121.904 8.70025 121.904 7.24693C121.904 5.79361 123.082 4.61546 124.535 4.61546H124.689C126.142 4.61546 127.321 5.79361 127.321 7.24693C127.321 8.70025 126.142 9.8784 124.689 9.8784H124.535ZM122.335 31.9933C122.076 31.9933 121.866 31.7835 121.866 31.5247V12.3201C121.866 12.0613 122.076 11.8515 122.335 11.8515H126.852C127.111 11.8515 127.321 12.0613 127.321 12.3201V31.5247C127.321 31.7835 127.111 31.9933 126.852 31.9933H122.335Z" fill="white"/>
<path d="M137.263 25.3789C137.263 25.8536 137.361 26.1886 137.557 26.3841C137.78 26.5516 138.13 26.6354 138.605 26.6354C138.842 26.6354 139.063 26.6354 139.385 26.6354C139.708 26.6354 139.906 26.9239 139.906 27.1881V31.3687V31.3878C139.906 31.6924 139.672 31.9629 139.301 31.9629C138.594 31.9629 138.009 31.9933 137.263 31.9933L136.255 31.9932C134.829 31.9932 133.724 31.6163 132.941 30.8624C132.186 30.1085 131.809 28.7683 131.809 26.8417V5.08403C131.809 4.82525 132.018 4.61546 132.277 4.61546L136.794 4.61542C137.053 4.61542 137.263 4.82521 137.263 5.08399V25.3789Z" fill="white"/>
</g>
<defs>
<clipPath id="clip0_646_1019">
<rect width="140" height="41" fill="white"/>
</clipPath>
</defs>
</svg>
