<svg width="164" height="112" viewBox="0 0 164 112" fill="none" xmlns="http://www.w3.org/2000/svg">
<path d="M24.3369 32.7671H30.9145V61.6986H24.3369V32.7671Z" fill="white"/>
<path d="M42.5347 38.2466H49.1122V60.3397H42.5347V38.2466Z" fill="white"/>
<path d="M108.858 39.3423H115.436V61.2601H108.858V39.3423Z" fill="white"/>
<path d="M58.9785 38.2466H65.5561V60.3397H58.9785V38.2466Z" fill="white"/>
<path d="M125.302 50.3013H131.88V54.6848H125.302V50.3013Z" fill="white"/>
<path d="M74.9839 39.3423H81.5614V43.7258H74.9839V39.3423Z" fill="white"/>
<path d="M91.4277 50.3013H98.0053V54.6848H91.4277V50.3013Z" fill="white"/>
<path d="M42.5347 39.3424V32.7671H65.5561V39.3424H42.5347Z" fill="white"/>
<path d="M108.858 39.3424V32.7671H131.88V39.3424H108.858Z" fill="white"/>
<path d="M74.9839 39.3424V32.7671H98.0053V39.3424H74.9839Z" fill="white"/>
<path d="M74.9839 50.3014V43.7261H98.0053V50.3014H74.9839Z" fill="white"/>
<path d="M74.9839 61.2604V54.6851H98.0053V61.2604H74.9839Z" fill="white"/>
<path d="M119.821 50.3014V43.7261H131.88V50.3014H119.821Z" fill="white"/>
<path d="M42.5347 61.6984V55.123H65.5561V61.6984H42.5347Z" fill="white"/>
<path d="M108.858 61.2604V54.6851H131.88V61.2604H108.858Z" fill="white"/>
<path d="M34.8875 66.6196H33.1836L29.6381 77.2698H29.6037L26.0926 66.6196H24.3198L28.6571 78.9043H30.5159L34.8875 66.6196ZM40.1599 78.9043H48.6966V77.5279H41.7949V73.2782H48.1803V71.9017H41.7949V67.9961H48.645V66.6196H40.1599V78.9043ZM58.3147 73.8889V72.4523H59.7518V73.8889H58.3147ZM56.8819 72.4523V71.0199H58.3147V72.4523H56.8819ZM54.0119 78.9043V66.7185H55.449V69.5875H56.8819V71.0199H55.449V78.9043H54.0119ZM61.1847 78.9043V75.3212H59.7518V73.8889H61.1847V66.7185H62.6175V78.9043H61.1847ZM71.4211 78.9043H73.0562V67.9961H77.1525V66.6196H67.3249V67.9961H71.4211V78.9043ZM83.2835 78.9043V77.4719H89.0191V78.9043H83.2835ZM81.8464 77.4719V66.7185H83.2835V77.4719H81.8464ZM89.0191 77.4719V66.7185H90.4521V77.4719H89.0191ZM103.012 78.9043V77.4719H104.445V78.9043H103.012ZM101.579 77.4719V76.0396H103.012V77.4719H101.579ZM100.142 76.0396V74.603H101.579V76.0396H100.142ZM103.012 71.7382V68.1509H104.445V71.7382H103.012ZM95.8393 78.9043V66.7185H103.012V68.1509H97.2764V71.7382H103.012V73.1705H100.142V74.603H98.7092V73.1705H97.2764V78.9043H95.8393ZM110.46 78.9043H118.997V77.5279H112.096V73.2782H118.48V71.9017H112.096V67.9961H118.945V66.6196H110.46V78.9043ZM125.031 78.9043V77.4719H131.485V78.9043H125.031ZM131.485 77.4719V73.1705H132.918V77.4719H131.485ZM125.75 73.1705V71.7382H131.485V73.1705H125.75ZM124.312 71.7382V68.1509H125.75V71.7382H124.312ZM125.75 68.1509V66.7185H132.203V68.1509H125.75Z" fill="white"/>
<path d="M131.88 32.7671H128.591V36.0548H131.88V32.7671Z" fill="white"/>
<path d="M131.88 43.7261H128.591V47.0137H131.88V43.7261Z" fill="white"/>
<path d="M98.0056 32.7671H94.7168V36.0548H98.0056V32.7671Z" fill="white"/>
<path d="M65.5562 55.7808V52.4932H62.2674V55.7808H65.5562Z" fill="white"/>
<path d="M128.591 36.0547H125.302V39.3424H128.591V36.0547Z" fill="white"/>
<path d="M128.591 47.0137H125.302V50.3013H128.591V47.0137Z" fill="white"/>
<path d="M94.7165 36.0547H91.4277V39.3424H94.7165V36.0547Z" fill="white"/>
<path d="M125.302 32.7671H122.013V36.0548H125.302V32.7671Z" fill="white"/>
<path d="M65.5562 49.2056V45.918H62.2674V49.2056H65.5562Z" fill="white"/>
<path d="M30.9146 49.2056V45.918H27.6258V49.2056H30.9146Z" fill="white"/>
<path d="M88.1389 36.0547H84.8501V39.3424H88.1389V36.0547Z" fill="white"/>
<path d="M81.4519 36.0547H78.1631V39.3424H81.4519V36.0547Z" fill="white"/>
<path d="M91.4279 32.7671H88.1392V36.0548H91.4279V32.7671Z" fill="white"/>
<path d="M27.6255 45.918V42.6304H24.3367V45.918H27.6255Z" fill="white"/>
<path d="M115.436 36.0547H112.147V39.3424H115.436V36.0547Z" fill="white"/>
<path d="M122.013 36.0547H118.725V39.3424H122.013V36.0547Z" fill="white"/>
<path d="M125.302 43.8354H122.013V47.1231H125.302V43.8354Z" fill="white"/>
<path d="M131.88 50.3013H128.591V53.5889H131.88V50.3013Z" fill="white"/>
<path d="M49.1123 39.3424V36.0547H45.8235V39.3424H49.1123Z" fill="white"/>
<path d="M52.4009 36.0548V32.7671H49.1121V36.0548H52.4009Z" fill="white"/>
<path d="M55.6899 39.3424V36.0547H52.4012V39.3424H55.6899Z" fill="white"/>
<path d="M62.2676 39.3424V36.0547H58.9788V39.3424H62.2676Z" fill="white"/>
<path d="M65.5562 42.63V39.3423H62.2674V42.63H65.5562Z" fill="white"/>
<path d="M62.2676 45.918V42.6304H58.9788V45.918H62.2676Z" fill="white"/>
<path d="M62.2676 52.6026V49.3149H58.9788V52.6026H62.2676Z" fill="white"/>
<path d="M45.8237 36.0548V32.7671H42.535V36.0548H45.8237Z" fill="white"/>
<path d="M98.0056 47.123H94.7168V50.4107H98.0056V47.123Z" fill="white"/>
<path d="M91.4279 47.0137H88.1392V50.3013H91.4279V47.0137Z" fill="white"/>
<path d="M94.7165 50.3013H91.4277V53.5889H94.7165V50.3013Z" fill="white"/>
<path d="M98.0056 53.5889H94.7168V56.8765H98.0056V53.5889Z" fill="white"/>
<path d="M118.725 32.7671H115.436V36.0548H118.725V32.7671Z" fill="white"/>
<path d="M84.8503 32.7671H81.5615V36.0548H84.8503V32.7671Z" fill="white"/>
<path d="M30.9146 42.63V39.3423H27.6258V42.63H30.9146Z" fill="white"/>
<path d="M27.6255 39.3424V36.0547H24.3367V39.3424H27.6255Z" fill="white"/>
<path d="M78.2727 32.7671H74.9839V36.0548H78.2727V32.7671Z" fill="white"/>
<path d="M65.5562 36.0548V32.7671H62.2674V36.0548H65.5562Z" fill="white"/>
<path d="M30.9146 36.0548V32.7671H27.6258V36.0548H30.9146Z" fill="white"/>
<path d="M58.9785 36.0548V32.7671H55.6897V36.0548H58.9785Z" fill="white"/>
<path d="M94.7165 43.8354H91.4277V47.1231H94.7165V43.8354Z" fill="white"/>
<path d="M88.1389 43.7261H84.8501V47.0137H88.1389V43.7261Z" fill="white"/>
<path d="M83.0964 22.4658H79.8076V25.7535H83.0964V22.4658Z" fill="white"/>
<path d="M74.8742 26.1919H71.5854V29.4796H74.8742V26.1919Z" fill="white"/>
<path d="M37.0534 22.9043H33.7646V26.192H37.0534V22.9043Z" fill="white"/>
<path d="M96.2512 24.5479H92.9624V27.8355H96.2512V24.5479Z" fill="white"/>
<path d="M139.553 42.082H136.265V45.3697H139.553V42.082Z" fill="white"/>
<path d="M146.789 52.1646H143.5V55.4522H146.789V52.1646Z" fill="white"/>
<path d="M138.567 57.7534H135.278V61.0411H138.567V57.7534Z" fill="white"/>
</svg>
