<svg width="155" height="38" viewBox="0 0 155 38" fill="none" xmlns="http://www.w3.org/2000/svg">
<g clip-path="url(#clip0_646_1006)">
<path d="M24.6762 13.0166C23.4084 15.1947 20.2755 15.1878 19.0104 13.0113L11.7568 0.465716H31.956L24.6762 13.0166Z" fill="white"/>
<path d="M19.0277 24.715C20.2955 22.5369 23.4284 22.5438 24.6935 24.7203L31.9472 37.2658H11.748L19.0277 24.715Z" fill="white"/>
<path d="M15.358 19.3524C17.8841 19.3578 19.4445 22.0659 18.1862 24.2463L10.914 36.7812L0.814453 19.3432L15.358 19.3524Z" fill="white"/>
<path d="M28.3451 18.3792C25.819 18.3738 24.2585 15.6657 25.5168 13.4853L32.789 0.950509L42.8886 18.3883L28.3451 18.3792Z" fill="white"/>
<path d="M15.397 18.3792C17.9231 18.3738 19.4836 15.6657 18.2253 13.4853L10.953 0.950512L0.853516 18.3883L15.397 18.3792Z" fill="white"/>
<path d="M25.521 24.2284C24.2627 22.0449 25.8351 19.3437 28.3585 19.3398L42.8844 19.3506L32.7849 36.7884L25.521 24.2284Z" fill="white"/>
<path d="M63.7717 34.3865C61.6789 34.3865 59.7398 34.0109 57.9538 33.2601C56.1962 32.4812 54.6755 31.4103 53.3921 30.0474C52.1363 28.6566 51.1458 27.0294 50.4203 25.1658C49.7228 23.2744 49.374 21.2022 49.374 18.9492C49.374 16.7518 49.7086 14.7074 50.3784 12.816C51.0481 10.8968 51.9967 9.24182 53.2245 7.85108C54.4802 6.43252 55.9867 5.33382 57.7447 4.55501C59.5306 3.74837 61.5255 3.34507 63.7298 3.34507C65.5715 3.34507 67.2176 3.60931 68.6687 4.13779C70.1194 4.63845 71.3613 5.34773 72.3937 6.26564C73.4538 7.15568 74.2909 8.21265 74.9049 9.43653C75.5186 10.6604 75.9093 11.9816 76.0769 13.4002H70.0498C69.7707 11.8981 69.0871 10.7021 67.9989 9.81201C66.9108 8.89414 65.4877 8.43518 63.7298 8.43518C62.3348 8.43518 61.1209 8.71334 60.0886 9.26965C59.0839 9.79813 58.2468 10.5352 57.5774 11.4809C56.9076 12.4266 56.4054 13.5392 56.0705 14.8187C55.7356 16.0982 55.5683 17.475 55.5683 18.9492C55.5683 20.479 55.7498 21.8837 56.1124 23.1632C56.5031 24.4426 57.0472 25.5553 57.7447 26.5009C58.4702 27.4189 59.3353 28.142 60.3396 28.6705C61.372 29.1712 62.5159 29.4215 63.7717 29.4215C65.5573 29.4215 67.0223 28.9487 68.1665 28.003C69.3381 27.0294 70.0218 25.75 70.2171 24.1645H76.1604C76.0769 25.4996 75.7558 26.7791 75.1979 28.003C74.6397 29.199 73.8584 30.2699 72.854 31.2156C71.8216 32.1891 70.5659 32.968 69.0871 33.5521C67.6363 34.1083 65.8645 34.3865 63.7717 34.3865Z" fill="white"/>
<path d="M78.1943 12.3571H83.8865V33.7606H78.1943V12.3571ZM78.1943 3.92917H83.8865V9.01928H78.1943V3.92917Z" fill="white"/>
<path d="M85.6709 12.3571H88.6427V5.6815H94.2091V12.3571H97.8923V16.1121H94.2091V27.4606C94.2091 28.2672 94.4045 28.8235 94.7951 29.1294C95.1858 29.4354 95.7018 29.5884 96.3435 29.5884H97.432C97.6273 29.5884 97.8226 29.5745 98.018 29.5467V33.7189C97.7388 33.7468 97.432 33.7606 97.0971 33.7606C96.7903 33.7886 96.4135 33.8024 95.9671 33.8024C95.5206 33.8024 95.0182 33.8024 94.4602 33.8024C93.7627 33.8024 93.0652 33.7327 92.3674 33.5939C91.6979 33.4268 91.0839 33.1486 90.526 32.7595C89.968 32.37 89.5075 31.8415 89.1449 31.1738C88.81 30.5063 88.6427 29.6718 88.6427 28.6705V16.1121H85.6709V12.3571Z" fill="white"/>
<path d="M105.678 15.7783H105.804C106.445 14.5545 107.171 13.6366 107.98 13.0246C108.789 12.4127 109.822 12.1067 111.077 12.1067C111.663 12.1067 112.11 12.1624 112.417 12.2736V17.2386H112.291C110.422 17.0439 108.887 17.4472 107.687 18.4485C106.487 19.4499 105.887 21.0771 105.887 23.3301V33.7606H100.195V12.3571H105.678V15.7783Z" fill="white"/>
<path d="M123.715 34.3865C121.93 34.3865 120.339 34.0945 118.944 33.5103C117.577 32.9262 116.419 32.1336 115.47 31.1321C114.521 30.103 113.796 28.893 113.294 27.5023C112.819 26.1116 112.582 24.6234 112.582 23.038C112.582 21.4525 112.833 19.9784 113.336 18.6154C113.866 17.2247 114.591 16.0287 115.512 15.0273C116.461 14.026 117.577 13.2333 118.86 12.6491C120.172 12.065 121.609 11.773 123.171 11.773C124.901 11.773 126.422 12.0929 127.733 12.7326C129.045 13.3445 130.147 14.2207 131.04 15.3611C131.932 16.5015 132.602 17.8644 133.049 19.4499C133.523 21.0075 133.76 22.746 133.76 24.6652H118.19C118.414 26.3341 118.972 27.6414 119.865 28.5871C120.785 29.5328 122.055 30.0056 123.673 30.0056C124.79 30.0056 125.682 29.7692 126.352 29.2963C127.022 28.8235 127.51 28.1838 127.817 27.3771H133.425C133.23 28.3228 132.867 29.2268 132.337 30.0891C131.835 30.9235 131.165 31.6606 130.328 32.3003C129.519 32.94 128.556 33.4406 127.44 33.8024C126.324 34.1918 125.083 34.3865 123.715 34.3865ZM123.255 16.1538C121.748 16.1538 120.604 16.571 119.823 17.4055C119.042 18.2121 118.525 19.3247 118.274 20.7433H127.817C127.733 19.3803 127.273 18.2816 126.436 17.4472C125.627 16.585 124.566 16.1538 123.255 16.1538Z" fill="white"/>
<path d="M149.285 33.7606C149.117 33.538 148.978 33.2045 148.866 32.7595C148.755 32.3141 148.671 31.8553 148.615 31.3825H148.531C148.253 31.7997 147.932 32.1891 147.569 32.5506C147.234 32.8844 146.815 33.1765 146.313 33.4268C145.839 33.6771 145.267 33.8718 144.597 34.0109C143.928 34.178 143.132 34.2612 142.212 34.2612C140.007 34.2612 138.208 33.7051 136.813 32.5924C135.417 31.4797 134.72 29.8526 134.72 27.7109C134.72 26.5427 134.943 25.5553 135.39 24.7486C135.836 23.942 136.45 23.2744 137.231 22.746C138.012 22.2175 138.919 21.8141 139.952 21.536C141.012 21.23 142.142 20.9936 143.342 20.8267C145.127 20.5764 146.439 20.3121 147.276 20.034C148.113 19.7559 148.531 19.2135 148.531 18.4068C148.531 17.628 148.225 17.0161 147.611 16.571C147.025 16.0982 146.132 15.8618 144.932 15.8618C143.593 15.8618 142.588 16.1121 141.919 16.6128C141.249 17.0856 140.872 17.8366 140.789 18.8658H135.724C135.752 17.92 135.961 17.03 136.352 16.1955C136.743 15.3333 137.315 14.5823 138.068 13.9425C138.822 13.3028 139.77 12.7882 140.914 12.3988C142.058 12.0094 143.411 11.8147 144.974 11.8147C148.183 11.8147 150.485 12.5101 151.88 13.9008C153.303 15.2638 154.014 17.1969 154.014 19.7002V30.5897C154.014 32.203 154.265 33.1903 154.768 33.5521V33.7606H149.285ZM143.593 30.2977C144.402 30.2977 145.114 30.1864 145.727 29.9639C146.369 29.7136 146.899 29.4076 147.318 29.046C147.764 28.6566 148.099 28.2255 148.322 27.7526C148.546 27.252 148.657 26.7374 148.657 26.2089V22.9963C148.155 23.3022 147.541 23.5526 146.815 23.7473C146.118 23.9142 145.407 24.0811 144.681 24.248C143.174 24.5817 142.058 24.9711 141.333 25.4162C140.607 25.8612 140.245 26.5844 140.245 27.5857C140.245 28.5871 140.551 29.2963 141.165 29.7136C141.779 30.103 142.588 30.2977 143.593 30.2977Z" fill="white"/>
</g>
<defs>
<clipPath id="clip0_646_1006">
<rect width="155" height="38" fill="white"/>
</clipPath>
</defs>
</svg>
