<svg width="192" height="20" viewBox="0 0 192 20" fill="none" xmlns="http://www.w3.org/2000/svg">
<g clip-path="url(#clip0_646_1316)">
<path d="M44.9829 10.4018C43.2749 9.69616 42.0726 8.94947 41.3761 8.16178C40.6962 7.35771 40.3562 6.3813 40.3562 5.23258C40.3562 3.75565 40.8703 2.57411 41.8985 1.68796C42.9266 0.801807 44.2864 0.358734 45.9779 0.358734C46.8899 0.358734 47.7274 0.4654 48.4902 0.678733C49.2696 0.875653 50.0159 1.19565 50.7289 1.63873V4.86335H50.6792C49.85 4.28899 49.0291 3.85412 48.2166 3.55873C47.404 3.26335 46.6246 3.11565 45.8784 3.11565C45.1156 3.11565 44.5103 3.27976 44.0625 3.60796C43.6314 3.93617 43.4158 4.38745 43.4158 4.96181C43.4158 5.53617 43.6314 6.02027 44.0625 6.41411C44.5103 6.79155 45.439 7.28386 46.8485 7.89101C48.5565 8.61308 49.7588 9.37616 50.4553 10.1802C51.1518 10.9679 51.5 11.9444 51.5 13.1095C51.5 14.6356 50.9528 15.8664 49.8583 16.8018C48.7638 17.7208 47.3294 18.1802 45.555 18.1802C44.5932 18.1802 43.6729 18.0408 42.7939 17.7618C41.915 17.4829 41.1025 17.0725 40.3562 16.531L39.7344 12.7895L39.7841 12.7402C40.7294 13.5608 41.7243 14.2172 42.7691 14.7095C43.8138 15.1854 44.7756 15.4233 45.6545 15.4233C46.5168 15.4233 47.1967 15.2429 47.6942 14.8818C48.1917 14.5044 48.4404 13.9875 48.4404 13.331C48.4404 12.7731 48.2 12.289 47.7191 11.8787C47.2548 11.4521 46.3427 10.9598 44.9829 10.4018Z" fill="white"/>
<path d="M64.1504 18.2295C61.5469 18.2295 59.3745 17.3762 57.6333 15.6695C55.8921 13.9464 55.0215 11.8213 55.0215 9.29408C55.0215 6.76693 55.9004 4.6418 57.6582 2.91872C59.4326 1.17924 61.6132 0.309494 64.2002 0.309494C66.8038 0.309494 68.9761 1.17103 70.7173 2.89411C72.4751 4.60078 73.354 6.7177 73.354 9.24485C73.354 11.7721 72.4668 13.9054 70.6924 15.6448C68.9346 17.3679 66.754 18.2295 64.1504 18.2295ZM64.1007 3.16488C62.459 3.16488 61.066 3.75564 59.9218 4.93718C58.7942 6.10231 58.2303 7.53821 58.2303 9.24485C58.2303 10.9679 58.8024 12.4202 59.9466 13.6018C61.0909 14.7833 62.4921 15.3741 64.1504 15.3741C65.8088 15.3741 67.2183 14.7833 68.3791 13.6018C69.5399 12.4202 70.1203 10.9844 70.1203 9.29408C70.1203 7.58745 69.5316 6.14334 68.3542 4.9618C67.1934 3.76385 65.7756 3.16488 64.1007 3.16488Z" fill="white"/>
<path d="M90.1642 0.654114H93.5223L85.0401 18.2295H83.5476L75.3145 0.654114H78.7966L84.4182 13.2325L90.1642 0.654114Z" fill="white"/>
<path d="M107.757 17.8848H97.3594V0.654114H107.682L108.429 3.38642H100.494V7.84177H107.11V10.4264H100.494V15.1525H108.503L107.757 17.8848Z" fill="white"/>
<path d="M127.228 17.8848H123.398L117.751 11.2879H116.234V17.8848H113.1V0.654114H118.622C120.512 0.654114 122.013 1.1218 123.124 2.0572C124.235 2.97616 124.791 4.24796 124.791 5.87257C124.791 7.00488 124.451 8.00593 123.771 8.87562C123.108 9.74539 122.187 10.3772 121.01 10.771L127.228 17.8848ZM121.632 5.97103C121.632 5.16693 121.342 4.51873 120.761 4.02642C120.18 3.53411 119.418 3.28796 118.473 3.28796H116.184V8.77716H118.373C119.335 8.77716 120.114 8.52285 120.711 8.01408C121.325 7.48899 121.632 6.80796 121.632 5.97103Z" fill="white"/>
<path d="M140.67 17.8848H130.272V0.654114H140.595L141.342 3.38642H133.407V7.84177H140.023V10.4264H133.407V15.1525H141.416L140.67 17.8848Z" fill="white"/>
<path d="M149.271 17.8848H146.137V0.654114H149.271V17.8848Z" fill="white"/>
<path d="M171.319 8.7033V9.3433C171.319 12.0675 170.54 14.2336 168.981 15.8418C167.422 17.4336 165.332 18.2295 162.713 18.2295C160.142 18.2295 158.028 17.4008 156.37 15.7433C154.728 14.0859 153.907 11.9608 153.907 9.36792C153.907 6.77513 154.769 4.62539 156.494 2.91872C158.235 1.19564 160.416 0.334106 163.036 0.334106C164.396 0.334106 165.639 0.54744 166.767 0.974104C167.912 1.40077 168.989 2.05718 170.001 2.94333L169.23 6.06949H169.18C168.135 5.08487 167.116 4.37103 166.121 3.92795C165.142 3.46847 164.106 3.23872 163.011 3.23872C161.336 3.23872 159.935 3.82949 158.808 5.01103C157.68 6.19257 157.116 7.65308 157.116 9.39254C157.116 11.1813 157.646 12.6336 158.708 13.7495C159.769 14.8654 161.121 15.4233 162.763 15.4233C164.172 15.4233 165.341 15.0623 166.27 14.3402C167.198 13.6018 167.795 12.5679 168.061 11.2387H162.663V8.7033H171.319Z" fill="white"/>
<path d="M178.706 17.8848H175.671V0.654114H178.631L188.581 11.8295L188.556 0.654114H191.591V17.9833H190.048L178.681 5.20796L178.706 17.8848Z" fill="white"/>
<path d="M28.7588 4.88189C28.7588 4.88189 26.8205 3.59979 24.0368 3.59979C17.0547 3.59979 12.9449 13.1496 6.65512 13.1496C3.17395 13.1496 0.00488281 10.2756 0.00488281 6.69292C0.00488281 3.11024 2.81355 -0.00121731 7.15147 0.0114308C8.70734 -0.0142885 12.9885 0.0114308 12.9885 0.0114308L11.0897 3.60458C11.0897 3.60458 8.70695 3.5706 7.15147 3.60458C5.26956 3.60995 3.74159 4.80315 3.74159 6.69292C3.74159 8.38585 5.38542 9.524 6.65512 9.52754C11.0897 9.52754 15.0569 0.0114308 23.5818 0.0114308C26.1876 0.0114308 28.7588 1.14173 28.7588 1.14173V4.88189Z" fill="white"/>
<path d="M2.33398 15.1181C2.33398 15.1181 4.27236 16.4002 7.05608 16.4002C14.0382 16.4002 18.1479 6.85039 24.4377 6.85039C27.9189 6.85039 31.0879 9.72438 31.0879 13.3071C31.0879 16.8898 28.2793 20.0012 23.9413 19.9885C22.3855 20.0143 18.1043 19.9885 18.1043 19.9885L20.0032 16.3955C20.0032 16.3955 22.3859 16.4294 23.9413 16.3955C25.8232 16.3901 27.3512 15.1968 27.3512 13.3071C27.3512 11.6141 25.7074 10.476 24.4377 10.4725C20.0032 10.4725 16.0358 19.9885 7.51099 19.9885C4.9053 19.9885 2.33398 18.8582 2.33398 18.8582V15.1181Z" fill="white"/>
</g>
<defs>
<clipPath id="clip0_646_1316">
<rect width="192" height="20" fill="white"/>
</clipPath>
</defs>
</svg>
