<svg width="136" height="26" viewBox="0 0 136 26" fill="none" xmlns="http://www.w3.org/2000/svg">
<g clip-path="url(#clip0_646_1337)">
<mask id="mask0_646_1337" style="mask-type:luminance" maskUnits="userSpaceOnUse" x="0" y="0" width="136" height="26">
<path d="M136 0H0V26H136V0Z" fill="white"/>
</mask>
<g mask="url(#mask0_646_1337)">
<path d="M90.962 14.8515L97.2316 25.9473H93.418L87.5033 15.3638H87.4059H81.6204V25.9473H78.3564V0H87.4059C92.8357 0 96.2289 3.00399 96.2289 7.68146C96.2289 11.2324 94.2571 13.8268 90.9613 14.8515H90.962ZM87.4715 3.07311H81.6216V12.2915H87.4715C90.7999 12.2915 92.8365 10.6526 92.8365 7.68233C92.8365 4.71203 90.7999 3.07311 87.4715 3.07311Z" fill="white"/>
<path d="M62.6134 14.1007V22.8751H75.6372V25.9473H59.3486V0H75.3462V3.07311H62.6126V11.0276H75.1197V14.1007H62.6126H62.6134Z" fill="white"/>
<path d="M53.5752 0H57.3241L47.9844 14.8169V25.9464H44.7204V14.8169L35.3799 0H39.0963L46.3357 11.5054L53.5752 0Z" fill="white"/>
<path d="M41.0104 25.9473H37.5199L34.8701 18.0948H22.8151L20.1653 25.9473H16.6748L25.4976 0H32.1876L41.0104 25.9473ZM28.859 0.136506L23.8497 15.0217H33.8363L28.859 0.136506Z" fill="white"/>
<path d="M3.26399 0V22.8742H14.5109V25.9465H0V0H3.26399Z" fill="white"/>
<path d="M106.506 26.0001V0.0328925H113.485L127.34 25.638H127.41L124.65 18.5303V0.0328925H129.637V26.0001H122.586L108.647 0.339598H108.577C108.577 0.339598 110.989 9.36453 111.491 11.0881V26.0001H106.506Z" fill="white"/>
</g>
</g>
<defs>
<clipPath id="clip0_646_1337">
<rect width="136" height="26" fill="white"/>
</clipPath>
</defs>
</svg>
