<svg width="235" height="40" viewBox="0 0 235 40" fill="none" xmlns="http://www.w3.org/2000/svg">
<g clip-path="url(#clip0_65_832)">
<path d="M55.0349 13.5447C56.1743 13.5343 57.2951 13.8359 58.2767 14.4171C59.2527 14.9836 60.0632 15.7978 60.6274 16.7779C61.2062 17.7636 61.5066 18.8891 61.4961 20.0335C61.4973 20.7283 61.3884 21.419 61.1737 22.0795C60.9682 22.7264 60.6564 23.3343 60.2512 23.8782C59.8543 24.4072 59.3856 24.8779 58.8588 25.2766C58.318 25.6856 57.7126 26.0003 57.0677 26.2074C56.4085 26.4234 55.7193 26.5327 55.0259 26.5311H52.2946V24.2828H55.0259C55.4823 24.2851 55.9361 24.2122 56.3692 24.067C56.7901 23.9335 57.1841 23.7264 57.5333 23.4554C57.8691 23.1956 58.1702 22.8934 58.4289 22.556C58.6953 22.2048 58.9012 21.8111 59.0379 21.3915C59.1802 20.9562 59.2514 20.5006 59.2483 20.0424C59.2495 19.4847 59.1409 18.9322 58.929 18.4166C58.717 17.9011 58.4056 17.4327 58.0129 17.0383C57.6202 16.6438 57.1537 16.3312 56.6403 16.1183C56.127 15.9054 55.5769 15.7964 55.0214 15.7976H52.29V13.5492L55.0349 13.5447Z" fill="white"/>
<path d="M74.4946 15.7888H65.3916V13.5405H74.4946V15.7888ZM72.9632 21.1848H65.3916V18.8916H72.9632V21.1848ZM74.4946 26.5359H65.3916V24.2876H74.4946V26.5359Z" fill="white"/>
<path d="M80.6249 24.2875H87.4891V26.5357H78.3906V13.5449H80.6294L80.6249 24.2875Z" fill="white"/>
<path d="M96.7038 13.5449C97.2007 13.5449 97.6926 13.6433 98.1517 13.8343C98.6107 14.0252 99.0279 14.3051 99.3792 14.6579C99.7305 15.0107 100.009 15.4296 100.199 15.8907C100.39 16.3516 100.487 16.8457 100.487 17.3447C100.487 17.8436 100.39 18.3377 100.199 18.7988C100.009 19.2597 99.7305 19.6787 99.3792 20.0315C99.0279 20.3843 98.6107 20.6641 98.1517 20.8551C97.6926 21.0461 97.2007 21.1444 96.7038 21.1444H93.6188V26.5404H91.3799V18.8916H96.6994C96.9032 18.8964 97.1058 18.8589 97.2946 18.7816C97.4832 18.7043 97.6541 18.5885 97.7963 18.4419C98.0856 18.1488 98.248 17.7528 98.248 17.3401C98.248 16.9275 98.0856 16.5316 97.7963 16.2385C97.6541 16.0919 97.4832 15.9761 97.2946 15.8988C97.1058 15.8215 96.9032 15.784 96.6994 15.7888H91.3844V13.5405L96.7038 13.5449Z" fill="white"/>
<path d="M112.026 13.5449H114.265V26.5357H112.026V21.1623H106.617V26.5357H104.378V13.5449H106.617V18.8915H112.026V13.5449Z" fill="white"/>
<path d="M120.386 26.5357H118.147V13.5449H120.386V26.5357Z" fill="white"/>
<path d="M141.266 13.5449H143.648L138.941 26.5357H136.559L131.853 13.5449H134.217L137.727 23.2397L141.266 13.5449Z" fill="white"/>
<path d="M156.628 15.7888H147.524V13.5405H156.628V15.7888ZM155.092 21.1848H147.524V18.8916H155.092V21.1848ZM156.628 26.5359H147.524V24.2876H156.628V26.5359Z" fill="white"/>
<path d="M167.799 13.5449H170.038V26.5357H167.799L162.753 17.9921V26.5357H160.514V13.5449H162.753L167.795 22.0885L167.799 13.5449Z" fill="white"/>
<path d="M173.907 13.5449H183.024V15.7932H179.589V26.5357H177.351V15.7888H173.916L173.907 13.5449Z" fill="white"/>
<path d="M193.769 13.5449H196.008V21.9403C196.027 22.5525 195.923 23.1624 195.703 23.7339C195.483 24.3052 195.151 24.8263 194.727 25.2661C194.302 25.7061 193.794 26.0559 193.232 26.2948C192.671 26.5336 192.067 26.6567 191.457 26.6567C190.846 26.6567 190.242 26.5336 189.681 26.2948C189.119 26.0559 188.611 25.7061 188.187 25.2661C187.762 24.8263 187.43 24.3052 187.21 23.7339C186.989 23.1624 186.886 22.5525 186.904 21.9403V13.5449H189.144V21.9403C189.143 22.4019 189.278 22.8535 189.532 23.2377C189.787 23.6219 190.151 23.9215 190.574 24.0983C190.999 24.2751 191.466 24.3212 191.918 24.2308C192.368 24.1404 192.782 23.9176 193.106 23.5905C193.325 23.3759 193.496 23.1188 193.612 22.8351C193.727 22.5512 193.785 22.2467 193.778 21.9403L193.769 13.5449Z" fill="white"/>
<path d="M208.994 17.3449C209 18.0531 208.804 18.7481 208.425 19.3459C208.056 19.9392 207.533 20.4197 206.912 20.7353L208.994 26.5361H206.621L204.681 21.176H199.899V18.8917H205.215C205.625 18.8917 206.02 18.7279 206.31 18.436C206.601 18.1443 206.764 17.7485 206.764 17.3359C206.764 16.9232 206.601 16.5275 206.31 16.2357C206.02 15.944 205.625 15.78 205.215 15.78H199.899V13.5317H205.215C205.713 13.5311 206.205 13.6295 206.666 13.8211C207.126 14.0128 207.544 14.2939 207.894 14.6483C208.246 15.0028 208.524 15.4235 208.712 15.8863C208.901 16.3491 208.996 16.8448 208.994 17.3449Z" fill="white"/>
<path d="M221.978 15.7888H212.893V13.5405H221.978V15.7888ZM220.447 21.1848H212.893V18.8916H220.464L220.447 21.1848ZM221.978 26.5359H212.893V24.2876H221.978V26.5359Z" fill="white"/>
<path d="M231.207 18.8916C231.707 18.8821 232.205 18.9772 232.667 19.1708C233.131 19.3643 233.548 19.652 233.894 20.0157C234.422 20.5488 234.784 21.2276 234.928 21.9661C235.074 22.7047 234.997 23.47 234.711 24.1652C234.422 24.8605 233.937 25.4547 233.314 25.8727C232.69 26.2905 231.957 26.5136 231.207 26.5133H225.892V24.2651H231.207C231.411 24.2687 231.614 24.2307 231.804 24.1535C231.993 24.0761 232.164 23.9612 232.309 23.8153C232.598 23.5216 232.76 23.1248 232.76 22.7115C232.76 22.298 232.598 21.9013 232.309 21.6075C232.164 21.4617 231.993 21.3468 231.804 21.2695C231.614 21.1923 231.411 21.1543 231.207 21.1579H229.676C228.67 21.1579 227.706 20.7565 226.994 20.0423C226.282 19.328 225.883 18.3593 225.883 17.3492C225.883 16.3391 226.282 15.3703 226.994 14.656C227.706 13.9417 228.67 13.5405 229.676 13.5405H234.234V15.7888H229.676C229.266 15.7959 228.874 15.9632 228.585 16.2555C228.295 16.5476 228.131 16.9416 228.127 17.3537C228.121 17.5571 228.158 17.7592 228.235 17.9473C228.312 18.1355 228.428 18.3055 228.574 18.4464C228.716 18.5917 228.885 18.7065 229.072 18.7839C229.259 18.8612 229.46 18.8993 229.663 18.896L231.207 18.8916Z" fill="white"/>
<path d="M25.4112 4.3984C24.9479 4.61265 24.4991 4.8575 24.068 5.13136C23.8621 5.25726 23.6606 5.38766 23.468 5.51806C23.168 4.929 21.8695 2.67168 19.671 2.67168C19.0397 2.71214 16.1382 3.12134 15.2829 6.97049V7.00197C15.18 7.40217 15.1083 7.82936 15.0322 8.27902C14.8218 9.51561 14.5844 10.9186 13.6575 12.2451C12.5887 13.6992 11.0504 14.7354 9.3053 15.1769C9.13067 14.9161 8.95604 14.6642 8.7859 14.426C8.53068 14.0662 8.29335 13.729 8.08739 13.3873V13.3557C8.04708 13.2928 8.01126 13.2299 7.97544 13.1669C8.13216 13.1669 10.5814 12.7937 11.8351 10.9635C12.4262 10.0417 12.5874 8.99849 12.7755 7.9013C12.8516 7.45164 12.9366 6.94801 13.0531 6.46686C14.0023 2.20852 17.1367 0.549247 19.5321 0.42334H19.6442C22.9979 0.42334 24.8382 3.35517 25.4112 4.3984ZM6.2247 16.2201C6.86499 17.1194 7.47395 17.9918 7.66649 19.098C8.06948 21.2834 6.59186 23.2709 6.49336 23.4013L6.7038 23.4508H6.73962C7.1247 23.5497 7.52768 23.6172 7.95306 23.6892C8.24858 23.7385 8.54857 23.7925 8.84858 23.8554C9.77311 22.3068 10.1354 20.4844 9.87396 18.6978C9.59634 17.1014 8.77694 15.9413 8.05157 14.9161C7.78739 14.5429 7.54112 14.1921 7.33066 13.8369V13.81C5.21276 10.4689 6.98589 8.13513 7.40679 7.65398C8.96052 6.08465 11.4769 6.75465 12.1038 6.9615C12.1486 6.73217 12.1978 6.51184 12.2561 6.26002C12.3713 5.76009 12.521 5.26878 12.7038 4.78961C11.5755 4.43886 8.17246 3.66094 5.79933 6.09814L5.76351 6.1341C4.16051 7.93277 3.11276 11.3233 5.44112 15.0061C5.66499 15.4332 5.95156 15.8334 6.2247 16.2201ZM11.7769 25.9149C10.4337 24.9841 9.05903 24.7458 7.82768 24.5345C7.37992 24.4581 6.93216 24.3861 6.55157 24.2826H6.52469C2.67395 23.4238 2.28439 20.5145 2.2441 19.876C2.2441 17.659 4.4829 16.3505 5.07842 16.0493C4.9441 15.856 4.81873 15.6536 4.69335 15.4468C4.4164 15.0162 4.17241 14.5653 3.9635 14.0977C2.92022 14.6553 -0.0350098 16.5214 0.000811085 19.9434V19.9929C0.126184 22.3985 1.79186 25.5462 6.01873 26.4996C6.49784 26.6209 6.97694 26.7018 7.44709 26.7828C8.53963 26.9672 9.57843 27.147 10.4919 27.7901C12.3143 29.0492 12.668 31.5044 12.6904 31.6662L12.8784 31.5538H12.9098C13.2501 31.3469 13.586 31.1041 13.9396 30.8568C14.1814 30.686 14.4322 30.5061 14.6919 30.3306C14.2611 28.5632 13.2303 27.0017 11.7769 25.9149ZM18.2023 29.6832C16.6128 29.962 15.4576 30.7849 14.4366 31.5133C14.065 31.7786 13.7158 32.026 13.362 32.2418H13.3352C10.0083 34.3686 7.6844 32.588 7.20529 32.1653C5.63813 30.605 6.30977 28.0778 6.51574 27.4484C6.28738 27.4033 6.06798 27.3538 5.81724 27.2954C5.31798 27.1796 4.82726 27.0294 4.34858 26.8457C3.99932 27.9789 3.22917 31.3964 5.65604 33.7841L5.68738 33.8156C6.92694 34.9224 8.52877 35.5322 10.1874 35.5288C11.7367 35.506 13.247 35.0378 14.5396 34.1798C14.9605 33.9236 15.3591 33.6402 15.7486 33.3614C16.6441 32.7184 17.5083 32.1069 18.6143 31.9136C20.7904 31.5088 22.7695 32.9972 22.8949 33.0917C22.8949 33.0242 22.9351 32.9522 22.9486 32.8802V32.8444C23.0472 32.4576 23.1142 32.0484 23.1859 31.6122C23.2352 31.3245 23.2889 31.0232 23.3471 30.7129C21.803 29.7809 19.9843 29.4169 18.2023 29.6832ZM30.9725 26.6614V26.63C30.771 26.2882 30.5247 25.9509 30.2784 25.5957L29.759 24.8448C28.0142 25.2841 26.4755 26.3189 25.4069 27.7721C24.4755 29.121 24.2381 30.5016 24.0322 31.7426C23.9561 32.1924 23.8799 32.615 23.7814 33.0197V33.0466C22.9262 36.9138 20.0292 37.305 19.3934 37.3454C17.1903 37.3454 15.8874 35.0972 15.5829 34.499C15.3904 34.634 15.1934 34.7644 14.9829 34.8904C14.5534 35.1645 14.1045 35.4064 13.6396 35.6142C14.1546 36.635 16.0083 39.5758 19.353 39.5758H19.4651C21.8605 39.45 24.9949 37.7772 25.9442 33.5324C26.0606 33.0512 26.1456 32.57 26.2218 32.1024C26.4098 31.0006 26.5844 29.9574 27.2292 29.0401C28.483 27.21 30.9321 26.8548 31.0889 26.8322C31.0531 26.7693 31.0127 26.7064 30.9725 26.6434V26.6614ZM33.583 25.0112C33.3277 24.5885 33.0457 24.1882 32.7724 23.797C32.1277 22.8977 31.5232 22.0298 31.3307 20.9192C30.9278 18.7382 32.4053 16.7462 32.5039 16.6204L32.2889 16.5664H32.2576C31.8725 16.472 31.4695 16.4 31.0441 16.3281L30.1485 16.1662C29.2226 17.716 28.8632 19.5413 29.1322 21.3284C29.4098 22.9246 30.2291 24.0848 30.9546 25.1101C31.2143 25.4833 31.4651 25.834 31.6755 26.1893V26.2162C33.7934 29.5573 32.0203 31.8956 31.5993 32.3722C30.0411 33.946 27.5292 33.2716 26.9024 33.0646C26.8576 33.2985 26.8084 33.5144 26.7501 33.7661C26.6368 34.2681 26.4872 34.761 26.3024 35.241C27.1441 35.5004 28.0189 35.6352 28.8993 35.6413C29.6965 35.666 30.4902 35.5268 31.2317 35.2322C31.9732 34.9376 32.6468 34.4937 33.2112 33.928L33.2426 33.8965C34.8635 32.0754 35.9114 28.6804 33.583 24.9932V25.0112ZM38.9918 20.0648C38.8665 17.6546 37.2008 14.5069 32.974 13.5581C32.4948 13.4366 32.0113 13.3557 31.5457 13.2748C30.4486 13.086 29.4143 12.9106 28.5009 12.2631C26.6785 11.004 26.3203 8.54882 26.3024 8.38694L26.1142 8.50385H26.0829C25.7426 8.7107 25.4023 8.95352 25.0486 9.20533L24.3009 9.72245C24.7385 11.47 25.7633 13.0123 27.2023 14.0888C28.5232 15.0196 29.9202 15.2578 31.1516 15.4692C31.5993 15.5457 32.0471 15.6176 32.4233 15.7165H32.4546C36.3053 16.5754 36.6948 19.4848 36.7352 20.1233C36.7352 22.3401 34.4963 23.6441 33.9008 23.95C34.0307 24.1433 34.1605 24.3412 34.2859 24.5525C34.5614 24.9838 34.8053 25.4346 35.0158 25.9014C36.059 25.3484 39.0143 23.4777 38.9739 20.0558L38.9918 20.0648ZM31.7919 7.84285C33.3546 9.40318 32.6875 11.9258 32.4814 12.5554C32.7098 12.6003 32.9292 12.6498 33.1799 12.7082C33.6783 12.8219 34.1677 12.9722 34.6441 13.1579C34.9979 12.0203 35.768 8.60278 33.3411 6.21954L33.3054 6.18806C31.5143 4.57377 28.1382 3.52154 24.471 5.85981C24.0233 6.11612 23.6471 6.39941 23.262 6.67372C22.3665 7.32124 21.4979 7.92828 20.3963 8.12613C18.2247 8.52633 16.2412 7.04244 16.1113 6.94352C16.1113 7.01545 16.0755 7.0829 16.0621 7.15936V7.19082C15.9636 7.58204 15.8964 7.99124 15.8202 8.42292C15.7709 8.7152 15.7217 9.01648 15.659 9.32225C17.2019 10.2488 19.0164 10.611 20.7949 10.3475C22.3844 10.0687 23.5396 9.24581 24.5606 8.51734C24.9322 8.25654 25.2814 8.00472 25.6352 7.79338H25.662C28.9933 5.63498 31.3128 7.41566 31.7919 7.84285Z" fill="white"/>
</g>
<defs>
<clipPath id="clip0_65_832">
<rect width="235" height="40" fill="white"/>
</clipPath>
</defs>
</svg>
