<svg width="177" height="18" viewBox="0 0 177 18" fill="none" xmlns="http://www.w3.org/2000/svg">
<g clip-path="url(#clip0_646_1307)">
<path d="M34.2617 0.266778L25.4893 17.7332H29.2913L31.327 13.6726H41.1622L43.1748 17.7332H47.0277L38.2591 0.266778H34.2617ZM36.2468 3.79381L39.6385 10.6282H32.8315L36.2468 3.79381Z" fill="white"/>
<path d="M47.4688 13.9394C49.1648 16.3954 53.2831 18 57.4253 18C62.3448 18 66.1469 16.0776 66.1469 12.2602C66.1469 8.48998 62.6573 7.83478 57.7143 7.27377C53.3067 6.76372 52.1422 6.46948 52.1422 5.20619C52.1422 4.03706 53.5489 3.04054 56.6477 3.04054C59.6016 3.04054 62.0753 4.03706 63.4077 5.76329L65.7833 3.47602C64.2126 1.38492 60.7233 0 56.847 0C51.904 0 48.6842 2.26373 48.6842 5.57106C48.6842 9.02352 51.9547 9.82781 56.2179 10.3143C61.1101 10.8479 62.5401 10.9969 62.5401 12.6487C62.5401 14.061 60.481 14.9359 57.5738 14.9359C55.0064 14.9359 51.8569 14.1081 49.8682 11.4324L47.4688 13.9394Z" fill="white"/>
<path d="M83.9958 0.266778V7.22275H72.828V0.266778H69.2686V17.7332H72.828V10.3143H83.9958V17.7332H87.5831V0.266778H83.9958Z" fill="white"/>
<path d="M94.0225 17.7332V10.8008H105.698V7.71316H94.0225V3.35833H107.082V0.266778H90.5098V17.7332H94.0225Z" fill="white"/>
<path d="M110.325 17.7332H126.119V14.6456H113.885V0.266778H110.325V17.7332Z" fill="white"/>
<path d="M137.095 0C131.136 0 126.822 3.81733 126.822 9C126.822 14.1826 131.136 18 137.095 18C143.031 18 147.368 14.1826 147.368 9C147.368 3.81733 143.031 0 137.095 0ZM137.095 3.13861C140.995 3.13861 143.711 5.47296 143.711 9C143.711 12.527 140.999 14.8614 137.095 14.8614C133.191 14.8614 130.48 12.527 130.48 9C130.48 5.47296 133.196 3.13861 137.095 3.13861Z" fill="white"/>
<path d="M160.666 0.266778L156.305 13.7903L151.726 0.266778H147.994L154.074 17.7332H158.193L162.479 4.37838L166.719 17.7332H170.861L176.941 0.266778H173.283L168.704 13.7903L164.367 0.266778H160.666Z" fill="white"/>
<path d="M24.6174 8.19965V5.09636H21.4562V0.270718H17.8926V5.10027H6.72486V0.270718H3.16118V5.10027H0V8.20359H3.16118V9.80429H0V12.9076H3.16118V17.7332H6.72486V12.9037H17.8926V17.7332H21.4562V12.9037H24.6174V9.80035H21.4562V8.19965H24.6174ZM17.8926 9.80035H6.72486V8.19965H17.8926V9.80035Z" fill="white"/>
</g>
<defs>
<clipPath id="clip0_646_1307">
<rect width="177" height="18" fill="white"/>
</clipPath>
</defs>
</svg>
