<svg width="384" height="116" viewBox="0 0 384 116" fill="none" xmlns="http://www.w3.org/2000/svg">
<g clip-path="url(#clip0_1000_1223)">
<mask id="path-1-outside-1_1000_1223" maskUnits="userSpaceOnUse" x="2" y="0" width="380" height="115" fill="black">
<rect fill="white" x="2" width="380" height="115"/>
<path d="M3.155 35.11V25.21C13.385 24.22 18.005 23.065 21.8 21.085C27.74 17.785 30.38 13 31.7 4.25499H41.765V112H28.4V35.11H3.155ZM87.0279 2.76999C99.7329 2.76999 110.128 9.04 116.563 20.26C120.853 28.18 123.658 43.36 123.658 58.705C123.658 94.51 110.953 113.815 86.8629 113.815C74.1579 113.815 63.7629 107.71 57.4929 96.325C53.2029 88.405 50.3979 73.39 50.3979 58.21C50.3979 22.075 63.1029 2.76999 87.0279 2.76999ZM87.1929 14.815C72.1779 14.815 64.7529 29.17 64.7529 57.715C64.7529 74.05 67.0629 86.26 71.0229 92.53C74.9829 98.47 80.5929 101.77 86.8629 101.77C101.713 101.77 109.303 87.415 109.303 58.705C109.303 41.38 106.828 29.005 102.043 22.9C97.9179 17.62 92.8029 14.815 87.1929 14.815ZM165.338 2.76999C178.043 2.76999 188.438 9.04 194.873 20.26C199.163 28.18 201.968 43.36 201.968 58.705C201.968 94.51 189.263 113.815 165.173 113.815C152.468 113.815 142.073 107.71 135.803 96.325C131.513 88.405 128.708 73.39 128.708 58.21C128.708 22.075 141.413 2.76999 165.338 2.76999ZM165.503 14.815C150.488 14.815 143.063 29.17 143.063 57.715C143.063 74.05 145.373 86.26 149.333 92.53C153.293 98.47 158.903 101.77 165.173 101.77C180.023 101.77 187.613 87.415 187.613 58.705C187.613 41.38 185.138 29.005 180.353 22.9C176.228 17.62 171.113 14.815 165.503 14.815ZM243.649 2.76999C256.354 2.76999 266.749 9.04 273.184 20.26C277.474 28.18 280.279 43.36 280.279 58.705C280.279 94.51 267.574 113.815 243.484 113.815C230.779 113.815 220.384 107.71 214.114 96.325C209.824 88.405 207.019 73.39 207.019 58.21C207.019 22.075 219.724 2.76999 243.649 2.76999ZM243.814 14.815C228.799 14.815 221.374 29.17 221.374 57.715C221.374 74.05 223.684 86.26 227.644 92.53C231.604 98.47 237.214 101.77 243.484 101.77C258.334 101.77 265.924 87.415 265.924 58.705C265.924 41.38 263.449 29.005 258.664 22.9C254.539 17.62 249.424 14.815 243.814 14.815ZM283.349 112L322.784 55.9L285.989 1.94499H304.304L331.859 42.7L360.404 1.94499H378.059L340.934 54.91L380.039 112H361.394L331.364 68.275L300.839 112H283.349Z"/>
</mask>
<path d="M3.155 35.11H2.155V36.11H3.155V35.11ZM3.155 25.21L3.05868 24.2146L2.155 24.3021V25.21H3.155ZM21.8 21.085L22.2626 21.9716L22.2742 21.9655L22.2856 21.9592L21.8 21.085ZM31.7 4.25499V3.25499H30.8396L30.7112 4.10574L31.7 4.25499ZM41.765 4.25499H42.765V3.25499H41.765V4.25499ZM41.765 112V113H42.765V112H41.765ZM28.4 112H27.4V113H28.4V112ZM28.4 35.11H29.4V34.11H28.4V35.11ZM4.155 35.11V25.21H2.155V35.11H4.155ZM3.25132 26.2053C13.5059 25.213 18.288 24.0452 22.2626 21.9716L21.3374 20.1984C17.722 22.0847 13.2642 23.227 3.05868 24.2146L3.25132 26.2053ZM22.2856 21.9592C25.3937 20.2325 27.6788 18.09 29.3475 15.2137C31.0038 12.3587 32.0196 8.83743 32.6888 4.40424L30.7112 4.10574C30.0604 8.41756 29.0962 11.6613 27.6175 14.2101C26.1512 16.7375 24.1463 18.6375 21.3144 20.2108L22.2856 21.9592ZM31.7 5.25499H41.765V3.25499H31.7V5.25499ZM40.765 4.25499V112H42.765V4.25499H40.765ZM41.765 111H28.4V113H41.765V111ZM29.4 112V35.11H27.4V112H29.4ZM28.4 34.11H3.155V36.11H28.4V34.11ZM116.563 20.26L117.442 19.7837L117.436 19.773L117.43 19.7625L116.563 20.26ZM57.4929 96.325L56.6135 96.8013L56.6169 96.8074L57.4929 96.325ZM71.0229 92.53L70.1774 93.064L70.184 93.0744L70.1908 93.0847L71.0229 92.53ZM102.043 22.9L101.255 23.5156L101.256 23.5169L102.043 22.9ZM87.0279 3.76999C99.3567 3.76999 109.43 9.83247 115.695 20.7575L117.43 19.7625C110.826 8.24752 100.109 1.76999 87.0279 1.76999V3.76999ZM115.684 20.7363C119.857 28.441 122.658 43.4244 122.658 58.705H124.658C124.658 43.2956 121.849 27.919 117.442 19.7837L115.684 20.7363ZM122.658 58.705C122.658 76.5163 119.493 90.0655 113.461 99.133C107.471 108.138 98.5952 112.815 86.8629 112.815V114.815C99.2205 114.815 108.742 109.839 115.127 100.241C121.47 90.7045 124.658 76.6987 124.658 58.705H122.658ZM86.8629 112.815C74.5252 112.815 64.4643 106.911 58.3688 95.8426L56.6169 96.8074C63.0614 108.509 73.7905 114.815 86.8629 114.815V112.815ZM58.3721 95.8487C54.198 88.1425 51.3979 73.3227 51.3979 58.21H49.3979C49.3979 73.4573 52.2077 88.6675 56.6136 96.8013L58.3721 95.8487ZM51.3979 58.21C51.3979 40.2324 54.563 26.5995 60.5756 17.4902C66.5465 8.44401 75.3811 3.76999 87.0279 3.76999V1.76999C74.7496 1.76999 65.2692 6.74847 58.9064 16.3885C52.5852 25.9655 49.3979 40.0526 49.3979 58.21H51.3979ZM87.1929 13.815C83.2731 13.815 79.802 14.7542 76.8142 16.661C73.8305 18.5652 71.3858 21.3977 69.4556 25.0981C65.6106 32.4694 63.7529 43.3885 63.7529 57.715H65.7529C65.7529 43.4965 67.6076 32.9656 71.2289 26.0231C73.0318 22.5667 75.2586 20.0264 77.8901 18.3469C80.5175 16.6702 83.6051 15.815 87.1929 15.815V13.815ZM63.7529 57.715C63.7529 65.926 64.3332 73.1246 65.4191 79.0764C66.5023 85.0132 68.1001 89.775 70.1774 93.064L71.8683 91.996C69.9856 89.015 68.4484 84.5368 67.3866 78.7174C66.3276 72.9129 65.7529 65.839 65.7529 57.715H63.7529ZM70.1908 93.0847C74.3036 99.2539 80.2036 102.77 86.8629 102.77V100.77C80.9821 100.77 75.6621 97.6861 71.8549 91.9753L70.1908 93.0847ZM86.8629 102.77C90.7435 102.77 94.1942 101.83 97.1735 99.9204C100.148 98.0139 102.598 95.177 104.538 91.4672C108.403 84.076 110.303 73.1162 110.303 58.705H108.303C108.303 73.0038 106.407 83.5765 102.765 90.5403C100.952 94.008 98.7192 96.5543 96.0944 98.2365C93.474 99.9159 90.4072 100.77 86.8629 100.77V102.77ZM110.303 58.705C110.303 50.0003 109.682 42.5048 108.447 36.3969C107.217 30.3052 105.36 25.5112 102.83 22.2831L101.256 23.5169C103.511 26.3938 105.284 30.8398 106.487 36.793C107.687 42.7302 108.303 50.0846 108.303 58.705H110.303ZM102.831 22.2844C98.5599 16.8175 93.1751 13.815 87.1929 13.815V15.815C92.4306 15.815 97.2758 18.4225 101.255 23.5156L102.831 22.2844ZM194.873 20.26L195.753 19.7837L195.747 19.773L195.741 19.7625L194.873 20.26ZM135.803 96.325L134.924 96.8013L134.927 96.8074L135.803 96.325ZM149.333 92.53L148.488 93.064L148.495 93.0744L148.501 93.0847L149.333 92.53ZM180.353 22.9L179.565 23.5156L179.566 23.5169L180.353 22.9ZM165.338 3.76999C177.667 3.76999 187.74 9.83247 194.006 20.7575L195.741 19.7625C189.137 8.24752 178.42 1.76999 165.338 1.76999V3.76999ZM193.994 20.7363C198.167 28.441 200.968 43.4244 200.968 58.705H202.968C202.968 43.2956 200.159 27.919 195.753 19.7837L193.994 20.7363ZM200.968 58.705C200.968 76.5163 197.804 90.0655 191.772 99.133C185.782 108.138 176.906 112.815 165.173 112.815V114.815C177.531 114.815 187.052 109.839 193.437 100.241C199.781 90.7045 202.968 76.6987 202.968 58.705H200.968ZM165.173 112.815C152.836 112.815 142.775 106.911 136.679 95.8426L134.927 96.8074C141.372 108.509 152.101 114.815 165.173 114.815V112.815ZM136.683 95.8487C132.509 88.1425 129.708 73.3227 129.708 58.21H127.708C127.708 73.4573 130.518 88.6675 134.924 96.8013L136.683 95.8487ZM129.708 58.21C129.708 40.2324 132.874 26.5995 138.886 17.4902C144.857 8.44401 153.692 3.76999 165.338 3.76999V1.76999C153.06 1.76999 143.58 6.74847 137.217 16.3885C130.896 25.9655 127.708 40.0526 127.708 58.21H129.708ZM165.503 13.815C161.584 13.815 158.113 14.7542 155.125 16.661C152.141 18.5652 149.696 21.3977 147.766 25.0981C143.921 32.4694 142.063 43.3885 142.063 57.715H144.063C144.063 43.4965 145.918 32.9656 149.539 26.0231C151.342 22.5667 153.569 20.0264 156.201 18.3469C158.828 16.6702 161.916 15.815 165.503 15.815V13.815ZM142.063 57.715C142.063 65.926 142.644 73.1246 143.73 79.0764C144.813 85.0132 146.411 89.775 148.488 93.064L150.179 91.996C148.296 89.015 146.759 84.5368 145.697 78.7174C144.638 72.9129 144.063 65.839 144.063 57.715H142.063ZM148.501 93.0847C152.614 99.2539 158.514 102.77 165.173 102.77V100.77C159.293 100.77 153.973 97.6861 150.165 91.9753L148.501 93.0847ZM165.173 102.77C169.054 102.77 172.505 101.83 175.484 99.9204C178.459 98.0139 180.908 95.177 182.848 91.4672C186.714 84.076 188.613 73.1162 188.613 58.705H186.613C186.613 73.0038 184.718 83.5765 181.076 90.5403C179.262 94.008 177.03 96.5543 174.405 98.2365C171.785 99.9159 168.718 100.77 165.173 100.77V102.77ZM188.613 58.705C188.613 50.0003 187.992 42.5048 186.758 36.3969C185.527 30.3052 183.671 25.5112 181.14 22.2831L179.566 23.5169C181.821 26.3938 183.595 30.8398 184.798 36.793C185.997 42.7302 186.613 50.0846 186.613 58.705H188.613ZM181.141 22.2844C176.87 16.8175 171.486 13.815 165.503 13.815V15.815C170.741 15.815 175.586 18.4225 179.565 23.5156L181.141 22.2844ZM273.184 20.26L274.063 19.7837L274.057 19.773L274.051 19.7625L273.184 20.26ZM214.114 96.325L213.235 96.8013L213.238 96.8074L214.114 96.325ZM227.644 92.53L226.798 93.064L226.805 93.0744L226.812 93.0847L227.644 92.53ZM258.664 22.9L257.876 23.5156L257.877 23.5169L258.664 22.9ZM243.649 3.76999C255.978 3.76999 266.051 9.83247 272.316 20.7575L274.051 19.7625C267.447 8.24752 256.73 1.76999 243.649 1.76999V3.76999ZM272.305 20.7363C276.478 28.441 279.279 43.4244 279.279 58.705H281.279C281.279 43.2956 278.47 27.919 274.063 19.7837L272.305 20.7363ZM279.279 58.705C279.279 76.5163 276.114 90.0655 270.083 99.133C264.092 108.138 255.216 112.815 243.484 112.815V114.815C255.842 114.815 265.363 109.839 271.748 100.241C278.091 90.7045 281.279 76.6987 281.279 58.705H279.279ZM243.484 112.815C231.146 112.815 221.085 106.911 214.99 95.8426L213.238 96.8074C219.682 108.509 230.412 114.815 243.484 114.815V112.815ZM214.993 95.8487C210.819 88.1425 208.019 73.3227 208.019 58.21H206.019C206.019 73.4573 208.829 88.6675 213.235 96.8013L214.993 95.8487ZM208.019 58.21C208.019 40.2324 211.184 26.5995 217.197 17.4902C223.168 8.44401 232.002 3.76999 243.649 3.76999V1.76999C231.371 1.76999 221.89 6.74847 215.527 16.3885C209.206 25.9655 206.019 40.0526 206.019 58.21H208.019ZM243.814 13.815C239.894 13.815 236.423 14.7542 233.435 16.661C230.452 18.5652 228.007 21.3977 226.077 25.0981C222.232 32.4694 220.374 43.3885 220.374 57.715H222.374C222.374 43.4965 224.229 32.9656 227.85 26.0231C229.653 22.5667 231.88 20.0264 234.511 18.3469C237.139 16.6702 240.226 15.815 243.814 15.815V13.815ZM220.374 57.715C220.374 65.926 220.954 73.1246 222.04 79.0764C223.123 85.0132 224.721 89.775 226.798 93.064L228.489 91.996C226.607 89.015 225.069 84.5368 224.008 78.7174C222.949 72.9129 222.374 65.839 222.374 57.715H220.374ZM226.812 93.0847C230.925 99.2539 236.825 102.77 243.484 102.77V100.77C237.603 100.77 232.283 97.6861 228.476 91.9753L226.812 93.0847ZM243.484 102.77C247.365 102.77 250.815 101.83 253.795 99.9204C256.769 98.0139 259.219 95.177 261.159 91.4672C265.024 84.076 266.924 73.1162 266.924 58.705H264.924C264.924 73.0038 263.029 83.5765 259.387 90.5403C257.573 94.008 255.34 96.5543 252.715 98.2365C250.095 99.9159 247.028 100.77 243.484 100.77V102.77ZM266.924 58.705C266.924 50.0003 266.303 42.5048 265.069 36.3969C263.838 30.3052 261.981 25.5112 259.451 22.2831L257.877 23.5169C260.132 26.3938 261.905 30.8398 263.108 36.793C264.308 42.7302 264.924 50.0846 264.924 58.705H266.924ZM259.452 22.2844C255.181 16.8175 249.796 13.815 243.814 13.815V15.815C249.052 15.815 253.897 18.4225 257.876 23.5156L259.452 22.2844ZM283.349 112L282.531 111.425L281.424 113H283.349V112ZM322.784 55.9L323.603 56.4751L324.001 55.9086L323.611 55.3366L322.784 55.9ZM285.989 1.94499V0.944991H284.097L285.163 2.50841L285.989 1.94499ZM304.304 1.94499L305.133 1.38488L304.835 0.944991H304.304V1.94499ZM331.859 42.7L331.031 43.2601L331.845 44.4639L332.679 43.2737L331.859 42.7ZM360.404 1.94499V0.944991H359.884L359.585 1.37131L360.404 1.94499ZM378.059 1.94499L378.878 2.51897L379.982 0.944991H378.059V1.94499ZM340.934 54.91L340.116 54.336L339.718 54.9034L340.109 55.4751L340.934 54.91ZM380.039 112V113H381.937L380.865 111.435L380.039 112ZM361.394 112L360.57 112.566L360.868 113H361.394V112ZM331.364 68.275L332.189 67.7089L331.371 66.5184L330.545 67.7026L331.364 68.275ZM300.839 112V113H301.361L301.659 112.572L300.839 112ZM284.168 112.575L323.603 56.4751L321.966 55.3249L282.531 111.425L284.168 112.575ZM323.611 55.3366L286.816 1.38158L285.163 2.50841L321.958 56.4634L323.611 55.3366ZM285.989 2.94499H304.304V0.944991H285.989V2.94499ZM303.476 2.5051L331.031 43.2601L332.688 42.1399L305.133 1.38488L303.476 2.5051ZM332.679 43.2737L361.224 2.51868L359.585 1.37131L331.04 42.1263L332.679 43.2737ZM360.404 2.94499H378.059V0.944991H360.404V2.94499ZM377.241 1.37102L340.116 54.336L341.753 55.484L378.878 2.51897L377.241 1.37102ZM340.109 55.4751L379.214 112.565L380.865 111.435L341.76 54.3449L340.109 55.4751ZM380.039 111H361.394V113H380.039V111ZM362.219 111.434L332.189 67.7089L330.54 68.8411L360.57 112.566L362.219 111.434ZM330.545 67.7026L300.02 111.428L301.659 112.572L332.184 68.8474L330.545 67.7026ZM300.839 111H283.349V113H300.839V111Z" fill="#FDFF9D" mask="url(#path-1-outside-1_1000_1223)"/>
</g>
<defs>
<clipPath id="clip0_1000_1223">
<rect width="384" height="116" fill="white"/>
</clipPath>
</defs>
</svg>
