<svg width="208" height="64" viewBox="0 0 208 64" fill="none" xmlns="http://www.w3.org/2000/svg">
<path fill-rule="evenodd" clip-rule="evenodd" d="M20.87 26.2449L20.3952 26.1106C18.2245 25.5283 16.9131 23.3114 17.501 21.1617C17.7723 20.1316 18.4506 19.2358 19.4003 18.6984L29.4397 12.9209C30.6607 12.2267 32.153 12.2267 33.374 12.9209L43.4134 18.6536C44.363 19.191 45.0414 20.0644 45.3353 21.1169C45.9232 23.2666 44.6344 25.5059 42.4637 26.0882L41.9888 26.2225C39.8182 26.8048 37.5571 25.5283 36.9692 23.3786L35.4542 17.8474C34.9568 16.1008 33.3288 14.8244 31.4068 14.8467C29.4849 14.8467 27.8795 16.1232 27.382 17.8698L25.9123 23.401C25.3018 25.5283 23.0633 26.8272 20.87 26.2449ZM42.9385 27.9244L43.2777 27.5885C44.8605 25.9986 47.4607 25.9986 49.0661 27.5661C49.8349 28.3275 50.2645 29.3576 50.2645 30.4325L50.2871 41.9202C50.2871 43.3086 49.541 44.6074 48.32 45.3016L38.3032 51.0567C37.3762 51.5941 36.2456 51.7509 35.2055 51.4598C33.0348 50.8775 31.7234 48.6606 32.3113 46.5108L32.4469 46.0406C33.0348 43.8908 35.2733 42.592 37.444 43.1743L43.029 44.6298C44.7926 45.0553 46.7372 44.3163 47.6869 42.6592C48.6365 41.0245 48.32 38.9867 47.0537 37.6879L42.9611 33.6571C41.3331 32.0672 41.3331 29.5143 42.9385 27.9244ZM30.5702 46.4661L30.4346 45.9958C29.8467 43.846 27.6082 42.5696 25.4149 43.1519L19.8299 44.6522C18.0662 45.1001 16.1443 44.3611 15.172 42.704C14.1997 41.0693 14.5163 39.0315 15.7825 37.7327L19.8525 33.6795C21.4353 32.0896 21.4353 29.5367 19.8299 27.9468L19.4908 27.6109C17.8854 26.0434 15.3077 26.0434 13.7023 27.6333C12.9335 28.3947 12.5039 29.4248 12.5039 30.4997L12.5265 41.9874C12.5265 43.3758 13.2727 44.6746 14.4937 45.3688L24.5557 51.0791C25.5053 51.6165 26.6133 51.7509 27.6534 51.4822C29.8693 50.8551 31.1581 48.6382 30.5702 46.4661ZM31.4068 39.0763C34.5046 39.0763 37.0144 36.5906 37.0144 33.5227C37.0144 30.4549 34.5046 27.9692 31.4068 27.9692C28.3091 27.9692 25.7993 30.4549 25.7993 33.5227C25.7993 36.5906 28.3091 39.0763 31.4068 39.0763Z" fill="white"/>
<path fill-rule="evenodd" clip-rule="evenodd" d="M118.98 37.1505C119.839 35.5829 120.268 33.8139 120.268 31.888C120.268 29.9622 119.839 28.1931 118.98 26.648C118.12 25.0805 116.945 23.8488 115.407 22.9531C113.87 22.0798 112.128 21.6319 110.184 21.6319C108.239 21.6319 106.476 22.0798 104.961 22.9531C103.423 23.8265 102.247 25.0581 101.388 26.648C100.529 28.1931 100.099 29.9398 100.099 31.888C100.099 33.8362 100.529 35.5829 101.388 37.1505C102.247 38.6956 103.423 39.9272 104.961 40.8006C106.498 41.6739 108.239 42.1218 110.184 42.1218C112.128 42.1218 113.892 41.6739 115.407 40.8006C116.945 39.9272 118.143 38.6956 118.98 37.1505ZM105.232 35.2694C104.757 34.2617 104.531 33.1421 104.531 31.8656C104.531 30.5892 104.757 29.4696 105.232 28.4619C105.707 27.4542 106.363 26.6928 107.199 26.133C108.058 25.5507 109.031 25.2596 110.161 25.2596C111.269 25.2596 112.242 25.5507 113.101 26.133C113.96 26.6928 114.616 27.4766 115.068 28.4619C115.543 29.4696 115.769 30.5892 115.769 31.8656C115.769 33.1421 115.543 34.2617 115.068 35.2694C114.593 36.2771 113.937 37.0609 113.101 37.6207C112.242 38.1805 111.269 38.4493 110.161 38.4493C109.031 38.4493 108.058 38.1805 107.199 37.6207C106.363 37.0609 105.707 36.2771 105.232 35.2694ZM126.057 35.3814C126.193 35.3814 126.283 35.4934 126.306 35.6053C126.419 36.5011 126.826 37.24 127.504 37.7999C128.25 38.4045 129.268 38.6956 130.489 38.6956C131.506 38.6956 132.343 38.4941 132.999 38.0686C133.654 37.6207 133.993 37.0161 133.993 36.2547C133.993 35.7173 133.813 35.2918 133.451 34.9783C133.112 34.6424 132.592 34.3961 131.936 34.2393C131.303 34.0378 130.308 33.8139 128.951 33.5451C127.617 33.2988 126.487 32.9853 125.582 32.6046C124.678 32.2015 123.931 31.6193 123.344 30.8579C122.778 30.0742 122.507 29.0441 122.507 27.7453C122.507 26.5808 122.824 25.5283 123.457 24.6102C124.112 23.6921 125.017 22.9755 126.17 22.4605C127.323 21.923 128.635 21.6543 130.104 21.6543C131.597 21.6543 132.931 21.923 134.107 22.4829C135.305 23.0203 136.255 23.7593 136.933 24.7222C137.589 25.6179 137.928 26.6032 137.996 27.7229C137.996 27.8572 137.883 27.9692 137.747 27.9692H133.948C133.813 27.9692 133.722 27.8796 133.7 27.7453C133.564 26.9839 133.202 26.3569 132.637 25.8866C132.004 25.3492 131.144 25.0805 130.104 25.0805C129.132 25.0805 128.363 25.282 127.775 25.6851C127.188 26.0882 126.894 26.6704 126.894 27.4094C126.894 27.9468 127.074 28.3723 127.414 28.6858C127.753 28.9769 128.25 29.2232 128.906 29.4024C129.539 29.5815 130.534 29.7831 131.868 30.0294C133.225 30.2757 134.378 30.5892 135.305 30.9699C136.232 31.3282 136.978 31.9104 137.543 32.6718C138.131 33.4108 138.425 34.4185 138.425 35.6949C138.425 36.9265 138.086 38.0238 137.408 39.0091C136.729 39.972 135.78 40.7334 134.559 41.2932C133.36 41.853 132.004 42.1218 130.489 42.1218C128.861 42.1218 127.414 41.8307 126.125 41.2484C124.859 40.6438 123.886 39.8377 123.163 38.8076C122.484 37.8447 122.123 36.7698 122.077 35.5829C122.077 35.4486 122.19 35.3366 122.326 35.3366L126.057 35.3814ZM142.292 22.1022C141.726 22.1022 141.274 22.55 141.274 23.1099V40.6886C141.274 41.2484 141.726 41.6963 142.292 41.6963H155.112C155.248 41.6963 155.361 41.5843 155.361 41.45V38.3373C155.361 38.2029 155.248 38.091 155.112 38.091H145.774C145.638 38.091 145.525 37.979 145.525 37.8446V33.8139C145.525 33.6795 145.638 33.5675 145.774 33.5675H153.122C153.258 33.5675 153.371 33.4556 153.371 33.3212V30.3877C153.371 30.2533 153.258 30.1414 153.122 30.1414H145.774C145.638 30.1414 145.525 30.0294 145.525 29.895V25.9986C145.525 25.8642 145.638 25.7523 145.774 25.7523H154.796C154.931 25.7523 155.044 25.6403 155.044 25.5059V22.3485C155.044 22.2141 154.931 22.1022 154.796 22.1022H142.292ZM167.074 22.1022C168.498 22.1022 169.764 22.3709 170.85 22.9083C171.958 23.4234 172.817 24.1847 173.427 25.17C174.038 26.1554 174.332 27.2974 174.332 28.6186C174.332 29.8726 174.038 30.9699 173.427 31.9552C172.862 32.8286 172.116 33.5227 171.166 34.0154C171.031 34.0826 170.985 34.2393 171.053 34.3513L174.648 41.3156C174.739 41.4724 174.603 41.6739 174.422 41.6739H170.307C170.217 41.6739 170.126 41.6291 170.081 41.5395L166.915 35.247C166.87 35.1575 166.78 35.1127 166.689 35.1127H163.004C162.868 35.1127 162.755 35.2246 162.755 35.359V41.4276C162.755 41.5619 162.642 41.6739 162.506 41.6739H159.544C158.979 41.6739 158.527 41.226 158.527 40.6662V23.0875C158.527 22.5276 158.979 22.0798 159.544 22.0798H167.074V22.1022ZM162.755 31.3506C162.755 31.485 162.868 31.5969 163.004 31.5969H166.734C167.729 31.5969 168.521 31.3282 169.109 30.7908C169.719 30.2533 170.013 29.5143 170.013 28.6186C170.013 27.6781 169.719 26.9615 169.109 26.4017C168.521 25.8642 167.729 25.5955 166.734 25.5955H163.004C162.868 25.5955 162.755 25.7075 162.755 25.8418V31.3506ZM176.48 41.6515C176.299 41.6515 176.186 41.4724 176.254 41.3156L183.286 22.2589C183.331 22.1693 183.421 22.1022 183.512 22.1022H188.238C188.351 22.1022 188.441 22.1693 188.464 22.2589L195.451 41.3156C195.518 41.4724 195.383 41.6515 195.224 41.6515H191.222C191.109 41.6515 191.019 41.5843 190.974 41.4948L189.572 37.5535C189.526 37.464 189.436 37.3968 189.323 37.3968H182.178C182.065 37.3968 181.974 37.464 181.929 37.5535L180.527 41.4948C180.482 41.5843 180.392 41.6515 180.278 41.6515H176.48ZM183.263 33.6795C183.218 33.8362 183.331 34.0154 183.512 34.0154H188.034C188.215 34.0154 188.328 33.8362 188.283 33.6795L186.022 27.2526C185.954 27.0287 185.615 27.0287 185.547 27.2526L183.263 33.6795ZM91.1453 22.1022C92.5698 22.1022 93.8361 22.3709 94.9214 22.9083C96.0293 23.4234 96.8886 24.1847 97.4991 25.17C98.1096 26.1554 98.4035 27.2974 98.4035 28.6186C98.4035 29.8726 98.1096 30.9699 97.4991 31.9552C96.9338 32.8286 96.1876 33.5227 95.2379 34.0154C95.1023 34.0826 95.0571 34.2393 95.1249 34.3513L98.7201 41.3156C98.8105 41.4724 98.6748 41.6739 98.4939 41.6739H94.3787C94.2883 41.6739 94.1978 41.6291 94.1526 41.5395L90.987 35.247C90.9418 35.1575 90.8514 35.1127 90.7609 35.1127H87.0753C86.9397 35.1127 86.8266 35.2246 86.8266 35.359V41.4276C86.8266 41.5619 86.7135 41.6739 86.5779 41.6739H83.5932C83.0279 41.6739 82.5757 41.226 82.5757 40.6662V23.0875C82.5757 22.5276 83.0279 22.0798 83.5932 22.0798H91.1453V22.1022ZM86.8266 31.3506C86.8266 31.485 86.9397 31.5969 87.0753 31.5969H90.8062C91.8011 31.5969 92.5924 31.3282 93.1803 30.7908C93.7908 30.2533 94.0848 29.5143 94.0848 28.6186C94.0848 27.6781 93.7908 26.9615 93.1803 26.4017C92.5924 25.8642 91.8011 25.5955 90.8062 25.5955H87.0753C86.9397 25.5955 86.8266 25.7075 86.8266 25.8418V31.3506ZM63.6728 22.1022C63.1075 22.1022 62.6553 22.55 62.6553 23.1099V40.6886C62.6553 41.2484 63.1075 41.6963 63.6728 41.6963H70.0265C71.9937 41.6963 73.7347 41.2932 75.2497 40.4647C76.7646 39.6361 77.9404 38.4717 78.7544 36.9937C79.591 35.4934 79.998 33.8139 79.998 31.9104C79.998 30.007 79.591 28.3275 78.7544 26.8495C77.9404 25.3492 76.7872 24.2071 75.2497 23.3786C73.7347 22.55 71.9937 22.1246 70.0265 22.1246H63.6728V22.1022ZM74.1643 36.4563C73.1921 37.5983 71.8128 38.1582 70.0265 38.1582H67.1549C67.0192 38.1582 66.9062 38.0462 66.9062 37.9118V25.8418C66.9062 25.7075 67.0192 25.5955 67.1549 25.5955H70.0265C71.8128 25.5955 73.1921 26.1777 74.1643 27.3198C75.1592 28.4619 75.6567 29.9846 75.6567 31.8656C75.6567 33.7467 75.1592 35.3142 74.1643 36.4563Z" fill="white"/>
</svg>
