<svg width="175" height="60" viewBox="0 0 175 60" fill="none" xmlns="http://www.w3.org/2000/svg">
<path d="M32.9344 7.82002C32.9344 8.82518 32.1142 9.63998 31.1025 9.63998C30.0907 9.63998 29.2705 8.82518 29.2705 7.82002C29.2705 6.81484 30.0907 6 31.1025 6C32.1142 6 32.9344 6.81484 32.9344 7.82002Z" fill="white"/>
<path d="M24.3962 9.5295C24.3962 10.5346 23.5761 11.3495 22.5644 11.3495C21.5526 11.3495 20.7324 10.5346 20.7324 9.5295C20.7324 8.52435 21.5526 7.70947 22.5644 7.70947C23.5761 7.70947 24.3962 8.52435 24.3962 9.5295Z" fill="white"/>
<path d="M28.6388 10.9877C28.6388 11.8576 27.9289 12.5628 27.0533 12.5628C26.1776 12.5628 25.4678 11.8576 25.4678 10.9877C25.4678 10.1177 26.1776 9.4125 27.0533 9.4125C27.9289 9.4125 28.6388 10.1177 28.6388 10.9877Z" fill="white"/>
<path d="M21.627 13.9949C21.627 14.8649 20.9172 15.5701 20.0415 15.5701C19.1659 15.5701 18.4561 14.8649 18.4561 13.9949C18.4561 13.125 19.1659 12.4198 20.0415 12.4198C20.9172 12.4198 21.627 13.125 21.627 13.9949Z" fill="white"/>
<path d="M22.4429 18.3607C23.0452 18.3607 23.5333 17.8757 23.5333 17.2774C23.5333 16.6791 23.0452 16.1941 22.4429 16.1941C21.8407 16.1941 21.3525 16.6791 21.3525 17.2774C21.3525 17.8757 21.8407 18.3607 22.4429 18.3607Z" fill="white"/>
<path d="M16.3076 19.4398C16.3076 20.3097 15.5978 21.0149 14.7221 21.0149C13.8465 21.0149 13.1367 20.3097 13.1367 19.4398C13.1367 18.5698 13.8465 17.8646 14.7221 17.8646C15.5978 17.8646 16.3076 18.5698 16.3076 19.4398Z" fill="white"/>
<path d="M18.2056 22.6421C18.8079 22.6421 19.2961 22.157 19.2961 21.5588C19.2961 20.9604 18.8079 20.4754 18.2056 20.4754C17.6034 20.4754 17.1152 20.9604 17.1152 21.5588C17.1152 22.157 17.6034 22.6421 18.2056 22.6421Z" fill="white"/>
<path d="M13.4922 26.4922C13.4922 27.3622 12.7824 28.0674 11.9067 28.0674C11.0311 28.0674 10.3213 27.3622 10.3213 26.4922C10.3213 25.6222 11.0311 24.917 11.9067 24.917C12.7824 24.917 13.4922 25.6222 13.4922 26.4922Z" fill="white"/>
<path d="M15.939 28.2082C16.5413 28.2082 17.0295 27.7232 17.0295 27.1249C17.0295 26.5266 16.5413 26.0416 15.939 26.0416C15.3368 26.0416 14.8486 26.5266 14.8486 27.1249C14.8486 27.7232 15.3368 28.2082 15.939 28.2082Z" fill="white"/>
<path d="M15.9918 34.212C16.594 34.212 17.0822 33.727 17.0822 33.1286C17.0822 32.5304 16.594 32.0453 15.9918 32.0453C15.3895 32.0453 14.9014 32.5304 14.9014 33.1286C14.9014 33.727 15.3895 34.212 15.9918 34.212Z" fill="white"/>
<path d="M18.3511 39.7413C18.9534 39.7413 19.4416 39.2563 19.4416 38.6579C19.4416 38.0597 18.9534 37.5746 18.3511 37.5746C17.7489 37.5746 17.2607 38.0597 17.2607 38.6579C17.2607 39.2563 17.7489 39.7413 18.3511 39.7413Z" fill="white"/>
<path d="M22.6607 43.951C23.2629 43.951 23.7511 43.466 23.7511 42.8677C23.7511 42.2695 23.2629 41.7844 22.6607 41.7844C22.0585 41.7844 21.5703 42.2695 21.5703 42.8677C21.5703 43.466 22.0585 43.951 22.6607 43.951Z" fill="white"/>
<path d="M29.3537 45.1168C29.3537 45.715 28.8655 46.2001 28.2633 46.2001C27.661 46.2001 27.1729 45.715 27.1729 45.1168C27.1729 44.5184 27.661 44.0334 28.2633 44.0334C28.8655 44.0334 29.3537 44.5184 29.3537 45.1168Z" fill="white"/>
<path d="M29.212 49.1251C29.212 49.995 28.5021 50.7002 27.6265 50.7002C26.7509 50.7002 26.041 49.995 26.041 49.1251C26.041 48.2551 26.7509 47.5499 27.6265 47.5499C28.5021 47.5499 29.212 48.2551 29.212 49.1251Z" fill="white"/>
<path d="M31.3143 48.8672C31.99 48.8672 32.5378 48.323 32.5378 47.6517C32.5378 46.9804 31.99 46.4362 31.3143 46.4362C30.6386 46.4362 30.0908 46.9804 30.0908 47.6517C30.0908 48.323 30.6386 48.8672 31.3143 48.8672Z" fill="white"/>
<path d="M33.0418 52.1801C33.0418 53.1852 32.2216 54 31.2099 54C30.1981 54 29.3779 53.1852 29.3779 52.1801C29.3779 51.1749 30.1981 50.36 31.2099 50.36C32.2216 50.36 33.0418 51.1749 33.0418 52.1801Z" fill="white"/>
<path d="M22.1133 46.3258C22.1133 47.1957 21.4035 47.9009 20.5279 47.9009C19.6522 47.9009 18.9424 47.1957 18.9424 46.3258C18.9424 45.4558 19.6522 44.7506 20.5279 44.7506C21.4035 44.7506 22.1133 45.4558 22.1133 46.3258Z" fill="white"/>
<path d="M24.5038 47.5846C25.1794 47.5846 25.7272 47.0404 25.7272 46.3691C25.7272 45.6977 25.1794 45.1535 24.5038 45.1535C23.828 45.1535 23.2803 45.6977 23.2803 46.3691C23.2803 47.0404 23.828 47.5846 24.5038 47.5846Z" fill="white"/>
<path d="M24.4949 50.5117C24.4949 51.5168 23.6747 52.3317 22.6629 52.3317C21.6512 52.3317 20.8311 51.5168 20.8311 50.5117C20.8311 49.5065 21.6512 48.6917 22.6629 48.6917C23.6747 48.6917 24.4949 49.5065 24.4949 50.5117Z" fill="white"/>
<path d="M16.6329 41.0435C16.6329 41.9134 15.923 42.6186 15.0474 42.6186C14.1718 42.6186 13.4619 41.9134 13.4619 41.0435C13.4619 40.1735 14.1718 39.4682 15.0474 39.4682C15.923 39.4682 16.6329 40.1735 16.6329 41.0435Z" fill="white"/>
<path d="M18.7049 43.8081C19.3807 43.8081 19.9284 43.2639 19.9284 42.5926C19.9284 41.9213 19.3807 41.3771 18.7049 41.3771C18.0293 41.3771 17.4814 41.9213 17.4814 42.5926C17.4814 43.2639 18.0293 43.8081 18.7049 43.8081Z" fill="white"/>
<path d="M17.241 45.7212C17.241 46.7263 16.4207 47.5412 15.409 47.5412C14.3973 47.5412 13.5771 46.7263 13.5771 45.7212C13.5771 44.716 14.3973 43.9012 15.409 43.9012C16.4207 43.9012 17.241 44.716 17.241 45.7212Z" fill="white"/>
<path d="M13.6056 34.0777C13.6056 34.9476 12.8957 35.6528 12.0201 35.6528C11.1445 35.6528 10.4346 34.9476 10.4346 34.0777C10.4346 33.2077 11.1445 32.5025 12.0201 32.5025C12.8957 32.5025 13.6056 33.2077 13.6056 34.0777Z" fill="white"/>
<path d="M14.8006 38.1163C15.4764 38.1163 16.0241 37.5721 16.0241 36.9008C16.0241 36.2295 15.4764 35.6853 14.8006 35.6853C14.1249 35.6853 13.5771 36.2295 13.5771 36.9008C13.5771 37.5721 14.1249 38.1163 14.8006 38.1163Z" fill="white"/>
<path d="M12.3846 38.5366C12.3846 39.5417 11.5644 40.3566 10.5526 40.3566C9.54092 40.3566 8.7207 39.5417 8.7207 38.5366C8.7207 37.5314 9.54092 36.7166 10.5526 36.7166C11.5644 36.7166 12.3846 37.5314 12.3846 38.5366Z" fill="white"/>
<path d="M13.3895 31.3715C14.0652 31.3715 14.613 30.8273 14.613 30.156C14.613 29.4847 14.0652 28.9405 13.3895 28.9405C12.7138 28.9405 12.166 29.4847 12.166 30.156C12.166 30.8273 12.7138 31.3715 13.3895 31.3715Z" fill="white"/>
<path d="M10.6638 30.0521C10.6638 31.0572 9.84367 31.872 8.83195 31.872C7.82014 31.872 7 31.0572 7 30.0521C7 29.0469 7.82014 28.232 8.83195 28.232C9.84367 28.232 10.6638 29.0469 10.6638 30.0521Z" fill="white"/>
<path d="M14.6814 24.605C15.3571 24.605 15.9049 24.0608 15.9049 23.3896C15.9049 22.7182 15.3571 22.174 14.6814 22.174C14.0058 22.174 13.458 22.7182 13.458 23.3896C13.458 24.0608 14.0058 24.605 14.6814 24.605Z" fill="white"/>
<path d="M12.3436 21.5608C12.3436 22.5661 11.5234 23.3809 10.5116 23.3809C9.49991 23.3809 8.67969 22.5661 8.67969 21.5608C8.67969 20.5557 9.49991 19.7409 10.5116 19.7409C11.5234 19.7409 12.3436 20.5557 12.3436 21.5608Z" fill="white"/>
<path d="M18.4823 18.8439C19.158 18.8439 19.7057 18.2997 19.7057 17.6284C19.7057 16.9571 19.158 16.4129 18.4823 16.4129C17.8065 16.4129 17.2588 16.9571 17.2588 17.6284C17.2588 18.2997 17.8065 18.8439 18.4823 18.8439Z" fill="white"/>
<path d="M17.1648 14.3546C17.1648 15.3597 16.3447 16.1746 15.3329 16.1746C14.3212 16.1746 13.501 15.3597 13.501 14.3546C13.501 13.3494 14.3212 12.5346 15.3329 12.5346C16.3447 12.5346 17.1648 13.3494 17.1648 14.3546Z" fill="white"/>
<path d="M28.0065 16.0164C28.6087 16.0164 29.0969 15.5315 29.0969 14.9331C29.0969 14.3348 28.6087 13.8498 28.0065 13.8498C27.4043 13.8498 26.916 14.3348 26.916 14.9331C26.916 15.5315 27.4043 16.0164 28.0065 16.0164Z" fill="white"/>
<path d="M24.2118 14.9657C24.8874 14.9657 25.4352 14.4215 25.4352 13.7501C25.4352 13.0788 24.8874 12.5347 24.2118 12.5347C23.536 12.5347 22.9883 13.0788 22.9883 13.7501C22.9883 14.4215 23.536 14.9657 24.2118 14.9657Z" fill="white"/>
<path d="M34.0495 15.9644C34.6517 15.9644 35.1399 15.4794 35.1399 14.8811C35.1399 14.2828 34.6517 13.7978 34.0495 13.7978C33.4472 13.7978 32.959 14.2828 32.959 14.8811C32.959 15.4794 33.4472 15.9644 34.0495 15.9644Z" fill="white"/>
<path d="M36.2735 10.875C36.2735 11.7449 35.5636 12.4502 34.688 12.4502C33.8124 12.4502 33.1025 11.7449 33.1025 10.875C33.1025 10.005 33.8124 9.29985 34.688 9.29985C35.5636 9.29985 36.2735 10.005 36.2735 10.875Z" fill="white"/>
<path d="M30.9979 13.5638C31.6736 13.5638 32.2214 13.0196 32.2214 12.3483C32.2214 11.677 31.6736 11.1328 30.9979 11.1328C30.3222 11.1328 29.7744 11.677 29.7744 12.3483C29.7744 13.0196 30.3222 13.5638 30.9979 13.5638Z" fill="white"/>
<path d="M39.6539 18.2156C40.2561 18.2156 40.7443 17.7306 40.7443 17.1323C40.7443 16.534 40.2561 16.049 39.6539 16.049C39.0516 16.049 38.5635 16.534 38.5635 17.1323C38.5635 17.7306 39.0516 18.2156 39.6539 18.2156Z" fill="white"/>
<path d="M43.3722 13.6721C43.3722 14.542 42.6623 15.2473 41.7867 15.2473C40.9111 15.2473 40.2012 14.542 40.2012 13.6721C40.2012 12.8022 40.9111 12.097 41.7867 12.097C42.6623 12.097 43.3722 12.8022 43.3722 13.6721Z" fill="white"/>
<path d="M37.8114 14.8465C38.487 14.8465 39.0348 14.3023 39.0348 13.6309C39.0348 12.9596 38.487 12.4155 37.8114 12.4155C37.1356 12.4155 36.5879 12.9596 36.5879 13.6309C36.5879 14.3023 37.1356 14.8465 37.8114 14.8465Z" fill="white"/>
<path d="M41.4841 9.48832C41.4841 10.4935 40.664 11.3083 39.6522 11.3083C38.6405 11.3083 37.8203 10.4935 37.8203 9.48832C37.8203 8.48317 38.6405 7.6683 39.6522 7.6683C40.664 7.6683 41.4841 8.48317 41.4841 9.48832Z" fill="white"/>
<path d="M43.9635 22.4254C44.5658 22.4254 45.0539 21.9404 45.0539 21.3421C45.0539 20.7438 44.5658 20.2588 43.9635 20.2588C43.3613 20.2588 42.873 20.7438 42.873 21.3421C42.873 21.9404 43.3613 22.4254 43.9635 22.4254Z" fill="white"/>
<path d="M48.8506 18.9566C48.8506 19.8266 48.1408 20.5318 47.2651 20.5318C46.3895 20.5318 45.6797 19.8266 45.6797 18.9566C45.6797 18.0867 46.3895 17.3815 47.2651 17.3815C48.1408 17.3815 48.8506 18.0867 48.8506 18.9566Z" fill="white"/>
<path d="M43.6101 18.6229C44.2858 18.6229 44.8336 18.0787 44.8336 17.4074C44.8336 16.7362 44.2858 16.192 43.6101 16.192C42.9345 16.192 42.3867 16.7362 42.3867 17.4074C42.3867 18.0787 42.9345 18.6229 43.6101 18.6229Z" fill="white"/>
<path d="M48.7371 14.2788C48.7371 15.2839 47.9169 16.0987 46.9052 16.0987C45.8934 16.0987 45.0732 15.2839 45.0732 14.2788C45.0732 13.2736 45.8934 12.4588 46.9052 12.4588C47.9169 12.4588 48.7371 13.2736 48.7371 14.2788Z" fill="white"/>
<path d="M46.3228 27.9525C46.9251 27.9525 47.4133 27.4675 47.4133 26.8692C47.4133 26.2709 46.9251 25.7859 46.3228 25.7859C45.7207 25.7859 45.2324 26.2709 45.2324 26.8692C45.2324 27.4675 45.7207 27.9525 46.3228 27.9525Z" fill="white"/>
<path d="M51.8799 25.9224C51.8799 26.7923 51.1701 27.4975 50.2944 27.4975C49.4188 27.4975 48.709 26.7923 48.709 25.9224C48.709 25.0524 49.4188 24.3472 50.2944 24.3472C51.1701 24.3472 51.8799 25.0524 51.8799 25.9224Z" fill="white"/>
<path d="M47.5116 24.3147C48.1872 24.3147 48.735 23.7705 48.735 23.0993C48.735 22.4279 48.1872 21.8837 47.5116 21.8837C46.8358 21.8837 46.2881 22.4279 46.2881 23.0993C46.2881 23.7705 46.8358 24.3147 47.5116 24.3147Z" fill="white"/>
<path d="M53.5935 21.4634C53.5935 22.4686 52.7734 23.2834 51.7616 23.2834C50.7498 23.2834 49.9297 22.4686 49.9297 21.4634C49.9297 20.4583 50.7498 19.6434 51.7616 19.6434C52.7734 19.6434 53.5935 20.4583 53.5935 21.4634Z" fill="white"/>
<path d="M46.3736 33.9562C46.9758 33.9562 47.4641 33.4713 47.4641 32.8729C47.4641 32.2747 46.9758 31.7896 46.3736 31.7896C45.7714 31.7896 45.2832 32.2747 45.2832 32.8729C45.2832 33.4713 45.7714 33.9562 46.3736 33.9562Z" fill="white"/>
<path d="M51.9932 33.5077C51.9932 34.3777 51.2834 35.0829 50.4077 35.0829C49.5321 35.0829 48.8223 34.3777 48.8223 33.5077C48.8223 32.6378 49.5321 31.9326 50.4077 31.9326C51.2834 31.9326 51.9932 32.6378 51.9932 33.5077Z" fill="white"/>
<path d="M48.9247 31.0573C49.6004 31.0573 50.1481 30.5131 50.1481 29.8418C50.1481 29.1705 49.6004 28.6263 48.9247 28.6263C48.249 28.6263 47.7012 29.1705 47.7012 29.8418C47.7012 30.5131 48.249 31.0573 48.9247 31.0573Z" fill="white"/>
<path d="M55.3143 29.9458C55.3143 30.9509 54.4941 31.7658 53.4823 31.7658C52.4706 31.7658 51.6504 30.9509 51.6504 29.9458C51.6504 28.9406 52.4706 28.1258 53.4823 28.1258C54.4941 28.1258 55.3143 28.9406 55.3143 29.9458Z" fill="white"/>
<path d="M44.107 39.5246C44.7092 39.5246 45.1975 39.0396 45.1975 38.4412C45.1975 37.843 44.7092 37.3579 44.107 37.3579C43.5048 37.3579 43.0166 37.843 43.0166 38.4412C43.0166 39.0396 43.5048 39.5246 44.107 39.5246Z" fill="white"/>
<path d="M49.1759 40.5603C49.1759 41.4302 48.466 42.1355 47.5904 42.1355C46.7148 42.1355 46.0049 41.4302 46.0049 40.5603C46.0049 39.6904 46.7148 38.9852 47.5904 38.9852C48.466 38.9852 49.1759 39.6904 49.1759 40.5603Z" fill="white"/>
<path d="M47.6336 37.826C48.3094 37.826 48.8571 37.2818 48.8571 36.6105C48.8571 35.9392 48.3094 35.395 47.6336 35.395C46.9579 35.395 46.4102 35.9392 46.4102 36.6105C46.4102 37.2818 46.9579 37.826 47.6336 37.826Z" fill="white"/>
<path d="M53.6356 38.4391C53.6356 39.4443 52.8154 40.2591 51.8036 40.2591C50.7919 40.2591 49.9717 39.4443 49.9717 38.4391C49.9717 37.434 50.7919 36.6191 51.8036 36.6191C52.8154 36.6191 53.6356 37.434 53.6356 38.4391Z" fill="white"/>
<path d="M39.8717 43.8059C40.474 43.8059 40.9621 43.3209 40.9621 42.7225C40.9621 42.1243 40.474 41.6393 39.8717 41.6393C39.2695 41.6393 38.7812 42.1243 38.7812 42.7225C38.7812 43.3209 39.2695 43.8059 39.8717 43.8059Z" fill="white"/>
<path d="M43.8584 46.0029C43.8584 46.8728 43.1486 47.5781 42.273 47.5781C41.3973 47.5781 40.6875 46.8728 40.6875 46.0029C40.6875 45.133 41.3973 44.4277 42.273 44.4277C43.1486 44.4277 43.8584 45.133 43.8584 46.0029Z" fill="white"/>
<path d="M43.8329 43.5871C44.5085 43.5871 45.0563 43.0429 45.0563 42.3715C45.0563 41.7003 44.5085 41.1561 43.8329 41.1561C43.1571 41.1561 42.6094 41.7003 42.6094 42.3715C42.6094 43.0429 43.1571 43.5871 43.8329 43.5871Z" fill="white"/>
<path d="M48.8132 45.6454C48.8132 46.6505 47.9931 47.4654 46.9814 47.4654C45.9696 47.4654 45.1494 46.6505 45.1494 45.6454C45.1494 44.6402 45.9696 43.8254 46.9814 43.8254C47.9931 43.8254 48.8132 44.6402 48.8132 45.6454Z" fill="white"/>
<path d="M34.3062 46.1503C34.9085 46.1503 35.3966 45.6652 35.3966 45.0669C35.3966 44.4686 34.9085 43.9836 34.3062 43.9836C33.704 43.9836 33.2158 44.4686 33.2158 45.0669C33.2158 45.6652 33.704 46.1503 34.3062 46.1503Z" fill="white"/>
<path d="M36.8468 49.0124C36.8468 49.8824 36.1369 50.5876 35.2613 50.5876C34.3857 50.5876 33.6758 49.8824 33.6758 49.0124C33.6758 48.1425 34.3857 47.4373 35.2613 47.4373C36.1369 47.4373 36.8468 48.1425 36.8468 49.0124Z" fill="white"/>
<path d="M38.1034 47.4632C38.779 47.4632 39.3268 46.919 39.3268 46.2478C39.3268 45.5765 38.779 45.0323 38.1034 45.0323C37.4276 45.0323 36.8799 45.5765 36.8799 46.2478C36.8799 46.919 37.4276 47.4632 38.1034 47.4632Z" fill="white"/>
<path d="M41.5818 50.4706C41.5818 51.4757 40.7616 52.2905 39.7498 52.2905C38.7381 52.2905 37.918 51.4757 37.918 50.4706C37.918 49.4654 38.7381 48.6506 39.7498 48.6506C40.7616 48.6506 41.5818 49.4654 41.5818 50.4706Z" fill="white"/>
<path d="M78.0131 23.1645C77.2241 22.3892 76.3012 21.8078 75.2483 21.417C74.1952 21.0262 73.0595 20.8356 71.8409 20.8356C70.0307 20.8356 68.4559 21.2359 67.1134 22.0366C65.7708 22.8373 64.7337 23.9524 63.9955 25.3854C63.2574 26.8183 62.8916 28.4801 62.8916 30.3769C62.8916 32.2737 63.2606 34.0022 63.9955 35.4224C64.7337 36.8426 65.7835 37.9388 67.1484 38.7109C68.5132 39.4829 70.1453 39.8674 72.0446 39.8674C73.5653 39.8674 74.9111 39.6323 76.0754 39.1652C77.2401 38.6981 78.1942 38.0405 78.9353 37.1985C79.6771 36.3533 80.1671 35.3652 80.4083 34.2278L75.6746 33.9164C75.4996 34.3802 75.2419 34.7711 74.9047 35.092C74.5674 35.4128 74.1634 35.6512 73.6925 35.8132C73.2217 35.9753 72.7 36.0515 72.1305 36.0515C71.2715 36.0515 70.5334 35.8704 69.9067 35.5114C69.2799 35.1523 68.7995 34.6408 68.4591 33.9767C68.1187 33.3127 67.9469 32.5247 67.9469 31.6129V31.6001H80.5164V30.1958C80.5164 28.6294 80.2973 27.2568 79.8552 26.0876C79.4131 24.9152 78.7991 23.9429 78.0101 23.1645H78.0131ZM67.9628 28.4324C67.9946 27.7715 68.1568 27.1647 68.4686 26.615C68.8058 26.0177 69.2703 25.5443 69.8685 25.1852C70.4666 24.8294 71.1506 24.6515 71.93 24.6515C72.7095 24.6515 73.3299 24.8135 73.893 25.1376C74.4593 25.4617 74.9015 25.9065 75.2197 26.4752C75.541 27.044 75.7 27.6953 75.7 28.4324H67.9628Z" fill="white"/>
<path d="M88.8301 25.4617C89.419 25.0328 90.1091 24.8198 90.9012 24.8198C91.8401 24.8198 92.5972 25.1027 93.1792 25.665C93.7613 26.2306 94.1181 26.9709 94.2543 27.8923H99.0843C99.0105 26.4689 98.6225 25.2297 97.9194 24.1717C97.2133 23.1169 96.2554 22.2971 95.0472 21.7125C93.8381 21.1279 92.4282 20.8356 90.819 20.8356C88.9511 20.8356 87.3411 21.2391 85.989 22.043C84.6339 22.8468 83.5907 23.962 82.8588 25.3918C82.1268 26.8184 81.7578 28.4769 81.7578 30.3642C81.7578 32.2515 82.1207 33.875 82.8459 35.308C83.5717 36.7409 84.6118 37.8593 85.97 38.6632C87.3289 39.467 88.9511 39.8674 90.8411 39.8674C92.4823 39.8674 93.9043 39.5687 95.1073 38.9682C96.3102 38.3677 97.2514 37.5353 97.9354 36.4646C98.6194 35.3969 99.0014 34.1579 99.0843 32.7503H94.2543C94.1592 33.3985 93.9553 33.9513 93.6472 34.412C93.3382 34.8727 92.9502 35.2222 92.4823 35.4605C92.0151 35.702 91.487 35.8196 90.9012 35.8196C90.1091 35.8196 89.416 35.6035 88.824 35.1714C88.2321 34.7393 87.774 34.1102 87.4499 33.2873C87.125 32.4643 86.9629 31.4635 86.9629 30.2879C86.9629 29.1124 87.128 28.1401 87.456 27.3236C87.7839 26.507 88.2419 25.8875 88.8301 25.4585V25.4617Z" fill="white"/>
<path d="M105.466 14.9322H100.348V39.5083H105.466V14.9322Z" fill="white"/>
<path d="M110.092 13.5279C109.338 13.5279 108.689 13.7821 108.145 14.2904C107.601 14.7988 107.327 15.4088 107.327 16.1205C107.327 16.8322 107.598 17.4391 108.139 17.9443C108.679 18.4495 109.332 18.7004 110.092 18.7004C110.852 18.7004 111.505 18.4462 112.045 17.9379C112.586 17.4295 112.857 16.8195 112.857 16.1078C112.857 15.3961 112.586 14.7892 112.045 14.284C111.505 13.7788 110.852 13.5279 110.092 13.5279Z" fill="white"/>
<path d="M112.64 21.077H107.521V39.5084H112.64V21.077Z" fill="white"/>
<path d="M128.945 21.8841C127.807 21.1851 126.566 20.8356 125.22 20.8356C124.186 20.8356 123.324 21.0104 122.631 21.3566C121.937 21.703 121.377 22.1351 120.947 22.653C120.518 23.1677 120.193 23.6761 119.967 24.1717H119.738V21.077H114.692V46.4189H119.812V36.5567H119.967C120.2 37.0682 120.537 37.5766 120.976 38.0754C121.415 38.5742 121.985 38.9905 122.675 39.3177C123.365 39.6449 124.212 39.8102 125.204 39.8102C126.607 39.8102 127.873 39.448 129.006 38.7236C130.138 37.9991 131.036 36.9316 131.697 35.5209C132.359 34.1102 132.69 32.3754 132.69 30.3197C132.69 28.264 132.349 26.4498 131.669 25.0454C130.988 23.6411 130.078 22.5894 128.942 21.8904L128.945 21.8841ZM127.018 33.1284C126.719 33.9482 126.28 34.5899 125.701 35.0474C125.125 35.5082 124.418 35.7369 123.585 35.7369C122.751 35.7369 122.058 35.5114 121.482 35.0602C120.906 34.609 120.464 33.9736 120.162 33.157C119.856 32.3405 119.703 31.3841 119.703 30.2879C119.703 29.1918 119.856 28.2386 120.162 27.4316C120.467 26.6246 120.903 25.9986 121.479 25.5602C122.052 25.1217 122.755 24.8993 123.588 24.8993C124.422 24.8993 125.137 25.1281 125.713 25.5824C126.289 26.0399 126.725 26.669 127.024 27.4793C127.32 28.2863 127.469 29.2235 127.469 30.2879C127.469 31.3523 127.32 32.3055 127.018 33.1253V33.1284Z" fill="white"/>
<path d="M144.505 28.8041L141.165 28.1338C140.309 27.9494 139.705 27.7048 139.352 27.403C138.998 27.098 138.823 26.7263 138.823 26.2877C138.823 25.7349 139.097 25.2933 139.641 24.9629C140.185 24.6324 140.853 24.464 141.648 24.464C142.24 24.464 142.752 24.5625 143.182 24.7595C143.611 24.9565 143.958 25.217 144.222 25.5411C144.486 25.8652 144.658 26.2274 144.738 26.6277L149.424 26.3386C149.198 24.6419 148.415 23.3012 147.076 22.3193C145.733 21.3344 143.898 20.8419 141.566 20.8419C139.988 20.8419 138.61 21.0739 137.44 21.5378C136.266 22.0016 135.356 22.6625 134.713 23.5172C134.067 24.3719 133.746 25.3918 133.746 26.5769C133.746 27.9527 134.185 29.0837 135.063 29.9734C135.941 30.8598 137.281 31.4858 139.081 31.8448L142.278 32.4803C143.08 32.6391 143.672 32.871 144.057 33.1697C144.442 33.4684 144.639 33.8528 144.645 34.3167C144.636 34.8695 144.359 35.3175 143.812 35.667C143.265 36.0165 142.539 36.1881 141.642 36.1881C140.745 36.1881 139.981 35.9943 139.396 35.6066C138.811 35.219 138.442 34.6535 138.292 33.91L133.259 34.1738C133.507 35.9339 134.354 37.3224 135.801 38.3423C137.246 39.3622 139.193 39.8738 141.636 39.8738C143.239 39.8738 144.655 39.6196 145.883 39.1112C147.111 38.6028 148.081 37.8943 148.791 36.9824C149.5 36.0706 149.853 35.0093 149.853 33.802C149.853 32.4739 149.411 31.4032 148.533 30.5866C147.652 29.7701 146.315 29.1791 144.521 28.8105L144.505 28.8041Z" fill="white"/>
<path d="M167.924 31.6001V30.1958C167.924 28.6294 167.704 27.2568 167.262 26.0876C166.819 24.9152 166.205 23.9429 165.416 23.1645C164.627 22.3892 163.705 21.8078 162.652 21.417C161.599 21.0262 160.463 20.8356 159.244 20.8356C157.434 20.8356 155.859 21.2359 154.517 22.0366C153.174 22.8373 152.137 23.9524 151.399 25.3854C150.661 26.8183 150.295 28.4801 150.295 30.3769C150.295 32.2737 150.664 34.0022 151.399 35.4224C152.137 36.8426 153.187 37.9388 154.552 38.7109C155.917 39.4829 157.549 39.8674 159.448 39.8674C160.969 39.8674 162.314 39.6323 163.479 39.1652C164.643 38.6981 165.598 38.0405 166.339 37.1985C167.08 36.3533 167.57 35.3652 167.812 34.2278L163.078 33.9164C162.903 34.3802 162.645 34.7711 162.308 35.092C161.971 35.4128 161.567 35.6512 161.096 35.8132C160.625 35.9753 160.103 36.0515 159.534 36.0515C158.675 36.0515 157.937 35.8704 157.31 35.5114C156.683 35.1523 156.203 34.6408 155.863 33.9767C155.522 33.3127 155.35 32.5247 155.35 31.6129V31.6001H167.924ZM157.272 25.1852C157.87 24.8294 158.554 24.6515 159.333 24.6515C160.113 24.6515 160.733 24.8135 161.296 25.1376C161.863 25.4617 162.305 25.9065 162.623 26.4752C162.944 27.044 163.103 27.6953 163.103 28.4324H155.366C155.398 27.7715 155.56 27.1647 155.872 26.615C156.209 26.0177 156.674 25.5443 157.272 25.1852Z" fill="white"/>
</svg>
