<svg width="145" height="60" viewBox="0 0 145 60" fill="none" xmlns="http://www.w3.org/2000/svg">
<path d="M44.0206 7.63232H42.46V52.5404H44.0206V7.63232Z" fill="white"/>
<path d="M67.3683 7.63574L66.5559 8.67052L53.5486 24.6663V7.63574H51.9883V27.0081H53.6615L68.3651 8.92625L69.4347 7.63574H67.3683Z" fill="white"/>
<path d="M51.9873 33.5186V52.5437H53.5478V35.818L66.5913 51.558L67.3673 52.5468H69.4431L68.3588 51.2383L53.6748 33.5186H51.9873Z" fill="white"/>
<path d="M77.7227 7.63539L76.9001 8.68319L76.9013 8.68336L59.4561 30.2594L77.0753 51.722L77.7227 52.5464H79.7983L78.7142 51.2379L78.7041 51.2393L61.4747 30.252L78.7157 8.9281L79.7893 7.63184L77.7227 7.63539Z" fill="white"/>
<path d="M0.65625 15.7222V17.2938H17.7472L1.88553 50.1469L0.728975 52.5461H34.6355V50.9746H3.5483L20.4891 15.7222H0.65625Z" fill="white"/>
<path d="M0.65625 7.63574V9.20753H31.9866L15.3485 44.3994H34.6355V42.8278H18.061L33.5189 9.96983L34.7067 7.63574H0.65625Z" fill="white"/>
<path d="M120.144 7.63574L119.497 8.46079L93.3432 40.6733L83.9252 29.2901L83.103 28.243H81.0459L82.0647 29.4728L93.3388 43.1696L121.119 8.94165L122.22 7.63574H120.144Z" fill="white"/>
<path d="M131.419 7.63574L130.605 8.68456L95.9241 50.9695L90.3467 50.9269L77.9567 35.797L77.1342 34.7502H75.0791L76.0981 35.98L89.6375 52.5462L96.6681 52.5471L132.399 8.94249L133.494 7.63591V7.63574H131.419Z" fill="white"/>
</svg>
