<svg width="315" height="119" viewBox="0 0 315 119" fill="none" xmlns="http://www.w3.org/2000/svg">
<mask id="path-1-outside-1_835_2844" maskUnits="userSpaceOnUse" x="265" y="35" width="47" height="47" fill="black">
<rect fill="white" x="265" y="35" width="47" height="47"/>
<path d="M266.3 55.3H284.8V36.5H292V55.3H310.5V61.9H292V80.8H284.8V61.9H266.3V55.3Z"/>
</mask>
<path d="M266.3 55.3V54.3H265.3V55.3H266.3ZM284.8 55.3V56.3H285.8V55.3H284.8ZM284.8 36.5V35.5H283.8V36.5H284.8ZM292 36.5H293V35.5H292V36.5ZM292 55.3H291V56.3H292V55.3ZM310.5 55.3H311.5V54.3H310.5V55.3ZM310.5 61.9V62.9H311.5V61.9H310.5ZM292 61.9V60.9H291V61.9H292ZM292 80.8V81.8H293V80.8H292ZM284.8 80.8H283.8V81.8H284.8V80.8ZM284.8 61.9H285.8V60.9H284.8V61.9ZM266.3 61.9H265.3V62.9H266.3V61.9ZM266.3 56.3H284.8V54.3H266.3V56.3ZM285.8 55.3V36.5H283.8V55.3H285.8ZM284.8 37.5H292V35.5H284.8V37.5ZM291 36.5V55.3H293V36.5H291ZM292 56.3H310.5V54.3H292V56.3ZM309.5 55.3V61.9H311.5V55.3H309.5ZM310.5 60.9H292V62.9H310.5V60.9ZM291 61.9V80.8H293V61.9H291ZM292 79.8H284.8V81.8H292V79.8ZM285.8 80.8V61.9H283.8V80.8H285.8ZM284.8 60.9H266.3V62.9H284.8V60.9ZM267.3 61.9V55.3H265.3V61.9H267.3Z" fill="#FDFF9D" mask="url(#path-1-outside-1_835_2844)"/>
<mask id="path-3-outside-2_835_2844" maskUnits="userSpaceOnUse" x="0" y="-1" width="255" height="121" fill="black">
<rect fill="white" y="-1" width="255" height="121"/>
<path d="M1.155 19.775V6.73999H74.58V18.62C66.495 28.19 62.7 33.14 56.1 43.865C49.005 54.92 44.22 64.985 39.765 77.195C36.3 87.26 33.99 95.18 30.195 113H15.84C19.47 94.355 21.615 85.61 26.07 74.39C33.66 54.095 43.725 37.925 59.73 19.94L1.155 19.775ZM114.676 3.76999C127.381 3.76999 137.776 10.04 144.211 21.26C148.501 29.18 151.306 44.36 151.306 59.705C151.306 95.51 138.601 114.815 114.511 114.815C101.806 114.815 91.4113 108.71 85.1413 97.325C80.8513 89.405 78.0463 74.39 78.0463 59.21C78.0463 23.075 90.7513 3.76999 114.676 3.76999ZM114.841 15.815C99.8263 15.815 92.4013 30.17 92.4013 58.715C92.4013 75.05 94.7113 87.26 98.6713 93.53C102.631 99.47 108.241 102.77 114.511 102.77C129.361 102.77 136.951 88.415 136.951 59.705C136.951 42.38 134.476 30.005 129.691 23.9C125.566 18.62 120.451 15.815 114.841 15.815ZM180.447 1.79C195.627 1.79 205.527 12.515 205.527 29.51C205.527 46.505 195.627 57.23 180.117 57.23C165.102 57.23 155.532 46.505 155.532 29.51C155.532 12.185 164.937 1.79 180.447 1.79ZM180.447 10.865C172.362 10.865 167.412 17.96 167.412 29.51C167.412 41.06 172.362 47.99 180.282 47.99C188.532 47.99 193.647 41.06 193.647 29.51C193.647 17.96 188.532 10.865 180.447 10.865ZM165.432 118.445L231.927 0.304995H241.827L175.332 118.445H165.432ZM228.792 58.715C243.972 58.715 253.707 69.605 253.707 86.6C253.707 103.595 243.972 114.155 228.462 114.155C213.282 114.155 203.712 103.595 203.712 86.435C203.712 69.44 213.282 58.715 228.792 58.715ZM228.627 67.955C220.542 67.955 215.592 74.885 215.592 86.6C215.592 97.985 220.542 105.08 228.627 105.08C236.712 105.08 241.827 97.985 241.827 86.6C241.827 74.885 236.712 67.955 228.627 67.955Z"/>
</mask>
<path d="M1.155 19.775H0.155V20.7722L1.15218 20.775L1.155 19.775ZM1.155 6.73999V5.73999H0.155V6.73999H1.155ZM74.58 6.73999H75.58V5.73999H74.58V6.73999ZM74.58 18.62L75.3439 19.2653L75.58 18.9859V18.62H74.58ZM56.1 43.865L56.9416 44.4051L56.9467 44.3972L56.9517 44.3891L56.1 43.865ZM39.765 77.195L38.8256 76.8522L38.8224 76.8608L38.8195 76.8695L39.765 77.195ZM30.195 113V114H31.0045L31.1731 113.208L30.195 113ZM15.84 113L14.8584 112.809L14.6265 114H15.84V113ZM26.07 74.39L26.9994 74.759L27.0031 74.7497L27.0066 74.7403L26.07 74.39ZM59.73 19.94L60.477 20.6048L61.953 18.9463L59.7328 18.94L59.73 19.94ZM2.155 19.775V6.73999H0.155V19.775H2.155ZM1.155 7.73999H74.58V5.73999H1.155V7.73999ZM73.58 6.73999V18.62H75.58V6.73999H73.58ZM73.8161 17.9746C65.7071 27.5731 61.8805 32.5637 55.2483 43.3409L56.9517 44.3891C63.5195 33.7163 67.2829 28.8069 75.3439 19.2653L73.8161 17.9746ZM55.2584 43.3249C48.1185 54.4498 43.3024 64.5825 38.8256 76.8522L40.7044 77.5378C45.1376 65.3875 49.8915 55.3902 56.9416 44.4051L55.2584 43.3249ZM38.8195 76.8695C35.339 86.9794 33.0188 94.9394 29.2169 112.792L31.1731 113.208C34.9612 95.4206 37.261 87.5406 40.7105 77.5205L38.8195 76.8695ZM30.195 112H15.84V114H30.195V112ZM16.8216 113.191C20.4485 94.562 22.5795 85.8906 26.9994 74.759L25.1406 74.021C20.6505 85.3294 18.4915 94.148 14.8584 112.809L16.8216 113.191ZM27.0066 74.7403C34.5479 54.5755 44.5431 38.5099 60.477 20.6048L58.983 19.2752C42.9069 37.3401 32.7721 53.6145 25.1334 74.0397L27.0066 74.7403ZM59.7328 18.94L1.15782 18.775L1.15218 20.775L59.7272 20.94L59.7328 18.94ZM144.211 21.26L145.091 20.7837L145.085 20.773L145.079 20.7625L144.211 21.26ZM85.1413 97.325L84.262 97.8013L84.2653 97.8074L85.1413 97.325ZM98.6713 93.53L97.8258 94.064L97.8324 94.0744L97.8392 94.0847L98.6713 93.53ZM129.691 23.9L128.903 24.5156L128.904 24.5169L129.691 23.9ZM114.676 4.76999C127.005 4.76999 137.078 10.8325 143.344 21.7575L145.079 20.7625C138.475 9.24752 127.757 2.76999 114.676 2.76999V4.76999ZM143.332 21.7363C147.505 29.441 150.306 44.4244 150.306 59.705H152.306C152.306 44.2956 149.497 28.919 145.091 20.7837L143.332 21.7363ZM150.306 59.705C150.306 77.5163 147.142 91.0655 141.11 100.133C135.12 109.138 126.244 113.815 114.511 113.815V115.815C126.869 115.815 136.39 110.839 142.775 101.241C149.119 91.7045 152.306 77.6987 152.306 59.705H150.306ZM114.511 113.815C102.174 113.815 92.1128 107.911 86.0172 96.8426L84.2653 97.8074C90.7098 109.509 101.439 115.815 114.511 115.815V113.815ZM86.0206 96.8487C81.8464 89.1425 79.0463 74.3227 79.0463 59.21H77.0463C77.0463 74.4573 79.8562 89.6675 84.262 97.8013L86.0206 96.8487ZM79.0463 59.21C79.0463 41.2324 82.2115 27.5995 88.224 18.4902C94.1949 9.44401 103.03 4.76999 114.676 4.76999V2.76999C102.398 2.76999 92.9177 7.74847 86.5548 17.3885C80.2336 26.9655 77.0463 41.0526 77.0463 59.21H79.0463ZM114.841 14.815C110.922 14.815 107.45 15.7542 104.463 17.661C101.479 19.5652 99.0342 22.3977 97.104 26.0981C93.2591 33.4694 91.4013 44.3885 91.4013 58.715H93.4013C93.4013 44.4965 95.256 33.9656 98.8773 27.0231C100.68 23.5667 102.907 21.0264 105.539 19.3469C108.166 17.6702 111.254 16.815 114.841 16.815V14.815ZM91.4013 58.715C91.4013 66.926 91.9816 74.1246 93.0675 80.0764C94.1507 86.0132 95.7486 90.775 97.8258 94.064L99.5168 92.996C97.634 90.015 96.0968 85.5368 95.035 79.7174C93.976 73.9129 93.4013 66.839 93.4013 58.715H91.4013ZM97.8392 94.0847C101.952 100.254 107.852 103.77 114.511 103.77V101.77C108.631 101.77 103.311 98.6861 99.5033 92.9753L97.8392 94.0847ZM114.511 103.77C118.392 103.77 121.843 102.83 124.822 100.92C127.797 99.0139 130.246 96.177 132.186 92.4672C136.052 85.076 137.951 74.1162 137.951 59.705H135.951C135.951 74.0038 134.056 84.5765 130.414 91.5403C128.6 95.008 126.368 97.5543 123.743 99.2365C121.122 100.916 118.056 101.77 114.511 101.77V103.77ZM137.951 59.705C137.951 51.0003 137.33 43.5048 136.096 37.3969C134.865 31.3052 133.008 26.5112 130.478 23.2831L128.904 24.5169C131.159 27.3938 132.933 31.8398 134.135 37.793C135.335 43.7302 135.951 51.0846 135.951 59.705H137.951ZM130.479 23.2844C126.208 17.8175 120.824 14.815 114.841 14.815V16.815C120.079 16.815 124.924 19.4225 128.903 24.5156L130.479 23.2844ZM165.432 118.445L164.56 117.955L163.721 119.445H165.432V118.445ZM231.927 0.304995V-0.695005H231.342L231.055 -0.185497L231.927 0.304995ZM241.827 0.304995L242.698 0.795488L243.537 -0.695005H241.827V0.304995ZM175.332 118.445V119.445H175.917L176.203 118.935L175.332 118.445ZM180.447 2.79C187.79 2.79 193.779 5.37659 197.94 9.94986C202.109 14.5327 204.527 21.2036 204.527 29.51H206.527C206.527 20.8214 203.994 13.6323 199.419 8.60388C194.835 3.5659 188.284 0.789996 180.447 0.789996V2.79ZM204.527 29.51C204.527 37.8163 202.11 44.4851 197.902 49.0667C193.702 53.6392 187.631 56.23 180.117 56.23V58.23C188.113 58.23 194.747 55.4583 199.375 50.4196C203.994 45.3899 206.527 38.1987 206.527 29.51H204.527ZM180.117 56.23C172.861 56.23 167 53.647 162.941 49.079C158.872 44.4981 156.532 37.825 156.532 29.51H154.532C154.532 38.19 156.977 45.3769 161.446 50.4073C165.927 55.4505 172.357 58.23 180.117 58.23V56.23ZM156.532 29.51C156.532 21.0215 158.835 14.3551 162.916 9.82226C166.986 5.30267 172.926 2.79 180.447 2.79V0.789996C172.458 0.789996 165.94 3.47482 161.43 8.48398C156.931 13.4799 154.532 20.6735 154.532 29.51H156.532ZM180.447 9.865C176.07 9.865 172.508 11.805 170.078 15.2835C167.674 18.7241 166.412 23.6097 166.412 29.51H168.412C168.412 23.8603 169.625 19.4234 171.717 16.429C173.783 13.4725 176.739 11.865 180.447 11.865V9.865ZM166.412 29.51C166.412 35.4104 167.674 40.2556 170.058 43.6554C172.469 47.0927 175.989 48.99 180.282 48.99V46.99C176.655 46.99 173.74 45.4223 171.696 42.5071C169.625 39.5544 168.412 35.1595 168.412 29.51H166.412ZM180.282 48.99C184.723 48.99 188.367 47.1072 190.867 43.6694C193.341 40.2671 194.647 35.4161 194.647 29.51H192.647C192.647 35.1539 191.395 39.5429 189.249 42.4931C187.13 45.4078 184.09 46.99 180.282 46.99V48.99ZM194.647 29.51C194.647 23.6034 193.341 18.7163 190.894 15.2765C188.422 11.8025 184.822 9.865 180.447 9.865V11.865C184.157 11.865 187.157 13.475 189.264 16.436C191.395 19.4312 192.647 23.8665 192.647 29.51H194.647ZM166.303 118.935L232.798 0.795488L231.055 -0.185497L164.56 117.955L166.303 118.935ZM231.927 1.305H241.827V-0.695005H231.927V1.305ZM240.955 -0.185497L174.46 117.955L176.203 118.935L242.698 0.795488L240.955 -0.185497ZM175.332 117.445H165.432V119.445H175.332V117.445ZM228.792 59.715C236.129 59.715 242.075 62.3388 246.196 66.9507C250.328 71.5744 252.707 78.2891 252.707 86.6H254.707C254.707 77.9159 252.218 70.6881 247.687 65.618C243.146 60.5362 236.635 57.715 228.792 57.715V59.715ZM252.707 86.6C252.707 94.9104 250.329 101.536 246.164 106.074C242.008 110.603 235.98 113.155 228.462 113.155V115.155C236.454 115.155 243.048 112.427 247.637 107.427C252.218 102.436 254.707 95.2846 254.707 86.6H252.707ZM228.462 113.155C221.116 113.155 215.214 110.608 211.139 106.062C207.053 101.505 204.712 94.8345 204.712 86.435H202.712C202.712 95.1954 205.156 102.385 209.65 107.398C214.155 112.422 220.628 115.155 228.462 115.155V113.155ZM204.712 86.435C204.712 78.12 207.051 71.4503 211.178 66.8714C215.294 62.3046 221.279 59.715 228.792 59.715V57.715C220.794 57.715 214.239 60.4879 209.693 65.5324C205.157 70.5647 202.712 77.755 202.712 86.435H204.712ZM228.627 66.955C224.258 66.955 220.694 68.8468 218.259 72.3091C215.853 75.7317 214.592 80.6199 214.592 86.6H216.592C216.592 80.8651 217.806 76.4307 219.895 73.4596C221.957 70.5282 224.911 68.955 228.627 68.955V66.955ZM214.592 86.6C214.592 92.4204 215.855 97.2651 218.259 100.685C220.69 104.141 224.25 106.08 228.627 106.08V104.08C224.918 104.08 221.961 102.472 219.895 99.5341C217.804 96.5599 216.592 92.1646 216.592 86.6H214.592ZM228.627 106.08C233.001 106.08 236.6 104.143 239.072 100.692C241.52 97.2729 242.827 92.4267 242.827 86.6H240.827C240.827 92.1583 239.576 96.552 237.446 99.5271C235.339 102.469 232.338 104.08 228.627 104.08V106.08ZM242.827 86.6C242.827 80.6137 241.522 75.724 239.072 72.3021C236.595 68.8443 232.993 66.955 228.627 66.955V68.955C232.345 68.955 235.343 70.5307 237.446 73.4666C239.574 76.4385 240.827 80.8713 240.827 86.6H242.827Z" fill="#FDFF9D" mask="url(#path-3-outside-2_835_2844)"/>
</svg>
