<svg width="46" height="46" viewBox="0 0 46 46" fill="none" xmlns="http://www.w3.org/2000/svg">
<path d="M14.1638 37.2283C15.691 38.1818 17.3821 38.8896 19.1849 39.3068L19.6468 44.9984H26.3516L26.8135 39.3068C28.6163 38.8896 30.3074 38.1744 31.8346 37.2283L36.1853 40.9234L40.9234 36.1853L37.2283 31.8346C38.1818 30.3074 38.8896 28.6163 39.3068 26.8135L44.9984 26.3516V19.6468L39.3068 19.1849C38.8896 17.3821 38.1744 15.691 37.2283 14.1638L40.9234 9.81309L36.1853 5.07503L31.8346 8.77012C30.3074 7.81655 28.6163 7.10882 26.8135 6.69163L26.3516 1H19.6468L19.1849 6.69163C17.3821 7.10882 15.691 7.824 14.1638 8.77012L9.81309 5.07503L5.07503 9.81309L8.77011 14.1638C7.81654 15.691 7.10882 17.3821 6.69163 19.1849L1 19.6468V26.3516L6.69163 26.8135C7.10882 28.6163 7.82399 30.3074 8.77011 31.8346L5.07503 36.1853L9.81309 40.9234L14.1638 37.2283Z" stroke="white" stroke-width="2" stroke-miterlimit="10"/>
</svg>
