<svg width="147" height="42" viewBox="0 0 147 42" fill="none" xmlns="http://www.w3.org/2000/svg">
<g clip-path="url(#clip0_65_752)">
<path d="M62.6116 36.9072C58.5409 36.9761 55.3258 35.2273 55.0178 31.3862C55.017 31.3544 55.0227 31.3229 55.0345 31.2934C55.0463 31.2639 55.064 31.2371 55.0864 31.2147C55.1088 31.1922 55.1355 31.1746 55.1649 31.1628C55.1942 31.1511 55.2257 31.1455 55.2573 31.1463H57.8583C57.9953 31.1463 58.0979 31.2489 58.1323 31.3862C58.44 33.6153 60.2186 34.6451 62.6813 34.6451C65.5547 34.6451 67.5384 32.9305 67.5384 28.9522V26.9635C66.4096 28.9188 64.5284 30.0839 62.0665 30.0839C57.1409 30.0839 54.5415 26.3463 54.5415 21.3052C54.5415 16.2983 57.2094 12.252 61.9639 12.252C64.4267 12.252 66.3078 13.3148 67.4711 15.2697L67.3682 12.766C67.3675 12.7343 67.3732 12.7027 67.385 12.6732C67.3967 12.6437 67.4144 12.6169 67.4368 12.5945C67.4592 12.572 67.4859 12.5544 67.5153 12.5427C67.5447 12.5309 67.5761 12.5253 67.6077 12.5261H70.2424C70.274 12.5253 70.3055 12.5309 70.3348 12.5427C70.3642 12.5544 70.3909 12.572 70.4133 12.5945C70.4357 12.6169 70.4534 12.6437 70.4652 12.6732C70.4769 12.7027 70.4827 12.7343 70.4819 12.766L70.4134 19.5902L70.4475 28.9869C70.4787 34.0622 67.6393 36.9072 62.6116 36.9072ZM62.7482 27.8544C65.6216 27.8544 67.5028 25.7964 67.5368 21.4413C67.5713 17.2234 65.9293 14.686 63.0218 14.4798H62.4386C59.292 14.5829 57.6844 17.1888 57.6844 21.2013C57.6861 25.4546 59.3961 27.8894 62.7482 27.8552V27.8544Z" fill="white"/>
<path d="M85.7877 30.1854C85.7561 30.1862 85.7247 30.1805 85.6954 30.1687C85.666 30.157 85.6394 30.1393 85.617 30.1169C85.5947 30.0945 85.5771 30.0677 85.5653 30.0382C85.5535 30.0088 85.5478 29.9772 85.5485 29.9455L85.6166 27.3383C84.4197 29.3275 82.5361 30.528 79.9728 30.528C75.2183 30.528 72.687 26.5155 72.687 21.4059C72.687 16.2963 75.3894 12.1812 80.0413 12.1812C82.5382 12.1812 84.4189 13.2444 85.5826 15.1989L85.5141 12.7641C85.5134 12.7323 85.5191 12.7007 85.5309 12.6712C85.5427 12.6417 85.5603 12.615 85.5827 12.5925C85.6051 12.5701 85.6318 12.5524 85.6612 12.5407C85.6906 12.5289 85.722 12.5233 85.7536 12.5242H88.4199C88.4515 12.5233 88.483 12.5289 88.5124 12.5407C88.5418 12.5524 88.5685 12.5701 88.5909 12.5925C88.6133 12.615 88.6309 12.6417 88.6427 12.6712C88.6545 12.7007 88.6602 12.7323 88.6595 12.7641L88.5569 21.2002L88.6631 29.9467C88.6637 29.9787 88.6578 30.0105 88.6457 30.0401C88.6336 30.0697 88.6156 30.0965 88.5928 30.1188C88.57 30.1412 88.5429 30.1586 88.5132 30.1701C88.4835 30.1815 88.4517 30.1867 88.4199 30.1854H85.7877ZM80.7616 28.2301C83.8056 28.2301 85.6531 25.9667 85.6872 21.5086C85.7212 17.2219 84.0796 14.6844 81.1722 14.4783H80.5905C77.3755 14.5813 75.8705 17.2891 75.8705 21.1656C75.8685 25.3854 77.4415 28.2301 80.7592 28.2301H80.7616Z" fill="white"/>
<path d="M91.8681 30.1855C91.8365 30.1862 91.8051 30.1806 91.7758 30.1688C91.7464 30.157 91.7198 30.1394 91.6974 30.1169C91.6751 30.0945 91.6575 30.0678 91.6457 30.0383C91.6339 30.0088 91.6282 29.9773 91.629 29.9455L91.7315 18.046L91.629 6.42068C91.6282 6.38894 91.6339 6.35738 91.6457 6.32792C91.6575 6.29845 91.6751 6.27169 91.6974 6.24926C91.7198 6.22683 91.7464 6.20919 91.7758 6.19741C91.8051 6.18564 91.8365 6.17997 91.8681 6.18075H94.5028C94.5344 6.17991 94.5658 6.18554 94.5952 6.19729C94.6246 6.20904 94.6513 6.22667 94.6737 6.24911C94.6961 6.27155 94.7137 6.29832 94.7255 6.32782C94.7373 6.35731 94.743 6.38891 94.7423 6.42068L94.6398 18.0118L94.7423 29.9476C94.743 29.9793 94.7373 30.0109 94.7255 30.0404C94.7137 30.0699 94.6961 30.0967 94.6737 30.1191C94.6513 30.1416 94.6246 30.1592 94.5952 30.171C94.5658 30.1827 94.5344 30.1883 94.5028 30.1875L91.8681 30.1855Z" fill="white"/>
<path d="M110.072 30.1854C110.04 30.1862 110.009 30.1805 109.979 30.1687C109.95 30.157 109.923 30.1393 109.901 30.1169C109.879 30.0945 109.861 30.0677 109.849 30.0383C109.837 30.0088 109.832 29.9772 109.832 29.9455L109.901 27.3383C108.704 29.3275 106.822 30.528 104.257 30.528C99.5025 30.528 96.9712 26.5155 96.9712 21.4059C96.9712 16.2963 99.6735 12.1812 104.326 12.1812C106.822 12.1812 108.703 13.2444 109.866 15.1989L109.798 12.7641C109.798 12.7323 109.803 12.7007 109.815 12.6712C109.827 12.6417 109.844 12.615 109.867 12.5925C109.889 12.5701 109.916 12.5524 109.945 12.5407C109.975 12.5289 110.006 12.5233 110.038 12.5242H112.706C112.737 12.5233 112.769 12.5289 112.798 12.5407C112.828 12.5524 112.854 12.5701 112.877 12.5925C112.899 12.615 112.917 12.6417 112.928 12.6712C112.94 12.7007 112.946 12.7323 112.945 12.7641L112.842 21.2002L112.945 29.9451C112.946 29.9768 112.94 30.0084 112.928 30.0379C112.917 30.0673 112.899 30.0941 112.877 30.1165C112.854 30.1389 112.827 30.1566 112.798 30.1683C112.769 30.1801 112.737 30.1858 112.706 30.185L110.072 30.1854ZM105.046 28.2301C108.09 28.2301 109.937 25.9667 109.971 21.5086C110.005 17.2219 108.364 14.6844 105.456 14.4783H104.875C101.659 14.5813 100.155 17.2891 100.155 21.1656C100.153 25.3854 101.726 28.2301 105.044 28.2301H105.046Z" fill="white"/>
<path d="M126.931 30.1856C126.794 30.1856 126.623 30.1168 126.554 29.982L122.177 22.7806L117.798 29.982C117.729 30.1188 117.558 30.1856 117.421 30.1856H114.651C114.627 30.1864 114.603 30.1804 114.583 30.1681C114.562 30.1559 114.546 30.1381 114.535 30.1167C114.524 30.0953 114.52 30.0712 114.522 30.0473C114.524 30.0235 114.534 30.0008 114.548 29.982L120.261 20.8256L115.027 12.7317C115.012 12.7129 115.002 12.69 114.999 12.6658C114.997 12.6416 115.001 12.6171 115.012 12.5954C115.023 12.5736 115.04 12.5555 115.06 12.5431C115.081 12.5308 115.105 12.5249 115.13 12.526H118.174C118.311 12.526 118.482 12.5945 118.55 12.7317L122.518 19.2129L126.349 12.7317C126.391 12.6701 126.447 12.6193 126.513 12.5836C126.578 12.5478 126.651 12.5281 126.725 12.526H129.393C129.417 12.5249 129.441 12.5308 129.462 12.5431C129.483 12.5555 129.5 12.5736 129.511 12.5954C129.522 12.6171 129.526 12.6416 129.523 12.6658C129.521 12.69 129.511 12.7129 129.496 12.7317L124.434 20.9279L130.077 29.982C130.092 30.0008 130.101 30.0235 130.104 30.0473C130.106 30.0712 130.101 30.0953 130.091 30.1167C130.08 30.1381 130.063 30.1559 130.043 30.1681C130.022 30.1804 129.999 30.1864 129.975 30.1856H126.931Z" fill="white"/>
<path d="M138.775 35.7762C138.756 35.844 138.716 35.904 138.66 35.9473C138.605 35.9905 138.537 36.0148 138.467 36.0165H135.97C135.942 36.0153 135.914 36.0077 135.889 35.9941C135.864 35.9806 135.843 35.9615 135.826 35.9383C135.81 35.9151 135.799 35.8885 135.794 35.8604C135.789 35.8323 135.791 35.8035 135.799 35.7762L137.715 30.2209L130.805 12.7658C130.736 12.6285 130.805 12.5259 130.942 12.5259H133.986C134.056 12.5276 134.124 12.5518 134.179 12.5949C134.235 12.6381 134.275 12.698 134.294 12.7658L139.322 26.14L143.564 12.7658C143.583 12.6981 143.623 12.6382 143.678 12.5951C143.734 12.5519 143.801 12.5276 143.871 12.5259H146.608C146.745 12.5259 146.813 12.6285 146.779 12.7658L138.775 35.7762Z" fill="white"/>
<path d="M7.01954 6.18174H36.7193V36.0285C40.5193 32.2094 42.8702 26.9341 42.8702 21.1063C42.8702 9.45083 33.4678 0 21.8696 0C10.2715 0 0.868652 9.45083 0.868652 21.1063C0.868652 26.9316 3.21957 32.2045 7.01954 36.0232V6.18174Z" fill="white"/>
<path d="M7.02642 36.0303H7.01953V41.9998H36.7193V36.0303H36.7173H7.02642Z" fill="white"/>
</g>
<defs>
<clipPath id="clip0_65_752">
<rect width="146" height="42" fill="white" transform="translate(0.828125)"/>
</clipPath>
</defs>
</svg>
