<svg width="150" height="21" viewBox="0 0 150 21" fill="none" xmlns="http://www.w3.org/2000/svg">
<g clip-path="url(#clip0_646_1328)">
<path d="M7.57408 20.1975C5.34861 20.1975 3.52522 19.6739 2.10391 18.6266C0.701303 17.5606 0 16.0458 0 14.0822C0 13.6707 0.0467535 13.1658 0.140261 12.5674C0.383379 11.2209 0.729355 9.60318 1.17819 7.71434C2.44989 2.57145 5.73199 0 11.0245 0C12.4645 0 13.7549 0.243119 14.8957 0.729356C16.0365 1.19689 16.9341 1.90755 17.5887 2.86132C18.2432 3.79639 18.5705 4.91848 18.5705 6.22758C18.5705 6.62031 18.5238 7.11589 18.4303 7.71434C18.1497 9.37877 17.8131 10.9964 17.4204 12.5674C16.7658 15.1295 15.6344 17.0464 14.0261 18.318C12.4177 19.571 10.2671 20.1975 7.57408 20.1975ZM7.96681 16.158C9.01409 16.158 9.9024 15.8495 10.6318 15.2323C11.3798 14.6152 11.9128 13.6707 12.2307 12.399C12.6609 10.6411 12.9881 9.10759 13.2126 7.7985C13.2874 7.40577 13.3248 7.00368 13.3248 6.59225C13.3248 4.89042 12.4364 4.03951 10.6598 4.03951C9.61253 4.03951 8.71486 4.34808 7.96681 4.96523C7.23745 5.58238 6.71381 6.5268 6.39589 7.7985C6.05926 9.05149 5.72264 10.585 5.38601 12.399C5.3112 12.7731 5.2738 13.1658 5.2738 13.5772C5.2738 15.2978 6.17147 16.158 7.96681 16.158Z" fill="#F8F8F8"/>
<path d="M21.417 19.917C21.2112 19.917 21.0523 19.8516 20.9401 19.7207C20.8466 19.571 20.8185 19.4027 20.8559 19.2157L24.7271 0.981822C24.7645 0.776106 24.8674 0.607794 25.0357 0.476884C25.204 0.345974 25.3817 0.280518 25.5687 0.280518H33.0305C35.1064 0.280518 36.7708 0.710651 38.0238 1.57092C39.2955 2.43119 39.9314 3.67483 39.9314 5.30185C39.9314 5.76939 39.8753 6.25563 39.7631 6.76057C39.2955 8.91123 38.3511 10.5009 36.9298 11.5294C35.5272 12.558 33.6009 13.0723 31.151 13.0723H27.364L26.0736 19.2157C26.0362 19.4214 25.9334 19.5897 25.765 19.7207C25.5967 19.8516 25.4191 19.917 25.232 19.917H21.417ZM31.3474 9.2011C32.1329 9.2011 32.8155 8.98603 33.3952 8.5559C33.9937 8.12577 34.3864 7.50862 34.5734 6.70446C34.6295 6.38654 34.6576 6.10602 34.6576 5.8629C34.6576 5.32056 34.4986 4.90912 34.1807 4.6286C33.8628 4.32938 33.3204 4.17977 32.5537 4.17977H29.1874L28.1214 9.2011H31.3474Z" fill="#F8F8F8"/>
<path d="M46.2517 19.917C46.046 19.917 45.887 19.8516 45.7748 19.7207C45.6626 19.571 45.6252 19.4027 45.6626 19.2157L48.7764 4.68471H43.7831C43.5774 4.68471 43.4184 4.61925 43.3062 4.48834C43.2127 4.33873 43.1847 4.17042 43.2221 3.9834L43.8673 0.981822C43.9047 0.776106 44.0075 0.607794 44.1758 0.476884C44.3441 0.345974 44.5218 0.280518 44.7088 0.280518H59.8009C60.0066 0.280518 60.1655 0.345974 60.2778 0.476884C60.3526 0.589092 60.39 0.7013 60.39 0.813509C60.39 0.869613 60.3806 0.925718 60.3619 0.981822L59.7167 3.9834C59.6793 4.18912 59.5765 4.35743 59.4081 4.48834C59.2585 4.61925 59.0809 4.68471 58.8752 4.68471H53.9099L50.7961 19.2157C50.7587 19.4214 50.6559 19.5897 50.4876 19.7207C50.3192 19.8516 50.1416 19.917 49.9546 19.917H46.2517Z" fill="#F8F8F8"/>
<path d="M61.1061 19.917C60.9004 19.917 60.7415 19.8516 60.6293 19.7207C60.517 19.571 60.4796 19.4027 60.517 19.2157L64.4163 0.981822C64.4537 0.776106 64.5566 0.607794 64.7249 0.476884C64.8932 0.345974 65.0708 0.280518 65.2579 0.280518H69.0449C69.2506 0.280518 69.4096 0.345974 69.5218 0.476884C69.5966 0.589092 69.634 0.7013 69.634 0.813509C69.634 0.869613 69.6246 0.925718 69.6059 0.981822L65.7347 19.2157C65.6973 19.4214 65.5944 19.5897 65.4261 19.7207C65.2578 19.8516 65.0802 19.917 64.8932 19.917H61.1061Z" fill="#F8F8F8"/>
<path d="M71.7877 19.917C71.582 19.917 71.423 19.8516 71.3108 19.7207C71.1986 19.5897 71.1612 19.4214 71.1986 19.2157L75.0698 0.981822C75.1072 0.776106 75.21 0.607794 75.3783 0.476884C75.5467 0.345974 75.7337 0.280518 75.9394 0.280518H78.969C79.4179 0.280518 79.7077 0.486234 79.8386 0.897666L82.8963 9.73409L89.713 0.897666C89.8065 0.748054 89.9374 0.607794 90.1057 0.476884C90.2927 0.345974 90.5171 0.280518 90.779 0.280518H93.8367C94.0424 0.280518 94.2013 0.345974 94.3135 0.476884C94.3883 0.589092 94.4258 0.7013 94.4258 0.813509C94.4258 0.869613 94.4164 0.925718 94.3977 0.981822L90.5265 19.2157C90.4891 19.4214 90.3862 19.5897 90.2179 19.7207C90.0496 19.8516 89.872 19.917 89.6849 19.917H86.2906C86.0849 19.917 85.926 19.8516 85.8137 19.7207C85.7202 19.571 85.6922 19.4027 85.7296 19.2157L87.9177 8.86448L83.6257 14.5591C83.4387 14.7648 83.261 14.9237 83.0927 15.0359C82.9244 15.1482 82.728 15.2043 82.5036 15.2043H81.0449C80.6522 15.2043 80.381 14.9892 80.2314 14.5591L78.2397 8.61201L75.9955 19.2157C75.9581 19.4214 75.8552 19.5897 75.6869 19.7207C75.5186 19.8516 75.3409 19.917 75.1539 19.917H71.7877Z" fill="#F8F8F8"/>
<path d="M96.5484 19.917C96.3426 19.917 96.1837 19.8516 96.0715 19.7207C95.9593 19.571 95.9219 19.4027 95.9593 19.2157L99.8585 0.981822C99.8959 0.776106 99.9988 0.607794 100.167 0.476884C100.335 0.345974 100.513 0.280518 100.7 0.280518H104.487C104.693 0.280518 104.852 0.345974 104.964 0.476884C105.039 0.589092 105.076 0.7013 105.076 0.813509C105.076 0.869613 105.067 0.925718 105.048 0.981822L101.177 19.2157C101.14 19.4214 101.037 19.5897 100.868 19.7207C100.7 19.8516 100.522 19.917 100.335 19.917H96.5484Z" fill="#F8F8F8"/>
<path d="M114.159 20.1975C112.513 20.1975 111.101 19.9731 109.923 19.5243C108.763 19.0755 107.884 18.477 107.286 17.729C106.706 16.9809 106.416 16.1487 106.416 15.2323C106.416 15.0827 106.435 14.8583 106.472 14.5591C106.51 14.3907 106.585 14.2505 106.697 14.1383C106.828 14.0261 106.977 13.97 107.146 13.97H110.736C110.961 13.97 111.129 14.0074 111.241 14.0822C111.372 14.157 111.503 14.2879 111.634 14.4749C111.765 14.9611 112.064 15.3632 112.532 15.6811C113.018 15.9991 113.682 16.158 114.523 16.158C115.589 16.158 116.45 15.9897 117.104 15.6531C117.759 15.3165 118.152 14.8583 118.282 14.2785C118.301 14.2037 118.31 14.0915 118.31 13.9419C118.31 13.4744 118.021 13.1097 117.441 12.8479C116.861 12.5674 115.795 12.2401 114.243 11.8661C112.429 11.4733 111.054 10.8842 110.119 10.0988C109.184 9.29461 108.717 8.24733 108.717 6.95693C108.717 6.5081 108.773 6.04991 108.885 5.58238C109.259 3.84314 110.185 2.47794 111.662 1.48676C113.158 0.495588 115.084 0 117.441 0C118.862 0 120.125 0.252469 121.228 0.757408C122.331 1.26235 123.182 1.90755 123.781 2.69301C124.398 3.45976 124.706 4.22652 124.706 4.99328C124.706 5.2177 124.697 5.37666 124.678 5.47017C124.641 5.63848 124.557 5.77874 124.426 5.89095C124.314 6.00316 124.173 6.05926 124.005 6.05926H120.246C119.835 6.05926 119.554 5.9003 119.405 5.58238C119.386 5.15224 119.161 4.78757 118.731 4.48834C118.301 4.18912 117.74 4.03951 117.048 4.03951C116.225 4.03951 115.543 4.18912 115 4.48834C114.477 4.78757 114.149 5.22705 114.019 5.80679C114 5.9003 113.99 6.02186 113.99 6.17147C113.99 6.6203 114.252 6.99433 114.776 7.29356C115.318 7.57408 116.263 7.86395 117.609 8.16317C119.704 8.5746 121.228 9.1637 122.182 9.93046C123.154 10.6972 123.64 11.7164 123.64 12.9881C123.64 13.4183 123.584 13.8858 123.472 14.3907C123.061 16.2983 122.06 17.7477 120.47 18.7388C118.9 19.7113 116.796 20.1975 114.159 20.1975Z" fill="#F8F8F8"/>
<path d="M127.362 19.917C127.156 19.917 126.997 19.8516 126.885 19.7207C126.773 19.5897 126.735 19.4214 126.773 19.2157L130.644 0.981822C130.681 0.776106 130.784 0.607794 130.953 0.476884C131.121 0.345974 131.308 0.280518 131.514 0.280518H134.543C134.992 0.280518 135.282 0.486234 135.413 0.897666L138.471 9.73409L145.287 0.897666C145.381 0.748054 145.512 0.607794 145.68 0.476884C145.867 0.345974 146.091 0.280518 146.353 0.280518H149.411C149.617 0.280518 149.776 0.345974 149.888 0.476884C149.963 0.589092 150 0.7013 150 0.813509C150 0.869613 149.991 0.925718 149.972 0.981822L146.101 19.2157C146.063 19.4214 145.96 19.5897 145.792 19.7207C145.624 19.8516 145.446 19.917 145.259 19.917H141.865C141.659 19.917 141.5 19.8516 141.388 19.7207C141.294 19.571 141.266 19.4027 141.304 19.2157L143.492 8.86448L139.2 14.5591C139.013 14.7648 138.835 14.9237 138.667 15.0359C138.499 15.1482 138.302 15.2043 138.078 15.2043H136.619C136.226 15.2043 135.955 14.9892 135.806 14.5591L133.814 8.61201L131.57 19.2157C131.532 19.4214 131.429 19.5897 131.261 19.7207C131.093 19.8516 130.915 19.917 130.728 19.917H127.362Z" fill="#F8F8F8"/>
</g>
<defs>
<clipPath id="clip0_646_1328">
<rect width="150" height="21" fill="white"/>
</clipPath>
</defs>
</svg>
