<svg width="88" height="77" viewBox="0 0 88 77" fill="none" xmlns="http://www.w3.org/2000/svg">
<g clip-path="url(#clip0_646_1300)">
<path d="M65.7934 32.6973L58.0004 22.1688C57.1539 21.0246 55.9003 20.3392 54.5653 20.1881C54.2614 20.1532 53.9901 19.9778 53.8382 19.7133C53.6835 19.4489 53.6673 19.1277 53.7894 18.8472C54.3239 17.6222 54.3563 16.2002 53.7812 14.8996L48.509 2.92488C47.7276 1.14675 45.9612 0 44.0102 0C42.0593 0 40.2929 1.14945 39.5115 2.92488L34.2393 14.8996C33.6667 16.2002 33.6966 17.6222 34.2311 18.8472C34.3532 19.1277 34.3342 19.4489 34.1823 19.7133C34.0276 19.9778 33.7591 20.1532 33.4552 20.1881C32.12 20.3392 30.8665 21.0246 30.0199 22.1688L22.227 32.6973C21.0712 34.2594 20.9544 36.3532 21.9286 38.0344C22.9054 39.7126 24.7885 40.6596 26.7258 40.4466L39.791 39.0002C41.2099 38.8437 42.4337 38.1072 43.2315 37.0332C43.4132 36.7877 43.7036 36.642 44.0102 36.642C44.3169 36.642 44.6044 36.7877 44.7889 37.0332C45.5868 38.1072 46.8104 38.8437 48.2295 39.0002L61.2945 40.4466C63.232 40.6623 65.1151 39.7153 66.0919 38.0344C67.0659 36.3532 66.9493 34.2594 65.7934 32.6973ZM37.6473 16.4026L42.9276 4.41431C43.1175 3.98528 43.5435 3.70738 44.013 3.70738C44.4823 3.70738 44.9083 3.98528 45.0983 4.41431L50.3785 16.4026C50.5441 16.7803 50.5088 17.2174 50.2808 17.5628C50.0529 17.9082 49.6677 18.1159 49.2498 18.1159H38.7734C38.3582 18.1159 37.9701 17.9082 37.7422 17.5628C37.5143 17.2174 37.4791 16.7803 37.6445 16.4026H37.6473ZM40.358 34.6534C40.1707 35.023 39.8072 35.2713 39.3947 35.3171L26.3162 36.7634C25.8494 36.8147 25.3936 36.588 25.1575 36.1833C24.9215 35.7785 24.9514 35.274 25.2307 34.8962L33.0317 24.357C33.2788 24.0251 33.6749 23.8361 34.0901 23.8604C34.5051 23.8821 34.8796 24.1113 35.0885 24.4702L35.0967 24.4838L40.3201 33.4796L40.3281 33.4932C40.5371 33.8521 40.548 34.2891 40.3607 34.6562L40.358 34.6534ZM45.0846 30.5844C44.8622 30.9649 44.4552 31.2024 44.0102 31.2024C43.5679 31.2024 43.1583 30.9676 42.9357 30.5871L38.9226 23.677C38.7002 23.2966 38.7002 22.8244 38.9226 22.444C39.1451 22.0635 39.5521 21.826 39.997 21.826H48.0207C48.4629 21.826 48.8726 22.0581 49.0951 22.4412C49.3176 22.8244 49.3176 23.2939 49.0951 23.6743L45.0846 30.5844ZM62.8656 36.1833C62.6296 36.588 62.1765 36.8174 61.707 36.7661L48.6285 35.3198C48.216 35.274 47.8524 35.0258 47.6652 34.6562C47.4779 34.2864 47.4889 33.8494 47.6977 33.4932L47.7059 33.4796L52.9292 24.4838L52.9372 24.4702C53.1462 24.1113 53.5206 23.8821 53.9358 23.8604C54.3509 23.8388 54.7471 24.0251 54.994 24.357L62.795 34.8962C63.0745 35.274 63.1017 35.7785 62.8683 36.1833H62.8656Z" fill="white"/>
<path d="M29.9106 74.0832C29.2478 75.021 28.3684 75.718 27.2725 76.1744C26.1764 76.6052 24.9528 76.8206 23.602 76.8206C22.5314 76.8206 21.5499 76.694 20.6579 76.4405C19.7912 76.187 19.0265 75.8068 18.3637 75.2998C17.7011 74.7675 17.1785 74.1211 16.7962 73.3607C16.4138 72.5749 16.2227 71.6879 16.2227 70.6994C16.2227 69.6094 16.4393 68.6842 16.8726 67.9238C17.306 67.138 17.8922 66.5044 18.6313 66.0227C19.3962 65.5411 20.2882 65.1864 21.3078 64.9581C22.3273 64.7046 23.3979 64.578 24.5195 64.578H29.6811C29.6811 63.1079 29.3499 61.9672 28.687 61.1561C28.0244 60.345 26.8645 59.9268 25.2077 59.9015C24.2391 59.9015 23.3979 60.0662 22.6843 60.3957C21.9961 60.7253 21.5372 61.2703 21.3078 62.0307H16.8344C16.9873 60.9661 17.3315 60.0661 17.8667 59.3311C18.4275 58.5961 19.0903 57.9877 19.855 57.5061C20.6451 57.0246 21.5118 56.6823 22.4549 56.4796C23.4234 56.2768 24.3922 56.1754 25.3607 56.1754C26.6096 56.1754 27.7695 56.3401 28.8401 56.6696C29.9106 56.9992 30.8409 57.5569 31.6311 58.3426C32.5233 59.255 33.1222 60.345 33.4281 61.6123C33.734 62.8796 33.8869 64.2611 33.8869 65.7565V76.5545H30.1018L29.9106 74.0832ZM29.6811 67.6576H25.4753C24.7361 67.6576 23.997 67.721 23.2578 67.8477C22.5186 67.9491 21.8813 68.2153 21.346 68.6461C20.8363 69.0518 20.5814 69.6475 20.5814 70.4333C20.5814 71.3964 20.9255 72.1314 21.6137 72.6383C22.3273 73.1199 23.194 73.3607 24.2136 73.3607C25.0038 73.3607 25.7304 73.2594 26.393 73.0567C27.0812 72.8538 27.6675 72.5244 28.1517 72.068C28.636 71.5864 29.0057 70.9907 29.2606 70.2811C29.541 69.546 29.6811 68.6715 29.6811 67.6576Z" fill="#FAFAFA"/>
<path d="M41.0529 48.1911C41.8431 48.1911 42.493 48.4319 43.0028 48.9135C43.5381 49.395 43.8057 50.054 43.8057 50.8905C43.8057 51.7016 43.5381 52.348 43.0028 52.8296C42.493 53.3112 41.8431 53.552 41.0529 53.552C40.2117 53.552 39.5362 53.3112 39.0264 52.8296C38.5166 52.348 38.2617 51.7016 38.2617 50.8905C38.2617 50.054 38.5166 49.395 39.0264 48.9135C39.5362 48.4319 40.2117 48.1911 41.0529 48.1911ZM38.8353 76.5545V56.5176H43.1939V76.5545H38.8353Z" fill="#FAFAFA"/>
<path d="M77.8361 56.1754C79.4419 56.1754 80.8565 56.4289 82.0801 56.9358C83.3035 57.4427 84.3359 58.1524 85.1771 59.065C86.0438 59.9522 86.6936 61.0295 87.1269 62.2968C87.5603 63.5641 87.777 64.9708 87.777 66.5171C87.777 68.0886 87.5603 69.508 87.1269 70.7753C86.7191 72.0175 86.0946 73.0945 85.2536 74.0071C84.4124 74.9195 83.3673 75.6167 82.1182 76.0983C80.8948 76.5798 79.4674 76.8206 77.8361 76.8206C76.2302 76.8206 74.8155 76.5798 73.592 76.0983C72.3686 75.5913 71.3361 74.8942 70.4951 74.0071C69.6794 73.0945 69.0548 72.0048 68.6216 70.7373C68.2136 69.4699 68.0098 68.0633 68.0098 66.5171C68.0098 64.9708 68.2136 63.5641 68.6216 62.2968C69.0548 61.0295 69.6922 59.9522 70.5332 59.065C71.3744 58.1524 72.4067 57.4427 73.6303 56.9358C74.8537 56.4289 76.2557 56.1754 77.8361 56.1754ZM77.8361 73.0567C78.8301 73.0567 79.6713 72.8918 80.3595 72.5623C81.0731 72.2075 81.6467 71.7386 82.0801 71.1556C82.5389 70.5726 82.8703 69.8883 83.0742 69.1025C83.3035 68.3167 83.4183 67.4676 83.4183 66.555C83.4183 65.6426 83.3035 64.7934 83.0742 64.0076C82.8703 63.1965 82.5389 62.4995 82.0801 61.9165C81.6467 61.3335 81.0731 60.8773 80.3595 60.5477C79.6713 60.2183 78.8301 60.0535 77.8361 60.0535C76.8673 60.0535 76.0391 60.2183 75.3508 60.5477C74.6626 60.8773 74.0891 61.3335 73.6303 61.9165C73.1715 62.4995 72.8274 63.1965 72.598 64.0076C72.3939 64.7934 72.2921 65.6426 72.2921 66.555C72.2921 67.4676 72.3939 68.3167 72.598 69.1025C72.8274 69.8883 73.1588 70.5726 73.592 71.1556C74.0508 71.7386 74.6243 72.2075 75.3125 72.5623C76.0263 72.8918 76.8673 73.0567 77.8361 73.0567Z" fill="#FAFAFA"/>
<path d="M55.6941 64.692H52.5588V50.4689H48.2383V76.5545H52.5588V68.4561H55.9617L61.2761 76.5545H66.3231L59.4409 66.0608L65.7878 56.5176H60.8939L55.6941 64.692Z" fill="#FAFAFA"/>
<path d="M13.2756 56.4608H8.11456V50.4689H6.78092L0.508789 58.9429V60.0388H3.7296V69.9559C3.7296 72.2968 4.25995 73.982 5.32061 75.0109C6.40715 76.04 8.20512 76.5545 10.7145 76.5545H13.1204V72.7728H11.1026C9.93841 72.7728 9.14938 72.4898 8.73545 71.9238C8.32154 71.358 8.11456 70.4961 8.11456 69.3384V60.0388H13.2756V56.4608Z" fill="#FAFAFA"/>
</g>
<defs>
<clipPath id="clip0_646_1300">
<rect width="88" height="77" fill="white"/>
</clipPath>
</defs>
</svg>
