<svg width="207" height="64" viewBox="0 0 207 64" fill="none" xmlns="http://www.w3.org/2000/svg">
<path d="M81.3535 29.2796H90.2025C92.9898 29.2796 95.1008 26.9252 95.1008 23.8402C95.1008 20.6739 92.6922 19.5102 91.2582 19.4292V19.2669C92.6382 19.1046 94.4512 18.0762 94.4512 15.2617C94.4512 12.312 92.5028 10.3906 89.3908 10.3906H81.3535V29.2796ZM83.9785 20.7012H89.4178C91.2038 20.7012 92.2865 21.6212 92.2865 23.3802V24.3272C92.2865 26.0862 91.2038 27.0066 89.4178 27.0066H83.9785V20.7012ZM83.9785 12.6638H88.9849C90.6355 12.6638 91.6369 13.5568 91.6369 15.1264V16.0196C91.6369 17.5889 90.6355 18.4819 88.9849 18.4819H83.9785V12.6638Z" fill="white"/>
<path d="M102.9 29.2794V27.1414H100.898V9.25391H98.3809V26.7084C98.3809 28.2511 99.2742 29.2794 101.006 29.2794H102.9Z" fill="white"/>
<path d="M110.757 29.6038C114.572 29.6038 117.143 26.7355 117.143 22.2701C117.143 17.8051 114.572 14.9365 110.757 14.9365C106.941 14.9365 104.37 17.8051 104.37 22.2701C104.37 26.7355 106.941 29.6038 110.757 29.6038ZM110.757 27.4388C108.565 27.4388 107.049 26.0588 107.049 23.3255V21.2148C107.049 18.4815 108.565 17.1015 110.757 17.1015C112.949 17.1015 114.464 18.4815 114.464 21.2148V23.3255C114.464 26.0588 112.949 27.4388 110.757 27.4388Z" fill="white"/>
<path d="M125.331 29.6038C128.01 29.6038 129.85 28.3048 130.743 26.1941L128.903 25.0575C128.199 26.5731 127.035 27.4388 125.331 27.4388C122.922 27.4388 121.704 25.7881 121.704 23.4881V21.0525C121.704 18.7521 122.922 17.1015 125.331 17.1015C126.954 17.1015 128.091 17.9405 128.551 19.3205L130.635 18.2921C129.823 16.2895 128.091 14.9365 125.331 14.9365C121.325 14.9365 119.025 17.7781 119.025 22.2701C119.025 26.7625 121.325 29.6038 125.331 29.6038Z" fill="white"/>
<path d="M133.147 29.2794H135.664V24.4354L137.667 22.2974L142.051 29.2794H145.082L139.453 20.6737L144.432 15.2616H141.455L137.802 19.2667L135.799 21.7294H135.664V9.25391H133.147V29.2794Z" fill="white"/>
<path d="M151.943 29.6038C154.622 29.6038 156.462 28.3048 157.355 26.1941L155.515 25.0575C154.812 26.5731 153.648 27.4388 151.943 27.4388C149.535 27.4388 148.317 25.7881 148.317 23.4881V21.0525C148.317 18.7521 149.535 17.1015 151.943 17.1015C153.567 17.1015 154.703 17.9405 155.163 19.3205L157.247 18.2921C156.435 16.2895 154.703 14.9365 151.943 14.9365C147.938 14.9365 145.638 17.7781 145.638 22.2701C145.638 26.7625 147.938 29.6038 151.943 29.6038Z" fill="white"/>
<path d="M159.761 29.2794H162.277V19.6727C162.277 17.9677 163.874 17.1287 165.525 17.1287C167.5 17.1287 168.475 18.3464 168.475 20.7011V29.2794H170.991V20.3221C170.991 16.9124 169.232 14.9368 166.364 14.9368C164.253 14.9368 163.062 16.0194 162.413 17.5617H162.277V9.25391H159.761V29.2794Z" fill="white"/>
<path d="M186.369 29.2791V27.1411H184.8V19.7535C184.8 16.7225 182.797 14.9365 179.306 14.9365C176.708 14.9365 175.057 16.1545 174.218 17.6698L175.734 19.0498C176.465 17.8591 177.52 17.0475 179.171 17.0475C181.282 17.0475 182.283 18.1028 182.283 19.9701V21.2418H179.631C175.626 21.2418 173.65 22.7031 173.65 25.4095C173.65 27.9801 175.355 29.6038 178.278 29.6038C180.28 29.6038 181.769 28.6838 182.337 26.9518H182.472C182.662 28.3048 183.392 29.2791 184.935 29.2791H186.369ZM178.846 27.5741C177.276 27.5741 176.275 26.8435 176.275 25.5448V25.0035C176.275 23.7045 177.303 23.0008 179.604 23.0008H182.283V25.1658C182.283 26.5731 180.821 27.5741 178.846 27.5741Z" fill="white"/>
<path d="M190.104 12.3388C191.16 12.3388 191.62 11.7706 191.62 10.9587V10.5798C191.62 9.76801 191.16 9.19971 190.104 9.19971C189.049 9.19971 188.589 9.76801 188.589 10.5798V10.9587C188.589 11.7706 189.049 12.3388 190.104 12.3388ZM188.832 29.2793H191.349V15.2615H188.832V29.2793Z" fill="white"/>
<path d="M197.758 29.2791V19.6725C197.758 17.9675 199.355 17.1285 201.005 17.1285C202.981 17.1285 203.955 18.3461 203.955 20.7008V29.2791H206.472V20.3218C206.472 16.9121 204.713 14.9365 201.844 14.9365C199.733 14.9365 198.543 16.0191 197.893 17.5615H197.758V15.2613H195.241V29.2791H197.758Z" fill="white"/>
<path d="M88.2003 56.7603C91.3933 56.7603 93.6936 55.1093 94.9113 52.4033L92.8006 51.1313C92.0969 53.0797 90.5276 54.4057 88.2003 54.4057C85.1153 54.4057 83.2479 52.1057 83.2479 48.4253V45.5567C83.2479 41.8763 85.1153 39.576 88.2003 39.576C90.4733 39.576 91.9346 40.794 92.6383 42.661L94.8033 41.4163C93.5853 38.71 91.3933 37.2217 88.2003 37.2217C83.3833 37.2217 80.4336 40.6857 80.4336 46.991C80.4336 53.2963 83.3833 56.7603 88.2003 56.7603Z" fill="white"/>
<path d="M109.198 56.4356V54.2979H107.629V46.9099C107.629 43.8793 105.626 42.0933 102.135 42.0933C99.5375 42.0933 97.8868 43.3109 97.0478 44.8263L98.5635 46.2066C99.2942 45.0156 100.349 44.2039 102 44.2039C104.111 44.2039 105.112 45.2593 105.112 47.1266V48.3986H102.46C98.4552 48.3986 96.4795 49.8596 96.4795 52.5659C96.4795 55.1366 98.1845 56.7606 101.107 56.7606C103.11 56.7606 104.598 55.8403 105.166 54.1083H105.302C105.491 55.4616 106.222 56.4356 107.764 56.4356H109.198ZM101.675 54.7309C100.106 54.7309 99.1045 54.0003 99.1045 52.7013V52.1599C99.1045 50.8609 100.133 50.1576 102.433 50.1576H105.112V52.3223C105.112 53.7296 103.651 54.7309 101.675 54.7309Z" fill="white"/>
<path d="M111.661 61.8479H114.178V54.1356H114.286C114.935 55.8673 116.397 56.7606 118.318 56.7606C121.836 56.7606 123.947 53.9733 123.947 49.4269C123.947 44.8806 121.836 42.0933 118.318 42.0933C116.397 42.0933 114.935 42.9863 114.286 44.7179H114.178V42.4179H111.661V61.8479ZM117.588 54.5686C115.693 54.5686 114.178 53.4859 114.178 51.9976V46.8559C114.178 45.3676 115.693 44.2849 117.588 44.2849C119.834 44.2849 121.268 45.8816 121.268 48.2359V50.6176C121.268 52.9719 119.834 54.5686 117.588 54.5686Z" fill="white"/>
<path d="M128.222 39.4953C129.278 39.4953 129.738 38.927 129.738 38.115V37.7363C129.738 36.9243 129.278 36.356 128.222 36.356C127.167 36.356 126.707 36.9243 126.707 37.7363V38.115C126.707 38.927 127.167 39.4953 128.222 39.4953ZM126.95 56.4356H129.467V42.418H126.95V56.4356Z" fill="white"/>
<path d="M139.448 56.4355V54.2979H136.661V44.5555H139.665V42.4179H136.661V38.5479H134.388V41.1189C134.388 42.0659 134.09 42.4179 133.143 42.4179H131.898V44.5555H134.144V53.7835C134.144 55.4072 135.064 56.4355 136.796 56.4355H139.448Z" fill="white"/>
<path d="M154.127 56.4356V54.2979H152.558V46.9099C152.558 43.8793 150.555 42.0933 147.064 42.0933C144.466 42.0933 142.815 43.3109 141.977 44.8263L143.492 46.2066C144.223 45.0156 145.278 44.2039 146.929 44.2039C149.04 44.2039 150.041 45.2593 150.041 47.1266V48.3986H147.389C143.384 48.3986 141.408 49.8596 141.408 52.5659C141.408 55.1366 143.113 56.7606 146.036 56.7606C148.038 56.7606 149.527 55.8403 150.095 54.1083H150.23C150.42 55.4616 151.15 56.4356 152.693 56.4356H154.127ZM146.604 54.7309C145.034 54.7309 144.033 54.0003 144.033 52.7013V52.1599C144.033 50.8609 145.062 50.1576 147.362 50.1576H150.041V52.3223C150.041 53.7296 148.58 54.7309 146.604 54.7309Z" fill="white"/>
<path d="M161.109 56.4355V54.2978H159.107V36.4102H156.59V53.8648C156.59 55.4072 157.483 56.4355 159.215 56.4355H161.109Z" fill="white"/>
<mask id="mask0_65_924" style="mask-type:luminance" maskUnits="userSpaceOnUse" x="0" y="0" width="62" height="64">
<path d="M61.9743 0.979492H0V63.0208H61.9743V0.979492Z" fill="white"/>
</mask>
<g mask="url(#mask0_65_924)">
<path d="M27.7956 50.6303C27.3626 50.8563 26.834 50.6843 26.6176 50.2516L24.211 45.6003C23.9846 45.1673 24.1566 44.639 24.5896 44.4256L28.6806 42.3086C29.155 42.0603 29.3076 41.4456 28.983 41.0126L24.3636 34.7316C24.039 34.2986 23.415 34.2573 23.036 34.633L19.7983 37.9153C19.464 38.259 18.904 38.259 18.557 37.9153L14.832 34.235C14.4883 33.9006 14.4883 33.3403 14.832 32.9933L18.5123 29.2686C18.8466 28.925 19.407 28.925 19.754 29.2686L23.036 32.5063C23.415 32.8853 24.0516 32.831 24.3636 32.398L28.9193 26.0533C29.2313 25.6203 29.0816 25.006 28.6073 24.7576L24.4846 22.685C24.0516 22.4686 23.8796 21.94 24.0963 21.507L26.449 16.824C26.6653 16.3913 27.194 16.2193 27.6266 16.4356L32.3096 18.7883C32.7426 19.005 32.9146 19.5333 32.6983 19.9663L30.6256 24.089C30.387 24.576 30.6256 25.146 31.1446 25.318L38.5813 27.68C39.0876 27.8423 39.6286 27.508 39.7146 26.9796L40.4056 22.424C40.482 21.9496 40.9246 21.6153 41.399 21.6886L46.5786 22.475C47.053 22.5513 47.387 22.994 47.314 23.4683L46.5276 28.648C46.4513 29.1223 46.0086 29.4566 45.5343 29.3833L40.9786 28.6923C40.4503 28.6063 39.963 29.0266 39.9756 29.568L40.0203 37.3706C40.0203 37.912 40.5073 38.3196 41.036 38.224L45.579 37.479C46.0533 37.4026 46.5083 37.7273 46.5816 38.2016L47.435 43.372C47.5113 43.8463 47.1866 44.3013 46.7123 44.3746L41.542 45.228C41.0676 45.3043 40.6126 44.9796 40.5393 44.5053L39.7943 39.9623C39.7083 39.4336 39.1673 39.109 38.661 39.2713L31.256 41.7226C30.75 41.8946 30.511 42.4773 30.75 42.9516L32.8636 47.0423C33.0896 47.4753 32.918 48.004 32.485 48.2203L27.802 50.6273L27.7956 50.6303Z" fill="white"/>
<path d="M49.2186 50.4356L52.6059 50.5183C53.0899 50.5313 53.4879 50.1489 53.5006 49.6653L53.5832 46.2779C53.5959 45.7939 53.2139 45.3929 52.7302 45.3833L49.3429 45.3006C48.8589 45.2879 48.4609 45.6699 48.4482 46.1536L48.3656 49.5409C48.3526 50.0249 48.7349 50.4229 49.2186 50.4356Z" fill="white"/>
<path d="M53.6374 53.387L52.991 55.3796C52.8797 55.7266 53.0674 56.096 53.4144 56.2106L55.4044 56.86C55.7514 56.9716 56.1207 56.7836 56.235 56.4366L56.8814 54.447C56.9927 54.1 56.805 53.7306 56.458 53.616L54.4684 52.9666C54.1214 52.8553 53.752 53.043 53.6374 53.39V53.387Z" fill="white"/>
<path d="M21.6392 54.5485L22.6069 57.7959C22.7439 58.2576 23.2309 58.5219 23.6959 58.3849L26.9429 57.4169C27.4045 57.2802 27.6689 56.7929 27.5319 56.3282L26.5642 53.0809C26.4272 52.6195 25.9402 52.3552 25.4755 52.4922L22.2282 53.4599C21.7665 53.5969 21.5022 54.0839 21.6392 54.5485Z" fill="white"/>
<path d="M20.2322 59.6104H18.1375C17.7745 59.6104 17.4785 59.9064 17.4785 60.2694V62.364C17.4785 62.727 17.7745 63.023 18.1375 63.023H20.2322C20.5952 63.023 20.8912 62.727 20.8912 62.364V60.2694C20.8912 59.9064 20.5952 59.6104 20.2322 59.6104Z" fill="white"/>
<path d="M9.21374 29.5863L6.42474 31.5123C6.02708 31.7863 5.92841 32.3307 6.20208 32.7287L8.12808 35.5173C8.40174 35.9153 8.94641 36.014 9.34407 35.7403L12.1331 33.8143C12.5311 33.5403 12.6297 32.996 12.3557 32.598L10.4297 29.8093C10.1561 29.4113 9.61174 29.3127 9.21374 29.5863Z" fill="white"/>
<path d="M3.92266 29.7967L3.27633 27.8037C3.16496 27.4567 2.79246 27.2687 2.44546 27.3803L0.452557 28.0263C0.105557 28.138 -0.0822744 28.5103 0.029159 28.8573L0.675392 30.8503C0.786825 31.1973 1.15929 31.385 1.50632 31.2737L3.49933 30.6273C3.84633 30.516 4.03399 30.1437 3.92266 29.7967Z" fill="white"/>
<path d="M29.1135 10.0584L26.4201 8.00184C26.0351 7.70897 25.4875 7.78217 25.1945 8.16421L23.1381 10.8575C22.8451 11.2427 22.9185 11.7903 23.3005 12.0832L25.9938 14.1397C26.3788 14.4326 26.9265 14.3594 27.2195 13.9774L29.2758 11.2841C29.5688 10.8989 29.4955 10.3513 29.1105 10.0584H29.1135Z" fill="white"/>
<path d="M27.27 5.09541L28.9637 3.86654C29.2564 3.65324 29.3234 3.24257 29.11 2.94651L27.8814 1.25284C27.668 0.959972 27.2574 0.893106 26.961 1.10641L25.2674 2.33527C24.9747 2.54857 24.9077 2.95924 25.121 3.25531L26.35 4.94897C26.5634 5.24184 26.974 5.30871 27.27 5.09541Z" fill="white"/>
<path d="M53.84 22.9455L54.9637 19.7492C55.123 19.2942 54.8843 18.7941 54.429 18.6351L51.2327 17.5111C50.7773 17.3521 50.2777 17.5908 50.1183 18.0462L48.9947 21.2425C48.8353 21.6975 49.0743 22.1975 49.5293 22.3565L52.7257 23.4805C53.181 23.6395 53.6807 23.4008 53.84 22.9455Z" fill="white"/>
<path d="M58.0047 19.6535L59.6983 20.8855C59.9913 21.0988 60.405 21.0351 60.6183 20.7391L61.8503 19.0455C62.0637 18.7525 62 18.3388 61.704 18.1255L60.0103 16.8935C59.7173 16.6801 59.3037 16.7438 59.0903 17.0398L57.8583 18.7335C57.645 19.0265 57.7087 19.4401 58.0047 19.6535Z" fill="white"/>
</g>
</svg>
