<svg width="229" height="113" viewBox="0 0 229 113" fill="none" xmlns="http://www.w3.org/2000/svg">
<mask id="path-1-outside-1_832_2789" maskUnits="userSpaceOnUse" x="-1" y="-1" width="231" height="115" fill="black">
<rect fill="white" x="-1" y="-1" width="231" height="115"/>
<path d="M0.155 76.505H14.015C15.005 86.405 16.655 90.2 20.45 93.665C24.575 97.295 30.515 99.275 37.28 99.275C51.305 99.275 60.38 91.025 60.38 78.155C60.38 66.44 51.635 59.015 37.61 59.015C34.805 59.015 32.66 59.015 29.69 59.18V47.3C32.165 47.465 34.64 47.63 36.455 47.63C48.995 47.63 56.255 41.36 56.255 30.965C56.255 20.24 48.83 13.31 37.115 13.31C30.185 13.31 23.585 16.28 19.955 21.23C17.315 24.695 16.325 28.655 15.83 36.575H2.465V34.595C2.465 14.3 16.16 0.76999 37.28 0.76999C56.915 0.76999 70.61 12.65 70.61 29.48C70.61 40.04 66.32 46.64 56.585 51.425C68.96 55.715 75.065 64.295 75.065 77C75.065 97.625 59.225 112.145 36.62 112.145C22.76 112.145 11.54 106.865 5.6 97.46C1.97 91.685 0.485 85.58 0.155 76.505ZM116.416 0.76999C129.121 0.76999 139.516 7.04 145.951 18.26C150.241 26.18 153.046 41.36 153.046 56.705C153.046 92.51 140.341 111.815 116.251 111.815C103.546 111.815 93.1505 105.71 86.8805 94.325C82.5905 86.405 79.7855 71.39 79.7855 56.21C79.7855 20.075 92.4905 0.76999 116.416 0.76999ZM116.581 12.815C101.566 12.815 94.1405 27.17 94.1405 55.715C94.1405 72.05 96.4505 84.26 100.411 90.53C104.371 96.47 109.981 99.77 116.251 99.77C131.101 99.77 138.691 85.415 138.691 56.705C138.691 39.38 136.216 27.005 131.431 20.9C127.306 15.62 122.191 12.815 116.581 12.815ZM175.671 92.5H171.371C171.271 90.95 171.121 90.45 170.571 89.8C169.721 88.85 168.171 88.35 165.821 88.35C163.021 88.35 161.021 89.75 161.021 91.9C161.021 92.6 161.421 93.3 161.921 93.6C162.271 93.85 162.721 94 163.321 94.2L166.971 95.15C169.821 95.9 171.971 96.5 172.821 96.9C175.121 98.05 176.321 99.95 176.321 102.55C176.321 107.6 172.271 110.9 166.121 110.9C159.571 110.9 155.971 107.75 155.971 102.1H160.171C160.221 103.9 160.471 104.65 161.171 105.4C162.171 106.4 164.221 107.05 166.571 107.05C169.771 107.05 171.921 105.55 171.921 103.25C171.921 102 171.321 101.15 169.871 100.55C169.421 100.35 168.971 100.2 167.671 99.9C166.871 99.65 165.771 99.45 164.821 99.2C161.471 98.4 159.921 97.8 158.721 96.85C157.421 95.85 156.721 94.15 156.721 92.35C156.721 90.45 157.471 88.65 158.921 87.25C160.621 85.5 162.871 84.7 166.121 84.7C172.021 84.7 175.671 87.7 175.671 92.5ZM194.915 102.05H199.415C199.265 104.1 198.465 106.05 197.015 107.7C195.265 109.75 192.265 110.9 188.765 110.9C181.815 110.9 177.465 106.05 177.465 98.2C177.465 94.2 178.315 91.3 180.065 89C182.115 86.25 185.165 84.75 188.765 84.75C192.865 84.75 196.065 86.6 197.915 89.95C199.015 92.05 199.665 94.55 199.665 97.05V99H181.965C182.115 101.55 182.515 103.05 183.515 104.45C184.665 106.2 186.715 107.2 188.915 107.2C190.815 107.2 192.565 106.5 193.565 105.2C194.265 104.45 194.515 103.65 194.915 102.05ZM181.965 95.65H195.265C195.065 91.25 192.465 88.45 188.615 88.45C184.865 88.45 182.265 91.25 181.965 95.65ZM218.145 101.3H222.445C222.095 107.3 218.445 110.95 212.845 110.95C208.445 110.95 204.845 109 202.995 105.65C201.895 103.7 201.195 100.8 201.195 98.25C201.195 94.15 202.095 91.2 203.995 88.7C206.095 86.05 208.895 84.7 212.495 84.7C218.345 84.7 221.945 87.9 222.245 93.4H217.845C217.545 90.25 215.595 88.45 212.495 88.45C210.045 88.45 207.895 89.7 206.745 91.75C205.895 93.25 205.495 95.4 205.495 98.45C205.495 103.75 208.195 107.15 212.495 107.15C215.895 107.15 217.745 105.2 218.145 101.3ZM223.753 110V105.15H228.403V110H223.753Z"/>
</mask>
<path d="M0.155 76.505V75.505H-0.882025L-0.844339 76.5413L0.155 76.505ZM14.015 76.505L15.01 76.4055L14.92 75.505H14.015V76.505ZM20.45 93.665L19.7757 94.4035L19.7825 94.4097L19.7894 94.4157L20.45 93.665ZM29.69 59.18H28.69V60.2371L29.7455 60.1785L29.69 59.18ZM29.69 47.3L29.7565 46.3022L28.69 46.2311V47.3H29.69ZM19.955 21.23L20.7504 21.836L20.756 21.8287L20.7614 21.8214L19.955 21.23ZM15.83 36.575V37.575H16.7695L16.8281 36.6374L15.83 36.575ZM2.465 36.575H1.465V37.575H2.465V36.575ZM56.585 51.425L56.1439 50.5275L53.9929 51.5848L56.2575 52.3698L56.585 51.425ZM5.6 97.46L4.75336 97.9922L4.75451 97.994L5.6 97.46ZM0.155 77.505H14.015V75.505H0.155V77.505ZM13.02 76.6045C13.5177 81.5815 14.1881 85.1119 15.2477 87.8581C16.3211 90.6403 17.7793 92.5807 19.7757 94.4035L21.1243 92.9265C19.3257 91.2843 18.0614 89.5947 17.1136 87.1382C16.1519 84.6456 15.5023 81.3285 15.01 76.4055L13.02 76.6045ZM19.7894 94.4157C24.1366 98.2412 30.3304 100.275 37.28 100.275V98.275C30.6996 98.275 25.0134 96.3487 21.1106 92.9143L19.7894 94.4157ZM37.28 100.275C44.4857 100.275 50.5197 98.1537 54.7636 94.2798C59.0169 90.3973 61.38 84.8369 61.38 78.155H59.38C59.38 84.3431 57.2056 89.3427 53.4152 92.8027C49.6153 96.2713 44.0993 98.275 37.28 98.275V100.275ZM61.38 78.155C61.38 72.0295 59.0834 66.9545 54.8989 63.4273C50.7332 59.9159 44.7903 58.015 37.61 58.015V60.015C44.4547 60.015 49.8968 61.8266 53.6099 64.9565C57.3041 68.0705 59.38 72.5655 59.38 78.155H61.38ZM37.61 58.015C34.8047 58.015 32.635 58.0148 29.6345 58.1815L29.7455 60.1785C32.685 60.0152 34.8053 60.015 37.61 60.015V58.015ZM30.69 59.18V47.3H28.69V59.18H30.69ZM29.6235 48.2978C32.0855 48.4619 34.599 48.63 36.455 48.63V46.63C34.681 46.63 32.2445 46.4681 29.7565 46.3022L29.6235 48.2978ZM36.455 48.63C42.88 48.63 48.087 47.0241 51.7041 43.9585C55.343 40.8743 57.255 36.4113 57.255 30.965H55.255C55.255 35.9137 53.537 39.7832 50.4109 42.4328C47.263 45.1008 42.57 46.63 36.455 46.63V48.63ZM57.255 30.965C57.255 25.3615 55.3086 20.6682 51.7574 17.3817C48.2141 14.1025 43.1676 12.31 37.115 12.31V14.31C42.7774 14.31 47.3009 15.9825 50.3989 18.8495C53.4889 21.7093 55.255 25.8435 55.255 30.965H57.255ZM37.115 12.31C29.9274 12.31 23.0003 15.3863 19.1486 20.6386L20.7614 21.8214C24.1697 17.1737 30.4426 14.31 37.115 14.31V12.31ZM19.1596 20.6239C16.3307 24.3369 15.3294 28.5529 14.8319 36.5126L16.8281 36.6374C17.3206 28.757 18.2993 25.0531 20.7504 21.836L19.1596 20.6239ZM15.83 35.575H2.465V37.575H15.83V35.575ZM3.465 36.575V34.595H1.465V36.575H3.465ZM3.465 34.595C3.465 24.6788 6.80573 16.4936 12.651 10.7874C18.4983 5.07937 26.9364 1.76999 37.28 1.76999V-0.23001C26.5036 -0.23001 17.5342 3.22561 11.254 9.35629C4.97178 15.4889 1.465 24.2162 1.465 34.595H3.465ZM37.28 1.76999C46.8989 1.76999 54.9872 4.67879 60.6547 9.57074C66.312 14.4539 69.61 21.3547 69.61 29.48H71.61C71.61 20.7753 68.0605 13.3211 61.9615 8.05674C55.8728 2.8012 47.2961 -0.23001 37.28 -0.23001V1.76999ZM69.61 29.48C69.61 34.6217 68.5671 38.7107 66.4065 42.0781C64.2435 45.4492 60.9015 48.1891 56.1439 50.5275L57.0261 52.3224C62.0035 49.8759 65.674 46.9233 68.0898 43.1581C70.5079 39.3893 71.61 34.8982 71.61 29.48H69.61ZM56.2575 52.3698C62.2965 54.4634 66.727 57.5747 69.654 61.6411C72.5802 65.7062 74.065 70.8109 74.065 77H76.065C76.065 70.4841 74.4973 64.9462 71.2772 60.4727C68.058 56.0003 63.2485 52.6766 56.9125 50.4802L56.2575 52.3698ZM74.065 77C74.065 87.0431 70.2147 95.5579 63.6444 101.569C57.0677 107.586 47.7081 111.145 36.62 111.145V113.145C48.1369 113.145 57.9998 109.444 64.9944 103.045C71.9953 96.6396 76.065 87.5819 76.065 77H74.065ZM36.62 111.145C23.0031 111.145 12.1546 105.965 6.44549 96.926L4.75451 97.994C10.9254 107.765 22.5169 113.145 36.62 113.145V111.145ZM6.44664 96.9278C2.9424 91.3529 1.48057 85.44 1.15434 76.4687L-0.844339 76.5413C-0.510571 85.72 0.997598 92.0171 4.75336 97.9922L6.44664 96.9278ZM145.951 18.26L146.83 17.7837L146.824 17.773L146.818 17.7625L145.951 18.26ZM86.8805 94.325L86.0012 94.8013L86.0046 94.8074L86.8805 94.325ZM100.411 90.53L99.5651 91.064L99.5716 91.0744L99.5785 91.0847L100.411 90.53ZM131.431 20.9L130.643 21.5156L130.643 21.5169L131.431 20.9ZM116.416 1.76999C128.744 1.76999 138.817 7.83247 145.083 18.7575L146.818 17.7625C140.214 6.24752 129.497 -0.23001 116.416 -0.23001V1.76999ZM145.071 18.7363C149.245 26.441 152.046 41.4244 152.046 56.705H154.046C154.046 41.2956 151.236 25.919 146.83 17.7837L145.071 18.7363ZM152.046 56.705C152.046 74.5163 148.881 88.0655 142.849 97.133C136.859 106.138 127.983 110.815 116.251 110.815V112.815C128.608 112.815 138.13 107.839 144.514 98.2407C150.858 88.7045 154.046 74.6987 154.046 56.705H152.046ZM116.251 110.815C103.913 110.815 93.852 104.911 87.7565 93.8426L86.0046 94.8074C92.4491 106.509 103.178 112.815 116.251 112.815V110.815ZM87.7598 93.8487C83.5857 86.1425 80.7855 71.3227 80.7855 56.21H78.7855C78.7855 71.4573 81.5954 86.6675 86.0013 94.8013L87.7598 93.8487ZM80.7855 56.21C80.7855 38.2324 83.9507 24.5995 89.9633 15.4902C95.9342 6.44401 104.769 1.76999 116.416 1.76999V-0.23001C104.137 -0.23001 94.6569 4.74847 88.2941 14.3885C81.9729 23.9655 78.7855 38.0526 78.7855 56.21H80.7855ZM116.581 11.815C112.661 11.815 109.19 12.7542 106.202 14.661C103.218 16.5652 100.774 19.3977 98.8433 23.0981C94.9983 30.4694 93.1405 41.3885 93.1405 55.715H95.1405C95.1405 41.4965 96.9953 30.9656 100.617 24.0231C102.419 20.5667 104.646 18.0264 107.278 16.3469C109.905 14.6702 112.993 13.815 116.581 13.815V11.815ZM93.1405 55.715C93.1405 63.926 93.7208 71.1246 94.8068 77.0764C95.89 83.0132 97.4878 87.775 99.5651 91.064L101.256 89.996C99.3733 87.015 97.8361 82.5368 96.7743 76.7174C95.7152 70.9129 95.1405 63.839 95.1405 55.715H93.1405ZM99.5785 91.0847C103.691 97.2539 109.591 100.77 116.251 100.77V98.77C110.37 98.77 105.05 95.6861 101.243 89.9753L99.5785 91.0847ZM116.251 100.77C120.131 100.77 123.582 99.8298 126.561 97.9204C129.536 96.0139 131.985 93.177 133.925 89.4672C137.791 82.076 139.691 71.1162 139.691 56.705H137.691C137.691 71.0038 135.795 81.5765 132.153 88.5403C130.34 92.008 128.107 94.5543 125.482 96.2365C122.862 97.9159 119.795 98.77 116.251 98.77V100.77ZM139.691 56.705C139.691 48.0003 139.069 40.5048 137.835 34.3969C136.604 28.3052 134.748 23.5112 132.218 20.2831L130.643 21.5169C132.898 24.3938 134.672 28.8398 135.875 34.793C137.074 40.7302 137.691 48.0846 137.691 56.705H139.691ZM132.219 20.2844C127.948 14.8175 122.563 11.815 116.581 11.815V13.815C121.818 13.815 126.664 16.4225 130.643 21.5156L132.219 20.2844ZM175.671 92.5V93.5H176.671V92.5H175.671ZM171.371 92.5L170.373 92.5644L170.434 93.5H171.371V92.5ZM170.571 89.8L171.334 89.1541L171.326 89.1435L171.316 89.1332L170.571 89.8ZM161.921 93.6L162.502 92.7863L162.47 92.7631L162.436 92.7425L161.921 93.6ZM163.321 94.2L163.005 95.1487L163.037 95.1593L163.069 95.1678L163.321 94.2ZM166.971 95.15L167.226 94.1829L167.223 94.1822L166.971 95.15ZM172.821 96.9L173.268 96.0056L173.258 96.0002L173.247 95.9952L172.821 96.9ZM155.971 102.1V101.1H154.971V102.1H155.971ZM160.171 102.1L161.171 102.072L161.144 101.1H160.171V102.1ZM161.171 105.4L160.44 106.082L160.452 106.095L160.464 106.107L161.171 105.4ZM169.871 100.55L169.465 101.464L169.477 101.469L169.489 101.474L169.871 100.55ZM167.671 99.9L167.373 100.854L167.409 100.866L167.446 100.874L167.671 99.9ZM164.821 99.2L165.076 98.2329L165.065 98.23L165.053 98.2273L164.821 99.2ZM158.721 96.85L159.342 96.0659L159.331 96.0574L158.721 96.85ZM158.921 87.25L159.616 87.9694L159.627 87.9583L159.638 87.9468L158.921 87.25ZM175.671 91.5H171.371V93.5H175.671V91.5ZM172.369 92.4356C172.319 91.656 172.252 91.0449 172.098 90.5279C171.932 89.9654 171.676 89.558 171.334 89.1541L169.808 90.4459C170.016 90.692 170.111 90.8596 170.181 91.0971C170.265 91.3801 170.323 91.794 170.373 92.5644L172.369 92.4356ZM171.316 89.1332C170.176 87.8582 168.257 87.35 165.821 87.35V89.35C168.085 89.35 169.267 89.8418 169.826 90.4668L171.316 89.1332ZM165.821 87.35C164.266 87.35 162.844 87.7373 161.783 88.5103C160.698 89.3 160.021 90.4771 160.021 91.9H162.021C162.021 91.1729 162.345 90.575 162.96 90.1272C163.598 89.6627 164.576 89.35 165.821 89.35V87.35ZM160.021 91.9C160.021 92.922 160.581 93.9622 161.407 94.4575L162.436 92.7425C162.261 92.6378 162.021 92.278 162.021 91.9H160.021ZM161.34 94.4137C161.838 94.7697 162.451 94.9642 163.005 95.1487L163.637 93.2513C162.991 93.0358 162.704 92.9303 162.502 92.7863L161.34 94.4137ZM163.069 95.1678L166.719 96.1178L167.223 94.1822L163.573 93.2322L163.069 95.1678ZM166.717 96.1171C168.14 96.4917 169.379 96.8262 170.364 97.1157C171.371 97.4113 172.05 97.6422 172.395 97.8048L173.247 95.9952C172.742 95.7578 171.922 95.4887 170.928 95.1968C169.913 94.8988 168.652 94.5583 167.226 94.1829L166.717 96.1171ZM172.374 97.7944C173.386 98.3005 174.11 98.9468 174.585 99.7097C175.059 100.472 175.321 101.408 175.321 102.55H177.321C177.321 101.092 176.983 99.7779 176.283 98.6528C175.582 97.5282 174.556 96.6495 173.268 96.0056L172.374 97.7944ZM175.321 102.55C175.321 104.784 174.436 106.584 172.894 107.845C171.333 109.121 169.026 109.9 166.121 109.9V111.9C169.367 111.9 172.159 111.029 174.16 109.393C176.181 107.741 177.321 105.366 177.321 102.55H175.321ZM166.121 109.9C162.992 109.9 160.722 109.147 159.246 107.864C157.792 106.6 156.971 104.703 156.971 102.1H154.971C154.971 105.147 155.95 107.65 157.934 109.374C159.896 111.078 162.7 111.9 166.121 111.9V109.9ZM155.971 103.1H160.171V101.1H155.971V103.1ZM159.171 102.128C159.197 103.056 159.275 103.801 159.472 104.439C159.679 105.11 160.003 105.614 160.44 106.082L161.902 104.718C161.639 104.436 161.488 104.19 161.383 103.849C161.267 103.474 161.195 102.944 161.171 102.072L159.171 102.128ZM160.464 106.107C161.736 107.379 164.105 108.05 166.571 108.05V106.05C164.337 106.05 162.606 105.421 161.878 104.693L160.464 106.107ZM166.571 108.05C168.314 108.05 169.871 107.643 171.023 106.829C172.202 105.996 172.921 104.753 172.921 103.25H170.921C170.921 104.047 170.565 104.704 169.869 105.196C169.146 105.707 168.029 106.05 166.571 106.05V108.05ZM172.921 103.25C172.921 102.455 172.726 101.708 172.241 101.058C171.767 100.423 171.081 99.9683 170.253 99.626L169.489 101.474C170.112 101.732 170.45 102.002 170.638 102.254C170.816 102.492 170.921 102.795 170.921 103.25H172.921ZM170.277 99.6362C169.738 99.3967 169.214 99.2298 167.896 98.9256L167.446 100.874C168.728 101.17 169.104 101.303 169.465 101.464L170.277 99.6362ZM167.969 98.9455C167.527 98.8072 167.016 98.6869 166.524 98.575C166.019 98.4597 165.53 98.3524 165.076 98.2329L164.567 100.167C165.062 100.298 165.598 100.415 166.08 100.525C166.576 100.638 167.015 100.743 167.373 100.854L167.969 98.9455ZM165.053 98.2273C161.712 97.4295 160.355 96.868 159.342 96.066L158.1 97.634C159.487 98.732 161.23 99.3705 164.589 100.173L165.053 98.2273ZM159.331 96.0574C158.329 95.2871 157.721 93.9124 157.721 92.35H155.721C155.721 94.3876 156.513 96.4129 158.111 97.6426L159.331 96.0574ZM157.721 92.35C157.721 90.725 158.358 89.1835 159.616 87.9694L158.226 86.5306C156.584 88.1165 155.721 90.175 155.721 92.35H157.721ZM159.638 87.9468C161.095 86.4478 163.05 85.7 166.121 85.7V83.7C162.693 83.7 160.148 84.5522 158.204 86.5532L159.638 87.9468ZM166.121 85.7C168.912 85.7 171.053 86.4101 172.475 87.574C173.875 88.7192 174.671 90.3757 174.671 92.5H176.671C176.671 89.8243 175.642 87.5808 173.742 86.026C171.864 84.4899 169.23 83.7 166.121 83.7V85.7ZM194.915 102.05V101.05H194.134L193.945 101.807L194.915 102.05ZM199.415 102.05L200.412 102.123L200.491 101.05H199.415V102.05ZM197.015 107.7L196.264 107.04L196.259 107.045L196.254 107.051L197.015 107.7ZM180.065 89L180.861 89.6056L180.867 89.5977L180.065 89ZM197.915 89.95L198.801 89.486L198.796 89.4762L198.79 89.4666L197.915 89.95ZM199.665 99V100H200.665V99H199.665ZM181.965 99V98H180.904L180.967 99.0587L181.965 99ZM183.515 104.45L184.351 103.901L184.34 103.885L184.329 103.869L183.515 104.45ZM193.565 105.2L192.834 104.518L192.801 104.553L192.772 104.59L193.565 105.2ZM181.965 95.65L180.967 95.582L180.894 96.65H181.965V95.65ZM195.265 95.65V96.65H196.311L196.264 95.6046L195.265 95.65ZM194.915 103.05H199.415V101.05H194.915V103.05ZM198.418 101.977C198.284 103.808 197.571 105.552 196.264 107.04L197.766 108.36C199.358 106.548 200.246 104.392 200.412 102.123L198.418 101.977ZM196.254 107.051C194.75 108.813 192.071 109.9 188.765 109.9V111.9C192.458 111.9 195.779 110.687 197.775 108.349L196.254 107.051ZM188.765 109.9C185.535 109.9 182.997 108.781 181.255 106.828C179.502 104.862 178.465 101.946 178.465 98.2H176.465C176.465 102.304 177.603 105.738 179.762 108.159C181.933 110.594 185.044 111.9 188.765 111.9V109.9ZM178.465 98.2C178.465 94.3473 179.281 91.6821 180.861 89.6055L179.269 88.3945C177.349 90.9179 176.465 94.0527 176.465 98.2H178.465ZM180.867 89.5977C182.719 87.1127 185.466 85.75 188.765 85.75V83.75C184.864 83.75 181.511 85.3873 179.263 88.4023L180.867 89.5977ZM188.765 85.75C192.523 85.75 195.376 87.4214 197.039 90.4334L198.79 89.4666C196.754 85.7786 193.206 83.75 188.765 83.75V85.75ZM197.029 90.414C198.056 92.3754 198.665 94.7167 198.665 97.05H200.665C200.665 94.3833 199.973 91.7246 198.801 89.486L197.029 90.414ZM198.665 97.05V99H200.665V97.05H198.665ZM199.665 98H181.965V100H199.665V98ZM180.967 99.0587C181.122 101.695 181.545 103.412 182.701 105.031L184.329 103.869C183.485 102.688 183.108 101.405 182.963 98.9413L180.967 99.0587ZM182.679 104.999C184.037 107.066 186.422 108.2 188.915 108.2V106.2C187.007 106.2 185.293 105.334 184.351 103.901L182.679 104.999ZM188.915 108.2C191.034 108.2 193.118 107.42 194.357 105.81L192.772 104.59C192.011 105.58 190.596 106.2 188.915 106.2V108.2ZM194.296 105.882C195.194 104.92 195.49 103.873 195.885 102.293L193.945 101.807C193.54 103.427 193.335 103.98 192.834 104.518L194.296 105.882ZM181.965 96.65H195.265V94.65H181.965V96.65ZM196.264 95.6046C196.155 93.2217 195.392 91.1796 194.043 89.721C192.683 88.2513 190.797 87.45 188.615 87.45V89.45C190.282 89.45 191.621 90.0487 192.574 91.079C193.538 92.1204 194.174 93.6783 194.266 95.6954L196.264 95.6046ZM188.615 87.45C186.474 87.45 184.616 88.2572 183.262 89.721C181.919 91.1727 181.129 93.2053 180.967 95.582L182.963 95.718C183.1 93.6947 183.761 92.1273 184.73 91.079C185.689 90.0428 187.006 89.45 188.615 89.45V87.45ZM218.145 101.3V100.3H217.243L217.151 101.198L218.145 101.3ZM222.445 101.3L223.444 101.358L223.505 100.3H222.445V101.3ZM202.995 105.65L203.871 105.167L203.866 105.159L202.995 105.65ZM203.995 88.7L203.212 88.0789L203.205 88.0869L203.199 88.0949L203.995 88.7ZM222.245 93.4V94.4H223.301L223.244 93.3455L222.245 93.4ZM217.845 93.4L216.85 93.4948L216.936 94.4H217.845V93.4ZM206.745 91.75L207.615 92.243L207.617 92.2393L206.745 91.75ZM218.145 102.3H222.445V100.3H218.145V102.3ZM221.447 101.242C221.283 104.053 220.354 106.216 218.906 107.669C217.464 109.117 215.42 109.95 212.845 109.95V111.95C215.871 111.95 218.452 110.958 220.323 109.081C222.187 107.209 223.258 104.547 223.444 101.358L221.447 101.242ZM212.845 109.95C208.747 109.95 205.517 108.147 203.871 105.167L202.12 106.133C204.174 109.853 208.143 111.95 212.845 111.95V109.95ZM203.866 105.159C202.863 103.38 202.195 100.655 202.195 98.25H200.195C200.195 100.945 200.928 104.02 202.124 106.141L203.866 105.159ZM202.195 98.25C202.195 94.3134 203.054 91.5918 204.791 89.3051L203.199 88.0949C201.137 90.8082 200.195 93.9866 200.195 98.25H202.195ZM204.779 89.3211C206.682 86.9198 209.189 85.7 212.495 85.7V83.7C208.602 83.7 205.509 85.1802 203.212 88.0789L204.779 89.3211ZM212.495 85.7C215.241 85.7 217.345 86.4492 218.786 87.734C220.22 89.0121 221.108 90.9176 221.247 93.4545L223.244 93.3455C223.082 90.3824 222.021 87.9379 220.117 86.241C218.221 84.5508 215.599 83.7 212.495 83.7V85.7ZM222.245 92.4H217.845V94.4H222.245V92.4ZM218.841 93.3052C218.673 91.5442 218.031 90.0564 216.899 89.0095C215.765 87.9608 214.242 87.45 212.495 87.45V89.45C213.849 89.45 214.851 89.8392 215.541 90.478C216.234 91.1186 216.718 92.1058 216.85 93.4948L218.841 93.3052ZM212.495 87.45C209.695 87.45 207.206 88.8856 205.873 91.2607L207.617 92.2393C208.585 90.5144 210.396 89.45 212.495 89.45V87.45ZM205.875 91.257C204.897 92.9831 204.495 95.3425 204.495 98.45H206.495C206.495 95.4575 206.893 93.5169 207.615 92.243L205.875 91.257ZM204.495 98.45C204.495 101.259 205.21 103.676 206.603 105.413C208.014 107.173 210.056 108.15 212.495 108.15V106.15C210.634 106.15 209.177 105.427 208.163 104.162C207.13 102.874 206.495 100.941 206.495 98.45H204.495ZM212.495 108.15C214.394 108.15 215.995 107.599 217.166 106.381C218.316 105.185 218.928 103.474 219.14 101.402L217.151 101.198C216.963 103.026 216.45 104.24 215.724 104.994C215.021 105.726 213.996 106.15 212.495 106.15V108.15ZM223.753 110H222.753V111H223.753V110ZM223.753 105.15V104.15H222.753V105.15H223.753ZM228.403 105.15H229.403V104.15H228.403V105.15ZM228.403 110V111H229.403V110H228.403ZM224.753 110V105.15H222.753V110H224.753ZM223.753 106.15H228.403V104.15H223.753V106.15ZM227.403 105.15V110H229.403V105.15H227.403ZM228.403 109H223.753V111H228.403V109Z" fill="#FDFF9D" mask="url(#path-1-outside-1_832_2789)"/>
</svg>
