<svg width="318" height="119" viewBox="0 0 318 119" fill="none" xmlns="http://www.w3.org/2000/svg">
<mask id="path-1-outside-1_835_2845" maskUnits="userSpaceOnUse" x="268" y="35" width="47" height="47" fill="black">
<rect fill="white" x="268" y="35" width="47" height="47"/>
<path d="M269.3 55.3H287.8V36.5H295V55.3H313.5V61.9H295V80.8H287.8V61.9H269.3V55.3Z"/>
</mask>
<path d="M269.3 55.3V54.3H268.3V55.3H269.3ZM287.8 55.3V56.3H288.8V55.3H287.8ZM287.8 36.5V35.5H286.8V36.5H287.8ZM295 36.5H296V35.5H295V36.5ZM295 55.3H294V56.3H295V55.3ZM313.5 55.3H314.5V54.3H313.5V55.3ZM313.5 61.9V62.9H314.5V61.9H313.5ZM295 61.9V60.9H294V61.9H295ZM295 80.8V81.8H296V80.8H295ZM287.8 80.8H286.8V81.8H287.8V80.8ZM287.8 61.9H288.8V60.9H287.8V61.9ZM269.3 61.9H268.3V62.9H269.3V61.9ZM269.3 56.3H287.8V54.3H269.3V56.3ZM288.8 55.3V36.5H286.8V55.3H288.8ZM287.8 37.5H295V35.5H287.8V37.5ZM294 36.5V55.3H296V36.5H294ZM295 56.3H313.5V54.3H295V56.3ZM312.5 55.3V61.9H314.5V55.3H312.5ZM313.5 60.9H295V62.9H313.5V60.9ZM294 61.9V80.8H296V61.9H294ZM295 79.8H287.8V81.8H295V79.8ZM288.8 80.8V61.9H286.8V80.8H288.8ZM287.8 60.9H269.3V62.9H287.8V60.9ZM270.3 61.9V55.3H268.3V61.9H270.3Z" fill="#FDFF9D" mask="url(#path-1-outside-1_835_2845)"/>
<mask id="path-3-outside-2_835_2845" maskUnits="userSpaceOnUse" x="1" y="-1" width="256" height="121" fill="black">
<rect fill="white" x="1" y="-1" width="256" height="121"/>
<path d="M3.96 86.27H17.82C18.48 92.375 19.47 94.685 21.45 96.995C24.42 100.295 29.205 102.275 34.815 102.275C49.995 102.275 59.235 88.58 60.39 64.16C53.79 72.08 46.365 75.71 35.64 75.71C15.675 75.71 2.31 61.685 2.31 41.06C2.31 19.115 16.5 3.935 37.455 3.935C50.49 3.935 61.38 9.875 67.815 20.765C72.27 28.19 74.91 40.73 74.91 55.25C74.91 92.54 60.06 114.65 34.98 114.65C23.76 114.65 14.025 110.03 8.745 102.11C5.94 97.985 4.455 93.365 3.96 86.27ZM37.785 16.145C25.245 16.145 16.665 25.88 16.665 40.07C16.665 54.59 24.585 63.335 37.455 63.335C50.82 63.335 58.74 54.59 58.74 40.235C58.74 25.88 50.16 16.145 37.785 16.145ZM116.288 3.76999C128.993 3.76999 139.388 10.04 145.823 21.26C150.113 29.18 152.918 44.36 152.918 59.705C152.918 95.51 140.213 114.815 116.123 114.815C103.418 114.815 93.0226 108.71 86.7526 97.325C82.4626 89.405 79.6576 74.39 79.6576 59.21C79.6576 23.075 92.3626 3.76999 116.288 3.76999ZM116.453 15.815C101.438 15.815 94.0126 30.17 94.0126 58.715C94.0126 75.05 96.3226 87.26 100.283 93.53C104.243 99.47 109.853 102.77 116.123 102.77C130.973 102.77 138.563 88.415 138.563 59.705C138.563 42.38 136.088 30.005 131.303 23.9C127.178 18.62 122.063 15.815 116.453 15.815ZM182.058 1.79C197.238 1.79 207.138 12.515 207.138 29.51C207.138 46.505 197.238 57.23 181.728 57.23C166.713 57.23 157.143 46.505 157.143 29.51C157.143 12.185 166.548 1.79 182.058 1.79ZM182.058 10.865C173.973 10.865 169.023 17.96 169.023 29.51C169.023 41.06 173.973 47.99 181.893 47.99C190.143 47.99 195.258 41.06 195.258 29.51C195.258 17.96 190.143 10.865 182.058 10.865ZM167.043 118.445L233.538 0.304995H243.438L176.943 118.445H167.043ZM230.403 58.715C245.583 58.715 255.318 69.605 255.318 86.6C255.318 103.595 245.583 114.155 230.073 114.155C214.893 114.155 205.323 103.595 205.323 86.435C205.323 69.44 214.893 58.715 230.403 58.715ZM230.238 67.955C222.153 67.955 217.203 74.885 217.203 86.6C217.203 97.985 222.153 105.08 230.238 105.08C238.323 105.08 243.438 97.985 243.438 86.6C243.438 74.885 238.323 67.955 230.238 67.955Z"/>
</mask>
<path d="M3.96 86.27V85.27H2.8878L2.96242 86.3396L3.96 86.27ZM17.82 86.27L18.8142 86.1625L18.7177 85.27H17.82V86.27ZM21.45 96.995L20.6907 97.6458L20.6986 97.655L20.7067 97.664L21.45 96.995ZM60.39 64.16L61.3889 64.2072L61.5297 61.2303L59.6218 63.5198L60.39 64.16ZM67.815 20.765L66.9541 21.2737L66.9575 21.2795L67.815 20.765ZM8.745 102.11L9.57709 101.555L9.57193 101.548L8.745 102.11ZM3.96 87.27H17.82V85.27H3.96V87.27ZM16.8258 86.3775C17.159 89.4593 17.5817 91.6524 18.1975 93.3897C18.8227 95.1537 19.6347 96.4137 20.6907 97.6458L22.2093 96.3442C21.2854 95.2663 20.6123 94.2163 20.0825 92.7216C19.5433 91.2001 19.141 89.1857 18.8142 86.1625L16.8258 86.3775ZM20.7067 97.664C23.9023 101.215 28.9801 103.275 34.815 103.275V101.275C29.4299 101.275 24.9377 99.3754 22.1933 96.326L20.7067 97.664ZM34.815 103.275C42.7597 103.275 49.1667 99.6669 53.6919 92.9327C58.1853 86.2459 60.8069 76.5123 61.3889 64.2072L59.3911 64.1128C58.8181 76.2277 56.2422 85.5516 52.0319 91.8173C47.8533 98.0356 42.0503 101.275 34.815 101.275V103.275ZM59.6218 63.5198C56.3936 67.3936 52.9981 70.1781 49.1352 72.0006C45.2725 73.823 40.8864 74.71 35.64 74.71V76.71C41.1186 76.71 45.8075 75.782 49.9886 73.8094C54.1694 71.8369 57.7864 68.8464 61.1582 64.8002L59.6218 63.5198ZM35.64 74.71C25.9005 74.71 17.8386 71.2946 12.2098 65.4271C6.57732 59.5558 3.31 51.1543 3.31 41.06H1.31C1.31 51.5907 4.72518 60.5142 10.7665 66.8116C16.8114 73.1129 25.4145 76.71 35.64 76.71V74.71ZM3.31 41.06C3.31 30.3044 6.78456 21.2808 12.7518 14.9543C18.7144 8.63277 27.2296 4.935 37.455 4.935V2.935C26.7254 2.935 17.6681 6.82723 11.2969 13.582C4.93044 20.3317 1.31 29.8706 1.31 41.06H3.31ZM37.455 4.935C50.1584 4.935 60.7099 10.7067 66.9541 21.2737L68.6759 20.2563C62.0501 9.04331 50.8216 2.935 37.455 2.935V4.935ZM66.9575 21.2795C71.2779 28.4801 73.91 40.809 73.91 55.25H75.91C75.91 40.651 73.2621 27.8999 68.6725 20.2505L66.9575 21.2795ZM73.91 55.25C73.91 73.7826 70.2167 88.4116 63.52 98.376C56.8537 108.295 47.1787 113.65 34.98 113.65V115.65C47.8613 115.65 58.1513 109.95 65.18 99.4915C72.1783 89.0784 75.91 74.0074 75.91 55.25H73.91ZM34.98 113.65C24.0214 113.65 14.6345 109.141 9.57705 101.555L7.91295 102.665C13.4155 110.919 23.4986 115.65 34.98 115.65V113.65ZM9.57193 101.548C6.8925 97.6074 5.44396 93.1719 4.95758 86.2004L2.96242 86.3396C3.46604 93.5581 4.9875 98.3626 7.91807 102.672L9.57193 101.548ZM37.785 15.145C31.2398 15.145 25.6826 17.6934 21.7727 22.1246C17.8716 26.5458 15.665 32.7761 15.665 40.07H17.665C17.665 33.1739 19.7484 27.4417 23.2723 23.4479C26.7874 19.4641 31.7902 17.145 37.785 17.145V15.145ZM15.665 40.07C15.665 47.5052 17.6939 53.5836 21.4893 57.8152C25.2966 62.0601 30.7822 64.335 37.455 64.335V62.335C31.2578 62.335 26.3484 60.2374 22.9782 56.4798C19.5961 52.7089 17.665 47.1548 17.665 40.07H15.665ZM37.455 64.335C44.3642 64.335 49.973 62.0676 53.8464 57.844C57.7094 53.6317 59.74 47.5904 59.74 40.235H57.74C57.74 47.2346 55.8106 52.7433 52.3724 56.4922C48.9445 60.2299 43.9108 62.335 37.455 62.335V64.335ZM59.74 40.235C59.74 32.8613 57.535 26.5912 53.6564 22.1492C49.7686 17.6966 44.2519 15.145 37.785 15.145V17.145C43.6931 17.145 48.6539 19.4609 52.1499 23.4646C55.655 27.4788 57.74 33.2537 57.74 40.235H59.74ZM145.823 21.26L146.702 20.7837L146.696 20.773L146.69 20.7625L145.823 21.26ZM86.7526 97.325L85.8733 97.8013L85.8767 97.8074L86.7526 97.325ZM100.283 93.53L99.4371 94.064L99.4437 94.0744L99.4506 94.0847L100.283 93.53ZM131.303 23.9L130.515 24.5156L130.516 24.5169L131.303 23.9ZM116.288 4.76999C128.616 4.76999 138.689 10.8325 144.955 21.7575L146.69 20.7625C140.086 9.24752 129.369 2.76999 116.288 2.76999V4.76999ZM144.943 21.7363C149.117 29.441 151.918 44.4244 151.918 59.705H153.918C153.918 44.2956 151.109 28.919 146.702 20.7837L144.943 21.7363ZM151.918 59.705C151.918 77.5163 148.753 91.0655 142.721 100.133C136.731 109.138 127.855 113.815 116.123 113.815V115.815C128.48 115.815 138.002 110.839 144.386 101.241C150.73 91.7045 153.918 77.6987 153.918 59.705H151.918ZM116.123 113.815C103.785 113.815 93.7241 107.911 87.6286 96.8426L85.8767 97.8074C92.3211 109.509 103.05 115.815 116.123 115.815V113.815ZM87.6319 96.8487C83.4577 89.1425 80.6576 74.3227 80.6576 59.21H78.6576C78.6576 74.4573 81.4675 89.6675 85.8733 97.8013L87.6319 96.8487ZM80.6576 59.21C80.6576 41.2324 83.8228 27.5995 89.8353 18.4902C95.8062 9.44401 104.641 4.76999 116.288 4.76999V2.76999C104.009 2.76999 94.529 7.74847 88.1662 17.3885C81.8449 26.9655 78.6576 41.0526 78.6576 59.21H80.6576ZM116.453 14.815C112.533 14.815 109.062 15.7542 106.074 17.661C103.09 19.5652 100.646 22.3977 98.7154 26.0981C94.8704 33.4694 93.0126 44.3885 93.0126 58.715H95.0126C95.0126 44.4965 96.8673 33.9656 100.489 27.0231C102.292 23.5667 104.518 21.0264 107.15 19.3469C109.777 17.6702 112.865 16.815 116.453 16.815V14.815ZM93.0126 58.715C93.0126 66.926 93.5929 74.1246 94.6789 80.0764C95.7621 86.0132 97.3599 90.775 99.4371 94.064L101.128 92.996C99.2453 90.015 97.7082 85.5368 96.6464 79.7174C95.5873 73.9129 95.0126 66.839 95.0126 58.715H93.0126ZM99.4506 94.0847C103.563 100.254 109.463 103.77 116.123 103.77V101.77C110.242 101.77 104.922 98.6861 101.115 92.9753L99.4506 94.0847ZM116.123 103.77C120.003 103.77 123.454 102.83 126.433 100.92C129.408 99.0139 131.857 96.177 133.797 92.4672C137.663 85.076 139.563 74.1162 139.563 59.705H137.563C137.563 74.0038 135.667 84.5765 132.025 91.5403C130.212 95.008 127.979 97.5543 125.354 99.2365C122.734 100.916 119.667 101.77 116.123 101.77V103.77ZM139.563 59.705C139.563 51.0003 138.941 43.5048 137.707 37.3969C136.476 31.3052 134.62 26.5112 132.09 23.2831L130.516 24.5169C132.77 27.3938 134.544 31.8398 135.747 37.793C136.946 43.7302 137.563 51.0846 137.563 59.705H139.563ZM132.091 23.2844C127.82 17.8175 122.435 14.815 116.453 14.815V16.815C121.69 16.815 126.536 19.4225 130.515 24.5156L132.091 23.2844ZM167.043 118.445L166.172 117.955L165.333 119.445H167.043V118.445ZM233.538 0.304995V-0.695005H232.953L232.667 -0.185497L233.538 0.304995ZM243.438 0.304995L244.31 0.795488L245.149 -0.695005H243.438V0.304995ZM176.943 118.445V119.445H177.528L177.815 118.935L176.943 118.445ZM182.058 2.79C189.401 2.79 195.39 5.37659 199.551 9.94986C203.721 14.5327 206.138 21.2036 206.138 29.51H208.138C208.138 20.8214 205.606 13.6323 201.03 8.60388C196.446 3.5659 189.895 0.789996 182.058 0.789996V2.79ZM206.138 29.51C206.138 37.8163 203.721 44.4851 199.513 49.0667C195.313 53.6392 189.242 56.23 181.728 56.23V58.23C189.724 58.23 196.358 55.4583 200.986 50.4196C205.605 45.3899 208.138 38.1987 208.138 29.51H206.138ZM181.728 56.23C174.473 56.23 168.611 53.647 164.553 49.079C160.483 44.4981 158.143 37.825 158.143 29.51H156.143C156.143 38.19 158.588 45.3769 163.057 50.4073C167.538 55.4505 173.969 58.23 181.728 58.23V56.23ZM158.143 29.51C158.143 21.0215 160.446 14.3551 164.528 9.82226C168.597 5.30267 174.537 2.79 182.058 2.79V0.789996C174.069 0.789996 167.552 3.47482 163.041 8.48398C158.543 13.4799 156.143 20.6735 156.143 29.51H158.143ZM182.058 9.865C177.681 9.865 174.12 11.805 171.689 15.2835C169.285 18.7241 168.023 23.6097 168.023 29.51H170.023C170.023 23.8603 171.236 19.4234 173.329 16.429C175.394 13.4725 178.35 11.865 182.058 11.865V9.865ZM168.023 29.51C168.023 35.4104 169.285 40.2556 171.669 43.6554C174.08 47.0927 177.6 48.99 181.893 48.99V46.99C178.266 46.99 175.351 45.4223 173.307 42.5071C171.236 39.5544 170.023 35.1595 170.023 29.51H168.023ZM181.893 48.99C186.335 48.99 189.978 47.1072 192.478 43.6694C194.953 40.2671 196.258 35.4161 196.258 29.51H194.258C194.258 35.1539 193.006 39.5429 190.861 42.4931C188.741 45.4078 185.702 46.99 181.893 46.99V48.99ZM196.258 29.51C196.258 23.6034 194.952 18.7163 192.505 15.2765C190.033 11.8025 186.433 9.865 182.058 9.865V11.865C185.768 11.865 188.768 13.475 190.875 16.436C193.006 19.4312 194.258 23.8665 194.258 29.51H196.258ZM167.915 118.935L234.41 0.795488L232.667 -0.185497L166.172 117.955L167.915 118.935ZM233.538 1.305H243.438V-0.695005H233.538V1.305ZM242.567 -0.185497L176.072 117.955L177.815 118.935L244.31 0.795488L242.567 -0.185497ZM176.943 117.445H167.043V119.445H176.943V117.445ZM230.403 59.715C237.74 59.715 243.686 62.3388 247.808 66.9507C251.939 71.5744 254.318 78.2891 254.318 86.6H256.318C256.318 77.9159 253.829 70.6881 249.299 65.618C244.758 60.5362 238.246 57.715 230.403 57.715V59.715ZM254.318 86.6C254.318 94.9104 251.94 101.536 247.775 106.074C243.619 110.603 237.591 113.155 230.073 113.155V115.155C238.065 115.155 244.66 112.427 249.249 107.427C253.829 102.436 256.318 95.2846 256.318 86.6H254.318ZM230.073 113.155C222.727 113.155 216.825 110.608 212.75 106.062C208.664 101.505 206.323 94.8345 206.323 86.435H204.323C204.323 95.1954 206.767 102.385 211.261 107.398C215.766 112.422 222.239 115.155 230.073 115.155V113.155ZM206.323 86.435C206.323 78.12 208.663 71.4503 212.79 66.8714C216.906 62.3046 222.891 59.715 230.403 59.715V57.715C222.406 57.715 215.851 60.4879 211.304 65.5324C206.769 70.5647 204.323 77.755 204.323 86.435H206.323ZM230.238 66.955C225.869 66.955 222.306 68.8468 219.871 72.3091C217.464 75.7317 216.203 80.6199 216.203 86.6H218.203C218.203 80.8651 219.417 76.4307 221.507 73.4596C223.568 70.5282 226.522 68.955 230.238 68.955V66.955ZM216.203 86.6C216.203 92.4204 217.466 97.2651 219.871 100.685C222.301 104.141 225.862 106.08 230.238 106.08V104.08C226.53 104.08 223.573 102.472 221.507 99.5341C219.415 96.5599 218.203 92.1646 218.203 86.6H216.203ZM230.238 106.08C234.612 106.08 238.211 104.143 240.683 100.692C243.131 97.2729 244.438 92.4267 244.438 86.6H242.438C242.438 92.1583 241.188 96.552 239.057 99.5271C236.95 102.469 233.949 104.08 230.238 104.08V106.08ZM244.438 86.6C244.438 80.6137 243.134 75.724 240.683 72.3021C238.207 68.8443 234.605 66.955 230.238 66.955V68.955C233.957 68.955 236.955 70.5307 239.057 73.4666C241.185 76.4385 242.438 80.8713 242.438 86.6H244.438Z" fill="#FDFF9D" mask="url(#path-3-outside-2_835_2845)"/>
</svg>
